<svg width="244" height="59" viewBox="0 0 244 59" fill="none" xmlns="http://www.w3.org/2000/svg">
<path d="M16.7825 51.4502C16.1825 50.8402 16.1825 49.8302 16.7825 49.2202L21.7625 44.1402L22.0625 43.8402L29.2325 36.5202L36.3925 43.8302L38.3425 45.8302L41.6625 49.2202C42.2625 49.8302 42.2625 50.8302 41.6625 51.4502L46.1625 46.8602C48.2325 44.7502 48.2325 41.3202 46.1625 39.2102L29.2225 21.9302L14.7225 36.7302L12.2825 39.2202C10.2125 41.3402 10.2125 44.7602 12.2825 46.8702L16.7825 51.4602V51.4502Z" fill="#221F20"/>
<path d="M6.0525 40.47C5.4525 39.86 5.4525 38.85 6.0525 38.24L29.2225 14.6L52.4025 38.24C53.0025 38.85 53.0025 39.86 52.4025 40.47L56.9025 35.88C58.9725 33.77 58.9725 30.34 56.9025 28.22L29.2225 0L1.5525 28.23C-0.5175 30.34 -0.5175 33.77 1.5525 35.89L6.04249 40.47H6.0525Z" fill="#221F20"/>
<path d="M29.2225 58.4499L22.0525 51.1499L25.6425 47.4999L29.2225 43.8599L32.7925 47.4899L36.3825 51.1499L29.2225 58.4499Z" fill="#FFD400"/>
<path d="M180.08 19.56C180.51 19.56 180.86 19.21 180.86 18.78C180.86 18.35 180.51 18 180.08 18C179.65 18 179.3 18.35 179.3 18.78C179.3 19.21 179.65 19.56 180.08 19.56Z" fill="#221F20"/>
<path d="M173.65 18.0102C174.08 18.0102 174.43 17.6602 174.43 17.2302C174.43 16.8002 174.08 16.4502 173.65 16.4502C173.22 16.4502 172.87 16.8002 172.87 17.2302C172.87 17.6602 173.22 18.0102 173.65 18.0102Z" fill="#221F20"/>
<path d="M178.11 19.56C178.54 19.56 178.89 19.21 178.89 18.78C178.89 18.35 178.54 18 178.11 18C177.68 18 177.33 18.35 177.33 18.78C177.33 19.21 177.68 19.56 178.11 19.56Z" fill="#221F20"/>
<path d="M90.75 19.56C91.18 19.56 91.53 19.21 91.53 18.78C91.53 18.35 91.18 18 90.75 18C90.32 18 89.97 18.35 89.97 18.78C89.97 19.21 90.32 19.56 90.75 19.56Z" fill="#221F20"/>
<path d="M88.79 19.56C89.22 19.56 89.57 19.21 89.57 18.78C89.57 18.35 89.22 18 88.79 18C88.36 18 88.01 18.35 88.01 18.78C88.01 19.21 88.36 19.56 88.79 19.56Z" fill="#221F20"/>
<path d="M82.99 19.56C83.42 19.56 83.77 19.21 83.77 18.78C83.77 18.35 83.42 18 82.99 18C82.56 18 82.21 18.35 82.21 18.78C82.21 19.21 82.56 19.56 82.99 19.56Z" fill="#221F20"/>
<path d="M173.85 18.78C173.85 19.21 174.2 19.56 174.63 19.56C175.06 19.56 175.41 19.21 175.41 18.78C175.41 18.35 175.06 18 174.63 18C174.2 18 173.85 18.35 173.85 18.78Z" fill="#221F20"/>
<path d="M172.67 19.56C173.1 19.56 173.45 19.21 173.45 18.78C173.45 18.35 173.1 18 172.67 18C172.24 18 171.89 18.35 171.89 18.78C171.89 19.21 172.24 19.56 172.67 19.56Z" fill="#221F20"/>
<path d="M159.36 23.9298V28.6098C159.36 30.2698 157.91 30.0798 157.91 30.0798C160.68 30.8298 160.89 29.1598 160.89 28.2798C160.89 27.3998 160.89 22.8198 160.89 22.8198C160.13 24.2498 159.37 23.9398 159.37 23.9398" fill="#221F20"/>
<path d="M213.77 26.2299V28.6099C213.77 30.2699 212.32 30.0799 212.32 30.0799C215.09 30.8299 215.3 29.1599 215.3 28.2799C215.3 27.3999 215.3 25.1099 215.3 25.1099C214.54 26.5399 213.78 26.2299 213.78 26.2299" fill="#221F20"/>
<path d="M150.18 23.9298V28.6098C150.18 30.2698 148.73 30.0798 148.73 30.0798C151.5 30.8298 151.71 29.1598 151.71 28.2798C151.71 27.3998 151.71 22.8198 151.71 22.8198C150.95 24.2498 150.19 23.9398 150.19 23.9398" fill="#221F20"/>
<path d="M125.78 23.9298V28.6098C125.78 30.2698 124.33 30.0798 124.33 30.0798C127.1 30.8298 127.31 29.1598 127.31 28.2798C127.31 27.3998 127.31 22.8198 127.31 22.8198C126.55 24.2498 125.79 23.9398 125.79 23.9398" fill="#221F20"/>
<path d="M197.35 16.8502V28.5402H198.96V15.2002C198.07 16.8902 197.35 16.8502 197.35 16.8502Z" fill="#221F20"/>
<path d="M153.04 15.2002V28.5402H154.65V16.8502C154.65 16.8502 153.93 16.9002 153.04 15.2002Z" fill="#221F20"/>
<path d="M194.03 15.1999V27.0199H190.85V28.5399H195.64V16.8399C195.64 16.8399 194.92 16.8899 194.03 15.1899" fill="#221F20"/>
<path d="M103.57 16.8502V28.5402H105.18V15.2002C104.29 16.8902 103.57 16.8502 103.57 16.8502Z" fill="#221F20"/>
<path d="M94.64 28.5499C94.19 28.5499 93.83 28.1799 93.83 27.7399C93.83 27.2999 94.19 26.9199 94.64 26.9199C95.09 26.9199 95.4501 27.2799 95.4501 27.7399C95.4501 28.1999 95.09 28.5499 94.64 28.5499ZM78.03 27.0499H76.97C76.97 26.2999 77.33 25.9299 78.03 25.9299V27.0499ZM100.25 15.1999V27.0199H96.91C96.61 26.0399 95.7 25.3299 94.63 25.3299C93.56 25.3299 92.66 26.0399 92.35 27.0199V27.0399H90.56V21.2499C90.56 21.2499 89.87 22.5199 88.95 22.9199V27.0399H84.58V21.2499C84.58 21.2499 83.89 22.5199 82.97 22.9199V27.0399H79.7V23.6499C79.41 23.9999 79.21 24.1999 79.12 24.2299C78.91 24.3199 78.6 24.3699 78.2 24.3999C77.46 24.4499 76.84 24.7199 76.34 25.1899C75.81 25.6899 75.55 26.3099 75.55 27.0299V28.5199H78.17V29.3299C78.17 30.9799 76.71 30.7999 76.71 30.7999C79.49 31.5499 79.7 29.8799 79.7 28.9999V28.5199H92.37C92.7 29.4699 93.58 30.1499 94.62 30.1499C95.66 30.1499 96.56 29.4599 96.88 28.4999V28.5199H101.85V16.8199C101.85 16.8199 101.13 16.8599 100.24 15.1699" fill="#221F20"/>
<path d="M192.49 15.2002C191.6 16.8902 190.89 16.8502 190.89 16.8502V25.6002H192.49V15.2002Z" fill="#221F20"/>
<path d="M167.15 28.5502C166.7 28.5502 166.33 28.1802 166.33 27.7402C166.33 27.3002 166.69 26.9202 167.15 26.9202C167.61 26.9202 167.96 27.2802 167.96 27.7402C167.96 28.2002 167.6 28.5502 167.15 28.5502ZM187.04 22.6602V27.0202H185.52V23.3102C185.52 23.3102 185.08 23.8302 184 24.0202V27.0202H182.65V24.4002C182.65 24.4002 182.23 24.7302 181.13 24.7202V27.0202H179.54V21.2402C178.6 22.8202 178.02 22.8902 178.02 22.8902V27.0202H174.42V21.2402C173.48 22.8202 172.9 22.8902 172.9 22.8902V27.0202H169.44C169.13 26.0402 168.23 25.3302 167.16 25.3302C166.09 25.3302 165.19 26.0402 164.88 27.0202H163.83V15.2002C162.93 16.8902 162.22 16.8502 162.22 16.8502V28.5502H164.9C165.22 29.5002 166.11 30.1802 167.15 30.1802C168.19 30.1802 169.09 29.4902 169.41 28.5302V28.5502H188.56V21.0202C187.62 22.5902 187.03 22.6702 187.03 22.6702" fill="#221F20"/>
<path d="M147.38 29.6602C146.95 29.6602 146.6 30.0102 146.6 30.4402C146.6 30.8702 146.95 31.2202 147.38 31.2202C147.81 31.2202 148.16 30.8702 148.16 30.4402C148.16 30.0102 147.81 29.6602 147.38 29.6602Z" fill="#221F20"/>
<path d="M145.42 29.6602C144.99 29.6602 144.64 30.0102 144.64 30.4402C144.64 30.8702 144.99 31.2202 145.42 31.2202C145.85 31.2202 146.2 30.8702 146.2 30.4402C146.2 30.0102 145.85 29.6602 145.42 29.6602Z" fill="#221F20"/>
<path d="M122.96 29.6602C122.53 29.6602 122.18 30.0102 122.18 30.4402C122.18 30.8702 122.53 31.2202 122.96 31.2202C123.39 31.2202 123.74 30.8702 123.74 30.4402C123.74 30.0102 123.39 29.6602 122.96 29.6602Z" fill="#221F20"/>
<path d="M121 29.6602C120.57 29.6602 120.22 30.0102 120.22 30.4402C120.22 30.8702 120.57 31.2202 121 31.2202C121.43 31.2202 121.78 30.8702 121.78 30.4402C121.78 30.0102 121.43 29.6602 121 29.6602Z" fill="#221F20"/>
<path d="M228.82 20.6699C229.25 20.6699 229.6 20.3199 229.6 19.8899C229.6 19.4599 229.25 19.1099 228.82 19.1099C228.39 19.1099 228.04 19.4599 228.04 19.8899C228.04 20.3199 228.39 20.6699 228.82 20.6699Z" fill="#221F20"/>
<path d="M241.56 27.04H234.29V24.59H240.43C241.05 24.59 241.56 25.1 241.56 25.72V27.04ZM243.05 25.53C243.05 24.18 241.96 23.08 240.6 23.08H234.29V21.25C234.29 21.25 233.59 22.52 232.68 22.92V27.04H231.12V21.25C231.12 21.25 230.43 22.52 229.51 22.92V27.04H226.94V25.53C226.94 24.18 225.85 23.08 224.49 23.08H218.96C216.96 23.08 216.62 21.41 216.62 21.41V23.08V24.59H224.32C224.94 24.59 225.45 25.1 225.45 25.72V27.04H216.62V28.54H243.04V25.53H243.05Z" fill="#221F20"/>
<path d="M148.14 28.55V27.05V21.26C148.14 21.26 147.45 22.53 146.53 22.92V27.04H142.17V17.04C141.27 18.73 140.56 18.69 140.56 18.69V27.04H138.17H133.64C131.64 27.04 131.31 25.37 131.31 25.37V25.81V27.04V28.55H138.17H148.15H148.14Z" fill="#221F20"/>
<path d="M70.91 25.7199C70.91 25.0999 71.41 24.5899 72.04 24.5899H74.2V23.0799V22.5899V22.1499C74.2 22.1499 73.87 23.0799 71.87 23.0799C70.52 23.0799 69.42 24.1799 69.42 25.5299V27.0299C69.42 27.1599 69.44 27.2899 69.47 27.4099C68.77 27.8399 68.3 28.6099 68.3 29.4899V30.4199C68.3 31.4199 69.01 32.2399 69.94 32.4499L69.98 32.4599L70.08 32.4799L70.37 32.4999H71.48C70.12 32.4999 69.85 31.0899 69.79 30.3799L69.78 30.0699V29.6699C69.78 29.0499 70.29 28.5399 70.91 28.5399H73.81L74.19 28.5299V27.0299H70.89V25.7099L70.91 25.7199Z" fill="#221F20"/>
<path d="M213.62 26.2899H212.56C212.56 25.5499 212.92 25.1799 213.62 25.1799V26.2899ZM214.71 23.4899C214.51 23.5799 214.2 23.6299 213.8 23.6599C213.06 23.7099 212.44 23.9799 211.94 24.4499C211.41 24.9499 211.14 25.5699 211.14 26.2899V27.7899H213.76V28.5999C213.76 30.2499 212.3 30.0699 212.3 30.0699C215.08 30.8199 215.29 29.1499 215.29 28.2599V22.8999C214.99 23.2499 214.8 23.4399 214.7 23.4799" fill="#221F20"/>
<path d="M208.3 25.1901H207.25C207.25 24.4501 207.6 24.0801 208.3 24.0801V25.1901ZM209.4 22.3901C209.2 22.4801 208.89 22.5301 208.49 22.5601C207.75 22.6101 207.13 22.8801 206.62 23.3501C206.1 23.8501 205.83 24.4701 205.83 25.1901V26.6901H208.45V28.7401H203.88C202.22 28.7401 202.4 27.2801 202.4 27.2801C201.65 30.0601 203.33 30.2701 204.21 30.2701H208.24C209.84 30.2701 209.98 29.0001 209.98 28.2801V21.8101C209.68 22.1601 209.5 22.3501 209.4 22.3901Z" fill="#221F20"/>
<path d="M208.75 20.6699C209.18 20.6699 209.53 20.3199 209.53 19.8899C209.53 19.4599 209.18 19.1099 208.75 19.1099C208.32 19.1099 207.97 19.4599 207.97 19.8899C207.97 20.3199 208.32 20.6699 208.75 20.6699Z" fill="#221F20"/>
<path d="M206.79 20.6699C207.22 20.6699 207.57 20.3199 207.57 19.8899C207.57 19.4599 207.22 19.1099 206.79 19.1099C206.36 19.1099 206.01 19.4599 206.01 19.8899C206.01 20.3199 206.36 20.6699 206.79 20.6699Z" fill="#221F20"/>
<path d="M114.18 20.6699C114.61 20.6699 114.96 20.3199 114.96 19.8899C114.96 19.4599 114.61 19.1099 114.18 19.1099C113.75 19.1099 113.4 19.4599 113.4 19.8899C113.4 20.3199 113.75 20.6699 114.18 20.6699Z" fill="#221F20"/>
<path d="M112.22 20.6699C112.65 20.6699 113 20.3199 113 19.8899C113 19.4599 112.65 19.1099 112.22 19.1099C111.79 19.1099 111.44 19.4599 111.44 19.8899C111.44 20.3199 111.79 20.6699 112.22 20.6699Z" fill="#221F20"/>
<path d="M122.12 22.92V27.04H117.76V21.25C117.76 21.25 117.07 22.52 116.15 22.91V27.03H110.08V22.91C109.16 22.52 108.46 21.25 108.46 21.25V28.54H123.74V27.04V21.25C123.74 21.25 123.05 22.52 122.13 22.91" fill="#221F20"/>
<path d="M137.09 23.5298H136.85C136.61 23.5298 136.37 23.3598 136.13 23.0298C135.96 22.7798 135.85 22.5398 135.79 22.2998C135.78 22.2598 135.98 22.0598 136.41 21.6898L136.54 21.5698C136.4 21.6598 136.07 21.5598 135.9 21.6998C135.25 22.1998 134.92 22.4898 134.9 22.5798C134.87 22.7298 134.9 22.8698 135 23.0298C135.15 23.2598 135.23 23.4298 135.26 23.5198H134.98C134.65 23.5398 134.46 23.4898 134.42 23.3498V23.9398H137.09V23.5298Z" fill="#221F20"/>
<path d="M70.09 40.1799L71.07 37.6199L72.1 40.1799H70.09ZM74.73 42.8899L74.46 42.7599C74.35 42.6699 74.24 42.5499 74.15 42.3799C74.05 42.1999 73.92 41.9299 73.76 41.5399L71.62 36.3599H71.34L69.53 41.0099C69.36 41.4299 69.23 41.7499 69.14 41.9699C69.03 42.1799 68.93 42.3499 68.83 42.4799C68.71 42.6499 68.58 42.7699 68.44 42.8499C68.31 42.9199 68.16 42.9699 67.99 42.9799V43.0899H70.2V42.9799C70 42.9599 69.84 42.9099 69.71 42.8199L69.49 42.5699L69.41 42.2299C69.41 42.0199 69.49 41.7399 69.64 41.3699L69.76 41.0699L70.02 40.3899H72.18L72.66 41.5599L72.74 41.7599C72.83 41.9899 72.88 42.1699 72.88 42.3099C72.88 42.5299 72.78 42.7099 72.58 42.8399C72.47 42.9099 72.26 42.9599 71.97 42.9799V43.0899H75.21V42.9799C75 42.9599 74.85 42.9399 74.75 42.8999" fill="#221F20"/>
<path d="M76.96 42.7899L76.81 42.5299C76.79 42.4199 76.77 42.2599 76.77 42.0399V41.6699V36.1699L75.35 36.3499V36.4599C75.5 36.4599 75.62 36.4999 75.69 36.5399L75.9 36.7399C75.95 36.8199 75.99 36.9399 76.01 37.0699C76.03 37.2099 76.03 37.4399 76.03 37.7799V41.6399C76.03 41.9399 76.03 42.1599 76.01 42.3099C75.99 42.4599 75.97 42.5799 75.93 42.6499L75.72 42.8899C75.64 42.9399 75.49 42.9699 75.3 42.9999V43.1099H77.48V42.9999C77.24 42.9499 77.06 42.8899 76.97 42.7999" fill="#221F20"/>
<path d="M79.2101 36.3099C79.1301 36.2299 79.0201 36.1899 78.8901 36.1899L78.5701 36.3099L78.4401 36.6199L78.5701 36.9299C78.6501 37.0099 78.7601 37.0499 78.8901 37.0499C79.0201 37.0499 79.1301 37.0099 79.2101 36.9299L79.3401 36.6199L79.2101 36.3099ZM79.4801 42.7799L79.3301 42.5199C79.3001 42.4099 79.2801 42.2499 79.2801 42.0299V38.8199L77.8601 38.9999V39.0999C78.0001 39.1199 78.1201 39.1399 78.2001 39.1799L78.4001 39.3799C78.4501 39.4699 78.4901 39.5799 78.5101 39.7099C78.5301 39.8499 78.5401 40.0799 78.5401 40.4099V41.6199C78.5401 41.9099 78.5401 42.1299 78.5201 42.2799C78.5001 42.4299 78.4701 42.5499 78.4401 42.6199L78.2301 42.8599C78.1501 42.9099 78.0101 42.9399 77.8101 42.9699V43.0799H79.9901V42.9699C79.7401 42.9199 79.5701 42.8599 79.4801 42.7699" fill="#221F20"/>
<path d="M83.13 41.1798C82.97 40.9698 82.74 40.7898 82.43 40.6498L81.91 40.4098C81.67 40.2998 81.49 40.1798 81.37 40.0498C81.26 39.9198 81.2 39.7798 81.2 39.6098C81.2 39.4198 81.27 39.2498 81.4 39.1198C81.53 38.9798 81.68 38.9198 81.86 38.9198C82 38.9198 82.13 38.9498 82.26 39.0198C82.4 39.0998 82.51 39.1898 82.61 39.3098L82.78 39.5898C82.83 39.6798 82.86 39.8098 82.9 39.9698H83L82.95 38.8498H82.85L82.68 38.9998L82.54 38.9698L82.37 38.8898C82.23 38.8298 82.07 38.7998 81.9 38.7998C81.52 38.7998 81.23 38.9198 81 39.1598C80.8 39.3698 80.7 39.6298 80.7 39.9298C80.7 40.1998 80.8 40.4498 81 40.6598C81.14 40.8098 81.41 40.9898 81.83 41.2098C82.07 41.3298 82.23 41.4298 82.33 41.4998L82.58 41.7298C82.69 41.8798 82.75 42.0598 82.75 42.2798C82.75 42.5298 82.67 42.7298 82.51 42.8598C82.36 42.9798 82.18 43.0398 81.97 43.0398C81.64 43.0398 81.34 42.8598 81.09 42.4898C80.95 42.2898 80.83 42.0098 80.74 41.6698H80.66V43.0698H80.74L81 42.9298H81.11C81.11 42.9298 81.22 42.9798 81.37 43.0398C81.59 43.1198 81.81 43.1698 82.03 43.1698C82.43 43.1698 82.76 43.0298 83.02 42.7798C83.24 42.5498 83.35 42.2598 83.35 41.9198C83.35 41.6298 83.27 41.3798 83.12 41.1798" fill="#221F20"/>
<path d="M86.68 42.5301C86.57 42.6901 86.45 42.8001 86.35 42.8601C86.25 42.9201 86.13 42.9501 85.99 42.9501L85.66 42.8701L85.42 42.6801C85.31 42.5401 85.25 42.2901 85.25 41.9401V39.0701H86.5V38.8801H85.25V37.6001H85.07L85.02 37.7701C84.96 37.9601 84.9 38.1101 84.83 38.2301L84.57 38.6001C84.39 38.8001 84.19 38.9301 83.98 38.9901V39.0701H84.5V42.0501C84.5 42.3401 84.52 42.5301 84.55 42.6501L84.74 42.9301C84.91 43.0801 85.19 43.1601 85.58 43.1601C85.88 43.1601 86.12 43.1101 86.32 43.0101C86.52 42.9101 86.67 42.7701 86.78 42.5701L86.7 42.5101L86.68 42.5301Z" fill="#221F20"/>
<path d="M88.05 36.3099C87.97 36.2299 87.86 36.1899 87.73 36.1899L87.42 36.3099L87.29 36.6199L87.41 36.9299C87.49 37.0099 87.6 37.0499 87.73 37.0499C87.86 37.0499 87.97 37.0099 88.05 36.9299L88.18 36.6199L88.05 36.3099ZM88.32 42.7799L88.17 42.5199C88.14 42.4099 88.13 42.2499 88.13 42.0299V41.6499V38.8099L86.71 38.9899V39.0899C86.85 39.1099 86.97 39.1299 87.05 39.1699L87.25 39.3699C87.31 39.4599 87.35 39.5699 87.36 39.6999C87.38 39.8399 87.38 40.0699 87.38 40.3999V41.6099C87.38 41.8999 87.38 42.1199 87.36 42.2699C87.34 42.4199 87.32 42.5399 87.28 42.6099L87.07 42.8499C86.98 42.8999 86.84 42.9299 86.65 42.9599V43.0699H88.83V42.9599C88.58 42.9099 88.41 42.8499 88.32 42.7599" fill="#221F20"/>
<path d="M91.88 42.5301C91.76 42.6901 91.65 42.8001 91.55 42.8601C91.45 42.9201 91.33 42.9501 91.19 42.9501L90.86 42.8701L90.62 42.6801C90.5 42.5401 90.44 42.2901 90.44 41.9401V39.0701H91.69V38.8801H90.44V37.6001H90.26L90.21 37.7701C90.15 37.9601 90.09 38.1101 90.02 38.2301L89.76 38.6001C89.58 38.8001 89.38 38.9301 89.17 38.9901V39.0701H89.7V42.0501C89.7 42.3401 89.72 42.5301 89.75 42.6501L89.93 42.9301C90.11 43.0801 90.39 43.1601 90.78 43.1601C91.08 43.1601 91.32 43.1101 91.51 43.0101C91.71 42.9101 91.86 42.7701 91.97 42.5701L91.89 42.5101L91.88 42.5301Z" fill="#221F20"/>
<path d="M96.4 42.7899L96.25 42.5299C96.22 42.4199 96.21 42.2599 96.21 42.0399V41.6699V40.2299C96.21 39.8999 96.18 39.6499 96.11 39.4899C96.04 39.3299 95.91 39.1899 95.74 39.0699C95.48 38.9099 95.16 38.8399 94.78 38.8399C94.48 38.8399 94.2 38.8999 93.96 39.0199L93.64 39.2299C93.55 39.2999 93.45 39.4199 93.34 39.5499V36.1699L91.92 36.3499V36.4599C92.06 36.4599 92.18 36.4999 92.25 36.5399L92.46 36.7399C92.51 36.8199 92.55 36.9399 92.57 37.0699C92.58 37.2099 92.6 37.4399 92.6 37.7799V41.6399C92.6 41.9399 92.6 42.1599 92.58 42.3099C92.56 42.4599 92.54 42.5799 92.5 42.6499L92.29 42.8899C92.21 42.9399 92.06 42.9699 91.86 42.9999V43.1099H94.04V42.9999C93.8 42.9499 93.63 42.8899 93.54 42.7999L93.38 42.5399C93.36 42.4299 93.34 42.2699 93.34 42.0499V40.8999C93.34 39.6499 93.74 39.0299 94.52 39.0299C94.83 39.0299 95.07 39.1199 95.23 39.3199C95.31 39.4199 95.38 39.5399 95.41 39.6799C95.44 39.8199 95.46 40.0099 95.46 40.2399V41.7999C95.46 42.0699 95.44 42.2899 95.42 42.4199C95.4 42.5599 95.36 42.6799 95.3 42.7499L95.1 42.9199C95.02 42.9599 94.9 42.9799 94.73 42.9999V43.1099H96.91V42.9999C96.66 42.9499 96.49 42.8899 96.4 42.7999" fill="#221F20"/>
<path d="M104.53 42.7901L104.38 42.5301C104.36 42.4201 104.34 42.2601 104.34 42.0401V41.6701V40.0001C104.34 39.6501 104.22 39.3701 103.97 39.1601C103.72 38.9401 103.4 38.8301 103.01 38.8301C102.72 38.8301 102.45 38.8901 102.19 39.0101C101.94 39.1201 101.69 39.3101 101.44 39.5601C101.28 39.3301 101.14 39.1601 101.01 39.0601C100.8 38.9101 100.55 38.8301 100.24 38.8301C99.97 38.8301 99.69 38.8901 99.44 39.0101C99.18 39.1201 98.96 39.3001 98.74 39.5201C98.72 39.2901 98.69 39.0601 98.63 38.8301L97.28 39.0001V39.1001C97.42 39.1001 97.54 39.1401 97.62 39.1801L97.82 39.3801C97.88 39.4601 97.91 39.5801 97.93 39.7101C97.94 39.8501 97.95 40.0801 97.95 40.4201V41.6301C97.95 41.9201 97.95 42.1401 97.93 42.2901C97.91 42.4401 97.89 42.5601 97.85 42.6301L97.65 42.8701C97.56 42.9201 97.42 42.9501 97.22 42.9801V43.0901H99.4V42.9801C99.15 42.9301 98.98 42.8701 98.89 42.7801L98.74 42.5201C98.71 42.4101 98.7 42.2501 98.7 42.0301V41.6701V40.7701C98.7 40.4801 98.71 40.2301 98.75 40.0401C98.79 39.8501 98.86 39.6901 98.94 39.5601C99.04 39.4101 99.17 39.2901 99.33 39.2001C99.5 39.1101 99.67 39.0601 99.86 39.0601C100.02 39.0601 100.17 39.1001 100.3 39.1701C100.43 39.2401 100.53 39.3301 100.6 39.4401C100.67 39.5501 100.72 39.7001 100.75 39.8801C100.77 40.0501 100.79 40.3301 100.79 40.7201V41.6301C100.79 41.9201 100.79 42.1401 100.77 42.2901C100.75 42.4401 100.72 42.5601 100.69 42.6301L100.48 42.8701C100.4 42.9201 100.25 42.9501 100.06 42.9801V43.0901H102.24V42.9801C101.99 42.9301 101.82 42.8701 101.72 42.7801L101.58 42.5201C101.55 42.4101 101.54 42.2501 101.54 42.0301V40.7101C101.54 40.1601 101.62 39.7501 101.77 39.5001C101.96 39.2001 102.25 39.0501 102.66 39.0501C103.04 39.0501 103.31 39.1901 103.46 39.4701C103.53 39.5801 103.57 39.7301 103.6 39.8901C103.63 40.0501 103.63 40.3201 103.63 40.6901V41.6301C103.63 41.9201 103.63 42.1401 103.61 42.2901C103.59 42.4401 103.57 42.5601 103.53 42.6301L103.32 42.8701C103.23 42.9201 103.09 42.9501 102.9 42.9801V43.0901H105.08V42.9801C104.84 42.9301 104.66 42.8701 104.57 42.7801" fill="#221F20"/>
<path d="M107.93 41.5001C107.93 41.9201 107.88 42.2401 107.78 42.4601C107.7 42.6301 107.6 42.7601 107.45 42.8601C107.31 42.9601 107.16 43.0001 107 43.0001C106.81 43.0001 106.66 42.9301 106.55 42.7901C106.43 42.6501 106.37 42.4701 106.37 42.2601C106.37 42.0001 106.45 41.7801 106.6 41.5901L106.85 41.3601C106.95 41.2901 107.11 41.1901 107.35 41.0601C107.56 40.9501 107.76 40.8301 107.93 40.6701V41.5001ZM109.56 42.6201L109.35 42.8401L109.11 42.8901C108.9 42.8901 108.77 42.7701 108.71 42.5401C108.69 42.4301 108.67 42.2101 108.67 41.9101V40.0801C108.67 39.8501 108.65 39.6801 108.63 39.5901C108.58 39.3901 108.44 39.2301 108.23 39.1101C108.09 39.0301 107.9 38.9701 107.68 38.9101C107.46 38.8601 107.25 38.8301 107.04 38.8301C106.86 38.8301 106.68 38.8501 106.49 38.8901C106.3 38.9301 106.14 38.9701 106.01 39.0301C105.77 39.1401 105.65 39.2901 105.65 39.4601L105.76 39.7301L106.04 39.8401C106.22 39.8401 106.34 39.7601 106.4 39.6101L106.52 39.3201L106.76 39.0301C106.86 38.9601 106.98 38.9301 107.12 38.9301L107.45 39.0001L107.7 39.2001C107.84 39.3801 107.92 39.6601 107.92 40.0401C107.92 40.2201 107.9 40.3701 107.86 40.4601L107.64 40.7301C107.55 40.8001 107.43 40.8601 107.3 40.9101C107.16 40.9501 106.95 41.0201 106.67 41.0901C106.43 41.1501 106.24 41.2101 106.11 41.2701C105.98 41.3301 105.87 41.4101 105.77 41.5101C105.6 41.6901 105.51 41.9201 105.51 42.1901C105.51 42.4901 105.62 42.7201 105.83 42.9001C106.04 43.0701 106.33 43.1601 106.69 43.1601C106.98 43.1601 107.22 43.1001 107.44 42.9801C107.55 42.9201 107.71 42.7901 107.93 42.5901C108.04 42.7801 108.15 42.9101 108.25 42.9901C108.4 43.1001 108.6 43.1601 108.83 43.1601C109.26 43.1601 109.52 42.9901 109.64 42.6401L109.56 42.5901V42.6201Z" fill="#221F20"/>
<path d="M112.95 38.9701C112.84 38.8801 112.68 38.8301 112.47 38.8301C112.12 38.8301 111.81 38.9301 111.54 39.1301C111.4 39.2301 111.26 39.3901 111.15 39.5901C111.15 39.3801 111.12 39.1301 111.06 38.8301L109.79 39.0101V39.1101C109.94 39.1201 110.05 39.1501 110.13 39.1801L110.33 39.3801C110.39 39.4701 110.43 39.5801 110.44 39.7101C110.46 39.8501 110.46 40.0801 110.46 40.4201V41.6301C110.46 41.9201 110.46 42.1401 110.44 42.2901C110.42 42.4401 110.4 42.5601 110.36 42.6301L110.15 42.8701C110.06 42.9201 109.92 42.9501 109.73 42.9801V43.0901H111.91V42.9801C111.66 42.9301 111.49 42.8701 111.4 42.7801L111.25 42.5201C111.22 42.4101 111.21 42.2501 111.21 42.0301V41.6601V40.7401C111.21 40.2201 111.27 39.8201 111.4 39.5301C111.52 39.2401 111.69 39.1001 111.92 39.1001C112.08 39.1001 112.22 39.1601 112.34 39.2901L112.49 39.4601L112.79 39.6001L113.02 39.5101L113.11 39.2901C113.11 39.1601 113.06 39.0501 112.96 38.9701" fill="#221F20"/>
<path d="M117.75 40.1799L118.73 37.6199L119.76 40.1799H117.75ZM122.4 42.8899L122.13 42.7599C122.02 42.6699 121.91 42.5499 121.82 42.3799C121.72 42.1999 121.59 41.9299 121.43 41.5399L119.29 36.3599H119.01L117.21 41.0099C117.04 41.4299 116.91 41.7499 116.81 41.9699C116.7 42.1799 116.61 42.3499 116.5 42.4799C116.38 42.6499 116.25 42.7699 116.11 42.8499C115.98 42.9199 115.83 42.9699 115.65 42.9799V43.0899H117.86V42.9799C117.66 42.9599 117.5 42.9099 117.37 42.8199L117.15 42.5699L117.07 42.2299C117.07 42.0199 117.15 41.7399 117.3 41.3699L117.42 41.0699L117.68 40.3899H119.84L120.32 41.5599L120.4 41.7599C120.49 41.9899 120.54 42.1699 120.54 42.3099C120.54 42.5299 120.44 42.7099 120.24 42.8399C120.13 42.9099 119.92 42.9599 119.63 42.9799V43.0899H122.87V42.9799C122.67 42.9599 122.51 42.9399 122.42 42.8999" fill="#221F20"/>
<path d="M126.24 39.6199C126.06 39.6699 125.77 39.6899 125.37 39.6899H125.18V36.5199H125.39C125.74 36.5199 126.01 36.5399 126.2 36.5799C126.39 36.6199 126.56 36.7099 126.69 36.8099C126.86 36.9599 127 37.1399 127.11 37.3799C127.21 37.6099 127.26 37.8499 127.26 38.1099C127.26 38.5999 127.09 39.0099 126.74 39.3299C126.59 39.4699 126.42 39.5699 126.25 39.6199M129.11 42.8999L128.88 42.6899C128.77 42.5599 128.65 42.3599 128.5 42.0799C128.36 41.8099 128.13 41.3699 127.84 40.7599C127.71 40.4999 127.62 40.3199 127.56 40.2099L127.36 39.9499C127.26 39.8599 127.12 39.7699 126.92 39.6899C127.15 39.6399 127.35 39.5799 127.49 39.5199C127.63 39.4599 127.76 39.3799 127.88 39.2899C128.27 38.9899 128.46 38.5699 128.46 38.0599C128.46 37.7099 128.37 37.4099 128.19 37.1499C128.02 36.8899 127.76 36.6899 127.44 36.5599C127.15 36.4499 126.75 36.3799 126.24 36.3599C126.11 36.3599 125.85 36.3599 125.46 36.3599H123.08V36.4699C123.27 36.4799 123.42 36.5099 123.54 36.5499L123.85 36.7499C123.96 36.8599 124.02 36.9899 124.06 37.1499C124.09 37.3099 124.11 37.5599 124.11 37.8899V41.5199C124.11 41.8599 124.09 42.1099 124.06 42.2699C124.02 42.4299 123.95 42.5699 123.85 42.6699L123.54 42.8699C123.43 42.9199 123.27 42.9499 123.08 42.9499V43.0599H126.23V42.9499C126.04 42.9499 125.89 42.9099 125.78 42.8699L125.47 42.6699C125.37 42.5699 125.3 42.4299 125.27 42.2699C125.23 42.0999 125.21 41.8499 125.21 41.5199V39.7799H125.45C125.59 39.7799 125.72 39.7999 125.82 39.8199L126.11 39.9599C126.29 40.0999 126.47 40.3399 126.69 40.6899C126.9 41.0599 127.11 41.4599 127.31 41.9399L127.66 42.7299C127.66 42.7299 127.73 42.8899 127.82 43.0699H129.45V42.9599C129.32 42.9399 129.21 42.9199 129.13 42.8799" fill="#221F20"/>
<path d="M135.49 41.1198C135.43 41.4198 135.36 41.6498 135.29 41.8298C135.22 42.0098 135.12 42.1698 135 42.3198C134.83 42.5198 134.62 42.6798 134.36 42.7798C134.09 42.8798 133.76 42.9298 133.37 42.9298C133 42.9298 132.69 42.8798 132.47 42.7598C132.24 42.6498 132.07 42.4798 131.96 42.2398C131.89 42.0998 131.85 41.9298 131.82 41.7198C131.8 41.5198 131.79 41.1898 131.79 40.7298V39.5998H132.07C132.31 39.5998 132.51 39.6298 132.67 39.6798C132.83 39.7298 132.96 39.8098 133.06 39.9098C133.16 40.0198 133.23 40.1398 133.29 40.3098C133.35 40.4598 133.39 40.6698 133.42 40.9198H133.53L133.55 38.2798H133.44C133.41 38.5298 133.37 38.7198 133.33 38.8498C133.28 38.9798 133.22 39.0898 133.12 39.1898C133.03 39.2898 132.91 39.3598 132.76 39.3998C132.61 39.4398 132.38 39.4498 132.09 39.4498H131.79V36.4998H132.91C133.26 36.4998 133.54 36.5198 133.75 36.5698C133.95 36.6198 134.15 36.6998 134.3 36.8098C134.49 36.9498 134.63 37.1098 134.72 37.2898C134.82 37.4698 134.9 37.6998 134.93 37.9698H135.04L134.96 36.3398H129.67V36.4498C129.86 36.4698 130.01 36.4898 130.13 36.5298L130.43 36.7398C130.54 36.8498 130.6 36.9798 130.64 37.1398C130.68 37.2998 130.69 37.5498 130.69 37.8798V41.5098C130.69 41.8398 130.67 42.0898 130.64 42.2598C130.6 42.4198 130.53 42.5598 130.43 42.6498L130.12 42.8598C130.01 42.8998 129.85 42.9298 129.67 42.9398V43.0498H135.55L135.61 41.0898H135.5L135.49 41.1198Z" fill="#221F20"/>
<path d="M138.17 37.3101C138.19 37.0801 138.28 36.8901 138.4 36.7601L138.71 36.5601C138.82 36.5101 138.98 36.4901 139.16 36.4801V36.3701H136.01V36.4801C136.2 36.5001 136.35 36.5201 136.46 36.5601L136.77 36.7601C136.88 36.8701 136.95 36.9901 136.98 37.1601C137.02 37.3201 137.03 37.5701 137.03 37.9001V41.5301C137.03 41.8701 137.01 42.1201 136.98 42.2801C136.95 42.4401 136.87 42.5801 136.77 42.6801L136.47 42.8901C136.35 42.9301 136.2 42.9701 136.01 42.9701V43.0801H139.16V42.9701C138.94 42.9501 138.76 42.9201 138.62 42.8601C138.49 42.7901 138.38 42.7001 138.29 42.5601C138.23 42.4701 138.18 42.3401 138.16 42.1801C138.13 42.0201 138.12 41.8101 138.12 41.5301V37.9001C138.12 37.6801 138.12 37.4701 138.15 37.3001" fill="#221F20"/>
<path d="M145.82 41.1002C145.74 41.5602 145.6 41.9302 145.41 42.2002C145.24 42.4302 145.01 42.6202 144.71 42.7502C144.41 42.8802 144.07 42.9402 143.7 42.9402C142.95 42.9402 142.35 42.6802 141.89 42.1702C141.65 41.8902 141.46 41.5402 141.33 41.1302C141.2 40.7102 141.14 40.2502 141.14 39.7302C141.14 39.1202 141.23 38.5802 141.42 38.1002C141.55 37.7702 141.72 37.4602 141.93 37.2002C142.14 36.9302 142.36 36.7402 142.6 36.5902C142.87 36.4302 143.19 36.3502 143.56 36.3502C143.81 36.3502 144.03 36.3902 144.23 36.4702C144.43 36.5502 144.62 36.6702 144.8 36.8502C145.04 37.0802 145.23 37.3302 145.36 37.6102C145.43 37.7602 145.53 38.0002 145.64 38.3202L145.72 38.5302H145.83L145.77 36.3302H145.65L145.57 36.4902L145.37 36.6002L145.16 36.5602L144.76 36.4302C144.32 36.2802 143.9 36.2002 143.5 36.2002C143.08 36.2002 142.67 36.2702 142.25 36.4102C141.83 36.5502 141.48 36.7402 141.18 36.9802C140.79 37.2802 140.49 37.6902 140.27 38.2002C140.06 38.7102 139.95 39.2602 139.95 39.8602C139.95 40.6502 140.13 41.3202 140.5 41.8902C140.87 42.4502 141.39 42.8502 142.05 43.0702C142.47 43.2002 142.9 43.2702 143.35 43.2702C143.84 43.2702 144.27 43.1902 144.64 43.0402C145 42.8802 145.3 42.6602 145.5 42.3702C145.72 42.0702 145.86 41.6602 145.93 41.1302L145.82 41.1102V41.1002Z" fill="#221F20"/>
<path d="M154.86 41.1199C154.74 41.4899 154.57 41.8199 154.35 42.1099C154.12 42.4099 153.86 42.6299 153.58 42.7599C153.29 42.8899 152.95 42.9599 152.54 42.9599C152.07 42.9599 151.73 42.8299 151.52 42.5799C151.42 42.4599 151.35 42.3099 151.32 42.1499C151.28 41.9799 151.26 41.7399 151.26 41.4099V36.5199H151.86C152.29 36.5199 152.64 36.5599 152.91 36.6299C153.42 36.7699 153.85 37.0499 154.21 37.4999C154.48 37.8099 154.67 38.1799 154.82 38.5999C154.96 39.0299 155.03 39.4699 155.03 39.9299C155.03 40.3499 154.97 40.7399 154.86 41.1199ZM155.84 38.2499C155.59 37.7199 155.23 37.2899 154.77 36.9699C154.28 36.6299 153.7 36.4299 153 36.3799C152.84 36.3599 152.45 36.3599 151.85 36.3599H149.14V36.4699C149.45 36.4899 149.69 36.5699 149.84 36.6999C149.97 36.8099 150.06 36.9499 150.1 37.1199C150.14 37.2899 150.17 37.5499 150.17 37.9099V41.5399C150.17 41.8699 150.15 42.1199 150.12 42.2899C150.08 42.4499 150.01 42.5899 149.91 42.6899L149.6 42.8999C149.49 42.9399 149.33 42.9699 149.15 42.9799V43.0899H152.79C153.21 43.0899 153.62 43.0499 154.03 42.9799C154.58 42.8799 155.03 42.6399 155.4 42.2699C155.66 41.9999 155.86 41.6699 156.01 41.2699C156.15 40.8699 156.23 40.4399 156.23 39.9899C156.23 39.3699 156.1 38.7899 155.84 38.2699" fill="#221F20"/>
<path d="M158.29 36.3099C158.21 36.2299 158.1 36.1899 157.97 36.1899L157.65 36.3099L157.52 36.6199L157.65 36.9299C157.73 37.0099 157.84 37.0499 157.97 37.0499C158.1 37.0499 158.2 37.0099 158.29 36.9299L158.42 36.6199L158.29 36.3099ZM158.56 42.7799L158.41 42.5199C158.38 42.4099 158.37 42.2499 158.37 42.0299V41.6499V38.8099L156.95 38.9899V39.0899C157.09 39.1099 157.21 39.1299 157.29 39.1699L157.49 39.3699C157.55 39.4599 157.58 39.5699 157.6 39.6999C157.62 39.8399 157.62 40.0699 157.62 40.3999V41.6099C157.62 41.8999 157.62 42.1199 157.6 42.2699C157.58 42.4199 157.56 42.5399 157.52 42.6099L157.31 42.8499C157.23 42.8999 157.09 42.9299 156.89 42.9599V43.0699H159.07V42.9599C158.82 42.9099 158.65 42.8499 158.56 42.7599" fill="#221F20"/>
<path d="M162.23 38.8999V39.0099C162.37 39.0399 162.46 39.0799 162.52 39.1199C162.62 39.1999 162.67 39.3199 162.67 39.4799C162.67 39.6399 162.61 39.8699 162.5 40.1799L161.7 42.2799L160.9 40.2599C160.81 40.0299 160.76 39.8599 160.72 39.7399L160.67 39.4299C160.67 39.2899 160.72 39.1799 160.83 39.1099C160.87 39.0699 160.97 39.0399 161.12 39.0099V38.8999H159.21V39.0099L159.46 39.0699L159.61 39.1899C159.69 39.2899 159.83 39.5699 160.02 40.0399L161.26 43.0899H161.53L162.67 40.1899C162.85 39.7199 163.02 39.4099 163.15 39.2599C163.26 39.1399 163.42 39.0499 163.6 39.0099V38.8999H162.24H162.23Z" fill="#221F20"/>
<path d="M165.1 39.3001C165.31 39.0601 165.55 38.9301 165.84 38.9301C166.01 38.9301 166.16 38.9801 166.31 39.0701C166.45 39.1601 166.58 39.2901 166.66 39.4501C166.76 39.6301 166.82 39.8801 166.84 40.2101H164.72C164.76 39.8501 164.88 39.5401 165.09 39.3001M167.57 41.9801C167.49 42.2301 167.38 42.4201 167.27 42.5301C167.16 42.6401 167.03 42.7101 166.87 42.7701C166.71 42.8301 166.54 42.8601 166.36 42.8601C166.13 42.8601 165.9 42.8101 165.68 42.7001C165.46 42.5901 165.28 42.4501 165.13 42.2701C164.99 42.0901 164.87 41.8601 164.79 41.5901C164.71 41.3201 164.66 41.0401 164.66 40.7601C164.66 40.6801 164.66 40.5701 164.68 40.4101H167.57C167.57 39.9901 167.45 39.6501 167.21 39.3701C167.06 39.1901 166.87 39.0601 166.64 38.9701C166.42 38.8701 166.18 38.8301 165.91 38.8301C165.42 38.8301 164.98 38.9801 164.6 39.2901C164.07 39.7101 163.8 40.2901 163.8 41.0301C163.8 41.5701 163.94 42.0301 164.22 42.4001C164.42 42.6701 164.66 42.8701 164.95 42.9901C165.24 43.1201 165.59 43.1901 165.99 43.1901C166.46 43.1901 166.83 43.0901 167.11 42.8901C167.39 42.6901 167.57 42.4001 167.66 42.0201L167.55 41.9901L167.57 41.9801Z" fill="#221F20"/>
<path d="M171.5 38.9701C171.39 38.8801 171.23 38.8301 171.02 38.8301C170.67 38.8301 170.36 38.9301 170.09 39.1301C169.95 39.2301 169.81 39.3901 169.69 39.5901C169.69 39.3801 169.66 39.1301 169.61 38.8301L168.34 39.0101V39.1101C168.49 39.1201 168.61 39.1501 168.68 39.1801L168.88 39.3801C168.93 39.4701 168.97 39.5801 168.99 39.7101C169 39.8501 169.01 40.0801 169.01 40.4201V41.6301C169.01 41.9201 169.01 42.1401 168.99 42.2901C168.97 42.4401 168.95 42.5601 168.91 42.6301L168.71 42.8701C168.63 42.9201 168.48 42.9501 168.29 42.9801V43.0901H170.47V42.9801C170.23 42.9301 170.05 42.8701 169.96 42.7801L169.81 42.5201C169.79 42.4101 169.77 42.2501 169.77 42.0301V41.6601V40.7401C169.77 40.2201 169.83 39.8201 169.96 39.5301C170.08 39.2401 170.26 39.1001 170.48 39.1001C170.64 39.1001 170.78 39.1601 170.9 39.2901L171.05 39.4601L171.35 39.6001L171.58 39.5101L171.67 39.2901C171.67 39.1601 171.62 39.0501 171.51 38.9701" fill="#221F20"/>
<path d="M174.65 41.1798C174.5 40.9698 174.26 40.7898 173.95 40.6498L173.43 40.4098C173.19 40.2998 173.01 40.1798 172.89 40.0498C172.77 39.9198 172.72 39.7798 172.72 39.6098C172.72 39.4198 172.78 39.2498 172.91 39.1198C173.04 38.9798 173.2 38.9198 173.38 38.9198C173.51 38.9198 173.65 38.9498 173.78 39.0198C173.91 39.0998 174.03 39.1898 174.13 39.3098L174.31 39.5898C174.35 39.6798 174.39 39.8098 174.42 39.9698H174.53L174.48 38.8498H174.38L174.21 38.9998L174.07 38.9698L173.9 38.8898C173.76 38.8298 173.6 38.7998 173.44 38.7998C173.06 38.7998 172.76 38.9198 172.54 39.1598C172.34 39.3698 172.25 39.6298 172.25 39.9298C172.25 40.1998 172.35 40.4498 172.54 40.6598C172.68 40.8098 172.95 40.9898 173.37 41.2098C173.6 41.3298 173.77 41.4298 173.87 41.4998L174.12 41.7298C174.23 41.8798 174.3 42.0598 174.3 42.2798C174.3 42.5298 174.22 42.7298 174.06 42.8598C173.91 42.9798 173.73 43.0398 173.52 43.0398C173.18 43.0398 172.89 42.8598 172.63 42.4898C172.49 42.2898 172.38 42.0098 172.29 41.6698H172.21V43.0698H172.29L172.55 42.9298H172.66C172.66 42.9298 172.78 42.9798 172.93 43.0398C173.15 43.1198 173.37 43.1698 173.59 43.1698C173.99 43.1698 174.32 43.0298 174.58 42.7798C174.8 42.5498 174.91 42.2598 174.91 41.9198C174.91 41.6298 174.83 41.3798 174.68 41.1798" fill="#221F20"/>
<path d="M176.89 36.3099L176.57 36.1899C176.44 36.1899 176.34 36.2299 176.25 36.3099L176.12 36.6199L176.25 36.9299C176.33 37.0099 176.44 37.0499 176.57 37.0499C176.7 37.0499 176.81 37.0099 176.89 36.9299L177.02 36.6199L176.89 36.3099ZM177.16 42.7799L177 42.5199C176.98 42.4099 176.96 42.2499 176.96 42.0299V38.8199L175.53 38.9999V39.0999C175.68 39.1199 175.8 39.1399 175.87 39.1799L176.07 39.3799C176.12 39.4699 176.16 39.5799 176.18 39.7099C176.19 39.8499 176.2 40.0799 176.2 40.4099V41.6199C176.2 41.9099 176.2 42.1299 176.18 42.2799C176.16 42.4299 176.13 42.5499 176.1 42.6199L175.9 42.8599C175.82 42.9099 175.67 42.9399 175.47 42.9699V43.0799H177.65V42.9699C177.41 42.9199 177.24 42.8599 177.15 42.7699" fill="#221F20"/>
<path d="M181.27 36.2902C181.12 36.2002 180.91 36.1602 180.66 36.1602C180.39 36.1602 180.12 36.1902 179.87 36.2702C179.63 36.3402 179.41 36.4402 179.24 36.5602C179.05 36.7002 178.91 36.8502 178.85 37.0202C178.77 37.1902 178.74 37.4102 178.74 37.7102V38.9102H178.03V39.1002H178.74V41.6302C178.74 41.9202 178.74 42.1502 178.72 42.3002C178.7 42.4502 178.68 42.5702 178.64 42.6402L178.44 42.8802C178.35 42.9302 178.21 42.9602 178.01 42.9902V43.1002H180.19V42.9902C179.94 42.9402 179.77 42.8802 179.68 42.7902L179.53 42.5302C179.5 42.4202 179.49 42.2602 179.49 42.0402V41.6702V39.1002H180.47V38.9102H179.5V37.6102C179.5 37.3302 179.5 37.1102 179.54 36.9602C179.56 36.8202 179.62 36.6902 179.68 36.6002L179.94 36.4002C180.05 36.3502 180.17 36.3202 180.3 36.3202L180.54 36.4002C180.59 36.4402 180.67 36.5402 180.77 36.6902L180.97 36.9202L181.2 36.9902L181.43 36.8902L181.53 36.6502C181.53 36.5002 181.45 36.3802 181.3 36.2902" fill="#221F20"/>
<path d="M182.3 36.3099L181.98 36.1899C181.85 36.1899 181.75 36.2299 181.66 36.3099L181.53 36.6199L181.66 36.9299C181.74 37.0099 181.85 37.0499 181.98 37.0499C182.11 37.0499 182.21 37.0099 182.3 36.9299L182.43 36.6199L182.3 36.3099ZM182.57 42.7799L182.42 42.5199C182.4 42.4099 182.38 42.2499 182.38 42.0299V38.8199L180.95 38.9999V39.0999C181.1 39.1199 181.22 39.1399 181.29 39.1799L181.5 39.3799C181.55 39.4699 181.59 39.5799 181.61 39.7099C181.63 39.8499 181.63 40.0799 181.63 40.4099V41.6199C181.63 41.9099 181.63 42.1299 181.61 42.2799C181.6 42.4299 181.57 42.5499 181.53 42.6199L181.32 42.8599C181.24 42.9099 181.09 42.9399 180.9 42.9699V43.0799H183.08V42.9699C182.84 42.9199 182.67 42.8599 182.57 42.7699" fill="#221F20"/>
<path d="M184.86 39.3001C185.07 39.0601 185.32 38.9301 185.6 38.9301C185.77 38.9301 185.93 38.9801 186.07 39.0701C186.22 39.1601 186.34 39.2901 186.43 39.4501C186.53 39.6301 186.59 39.8801 186.61 40.2101H184.49C184.53 39.8501 184.66 39.5401 184.87 39.3001M187.34 41.9801C187.26 42.2301 187.16 42.4201 187.04 42.5301C186.93 42.6401 186.8 42.7101 186.64 42.7701C186.48 42.8301 186.31 42.8601 186.14 42.8601C185.9 42.8601 185.67 42.8101 185.45 42.7001C185.24 42.5901 185.06 42.4501 184.9 42.2701C184.76 42.0901 184.64 41.8601 184.56 41.5901C184.48 41.3201 184.44 41.0401 184.44 40.7601C184.44 40.6801 184.44 40.5701 184.46 40.4101H187.35C187.35 39.9901 187.23 39.6501 186.99 39.3701C186.83 39.1901 186.64 39.0601 186.42 38.9701C186.2 38.8701 185.95 38.8301 185.69 38.8301C185.2 38.8301 184.76 38.9801 184.37 39.2901C183.85 39.7101 183.58 40.2901 183.58 41.0301C183.58 41.5701 183.72 42.0301 184 42.4001C184.2 42.6701 184.45 42.8701 184.74 42.9901C185.03 43.1201 185.38 43.1901 185.78 43.1901C186.24 43.1901 186.62 43.0901 186.9 42.8901C187.18 42.6901 187.36 42.4001 187.45 42.0201L187.34 41.9901V41.9801Z" fill="#221F20"/>
<path d="M191.47 41.9702C191.43 42.2002 191.36 42.4002 191.27 42.5502C191.18 42.7002 191.05 42.8202 190.9 42.9002C190.75 42.9902 190.58 43.0302 190.42 43.0302C190.06 43.0302 189.76 42.8602 189.52 42.5302C189.38 42.3302 189.27 42.1102 189.19 41.8302C189.11 41.5602 189.07 41.2802 189.07 41.0002C189.07 40.7202 189.11 40.4302 189.2 40.1602C189.28 39.8902 189.41 39.6502 189.56 39.4502C189.82 39.1202 190.12 38.9602 190.47 38.9602C190.63 38.9602 190.78 39.0002 190.93 39.0702C191.07 39.1402 191.2 39.2402 191.28 39.3702C191.39 39.5102 191.46 39.7002 191.49 39.9302C191.53 40.1602 191.55 40.5002 191.55 40.9502C191.55 41.4002 191.53 41.7202 191.49 41.9602M192.47 42.6802C192.36 42.5202 192.3 42.2602 192.3 41.8802V36.1802L190.79 36.3702V36.4902C191.06 36.4902 191.26 36.5702 191.38 36.7302C191.49 36.8802 191.55 37.1402 191.55 37.4902V39.3202C191.32 39.1202 191.11 38.9902 190.93 38.9302C190.76 38.8502 190.54 38.8202 190.29 38.8202C189.77 38.8202 189.34 38.9802 188.96 39.3002C188.72 39.5002 188.54 39.7502 188.41 40.0702C188.27 40.3702 188.21 40.7102 188.21 41.0702C188.21 41.4102 188.27 41.7202 188.39 42.0102C188.51 42.3002 188.69 42.5402 188.91 42.7302C189.27 43.0302 189.69 43.1802 190.19 43.1802C190.43 43.1802 190.67 43.1402 190.88 43.0702C191.09 43.0002 191.33 42.8902 191.57 42.7302C191.57 42.9202 191.59 43.0902 191.62 43.2502L193.06 43.0402V42.9202C192.79 42.9202 192.59 42.8402 192.47 42.6902" fill="#221F20"/>
<path d="M199.26 39.6199C199.08 39.6699 198.79 39.6899 198.38 39.6899H198.2V36.5199H198.4C198.76 36.5199 199.02 36.5399 199.21 36.5799C199.41 36.6199 199.57 36.7099 199.7 36.8099C199.88 36.9599 200.02 37.1399 200.12 37.3799C200.22 37.6099 200.27 37.8499 200.27 38.1099C200.27 38.5999 200.1 39.0099 199.75 39.3299C199.59 39.4699 199.43 39.5699 199.26 39.6199ZM202.12 42.8999L201.88 42.6899C201.78 42.5599 201.65 42.3599 201.51 42.0799C201.36 41.8099 201.14 41.3699 200.84 40.7599C200.72 40.4999 200.63 40.3199 200.56 40.2099L200.36 39.9499C200.27 39.8599 200.12 39.7699 199.92 39.6899C200.16 39.6399 200.35 39.5799 200.5 39.5199C200.64 39.4599 200.77 39.3799 200.9 39.2899C201.29 38.9899 201.48 38.5699 201.48 38.0599C201.48 37.7099 201.39 37.4099 201.21 37.1499C201.03 36.8899 200.78 36.6899 200.45 36.5599C200.16 36.4499 199.76 36.3799 199.25 36.3599C199.13 36.3599 198.86 36.3599 198.47 36.3599H196.1V36.4699C196.29 36.4799 196.44 36.5099 196.55 36.5499L196.86 36.7499C196.97 36.8599 197.03 36.9899 197.07 37.1499C197.11 37.3099 197.12 37.5599 197.12 37.8899V41.5199C197.12 41.8599 197.1 42.1099 197.07 42.2699C197.03 42.4299 196.96 42.5699 196.86 42.6699L196.56 42.8699C196.44 42.9199 196.29 42.9499 196.1 42.9499V43.0599H199.25V42.9499C199.06 42.9499 198.91 42.9099 198.79 42.8699L198.49 42.6699C198.38 42.5699 198.32 42.4299 198.28 42.2699C198.24 42.0999 198.23 41.8499 198.23 41.5199V39.7799H198.46C198.61 39.7799 198.73 39.7999 198.84 39.8199L199.12 39.9599C199.29 40.0999 199.49 40.3399 199.7 40.6899C199.91 41.0599 200.12 41.4599 200.33 41.9399L200.67 42.7299C200.67 42.7299 200.75 42.8899 200.83 43.0699H202.47V42.9599C202.33 42.9399 202.23 42.9199 202.15 42.8799" fill="#221F20"/>
<path d="M208.52 41.1198C208.46 41.4198 208.39 41.6498 208.32 41.8298C208.24 42.0098 208.15 42.1698 208.03 42.3198C207.86 42.5198 207.64 42.6798 207.38 42.7798C207.11 42.8798 206.79 42.9298 206.39 42.9298C205.99 42.9298 205.71 42.8798 205.49 42.7598C205.26 42.6498 205.09 42.4798 204.97 42.2398C204.91 42.0998 204.86 41.9298 204.84 41.7198C204.82 41.5198 204.8 41.1898 204.8 40.7298V39.5998H205.08C205.32 39.5998 205.53 39.6298 205.68 39.6798C205.84 39.7298 205.97 39.8098 206.07 39.9098C206.18 40.0198 206.25 40.1398 206.31 40.3098C206.36 40.4598 206.41 40.6698 206.44 40.9198H206.55L206.57 38.2798H206.46C206.44 38.5298 206.4 38.7198 206.35 38.8498C206.3 38.9798 206.24 39.0898 206.14 39.1898C206.04 39.2898 205.92 39.3598 205.77 39.3998C205.62 39.4398 205.4 39.4498 205.09 39.4498H204.8V36.4998H205.93C206.28 36.4998 206.56 36.5198 206.76 36.5698C206.97 36.6198 207.15 36.6998 207.31 36.8098C207.5 36.9498 207.64 37.1098 207.74 37.2898C207.84 37.4698 207.91 37.6998 207.95 37.9698H208.06L207.98 36.3398H202.69V36.4498C202.88 36.4698 203.03 36.4898 203.14 36.5298L203.45 36.7398C203.55 36.8498 203.62 36.9798 203.65 37.1398C203.68 37.2998 203.71 37.5498 203.71 37.8798V41.5098C203.71 41.8398 203.69 42.0898 203.65 42.2598C203.61 42.4198 203.54 42.5598 203.45 42.6498L203.14 42.8598C203.02 42.8998 202.87 42.9298 202.69 42.9398V43.0498H208.56L208.63 41.0898H208.52V41.1198Z" fill="#221F20"/>
<path d="M211.19 37.3101C211.22 37.0801 211.3 36.8901 211.42 36.7601L211.74 36.5601C211.85 36.5101 212.01 36.4901 212.2 36.4801V36.3701H209.05V36.4801C209.23 36.5001 209.38 36.5201 209.51 36.5601L209.82 36.7601C209.93 36.8701 210 36.9901 210.03 37.1601C210.07 37.3201 210.08 37.5701 210.08 37.9001V41.5301C210.08 41.8701 210.06 42.1201 210.03 42.2801C209.99 42.4401 209.92 42.5801 209.82 42.6801L209.51 42.8901C209.4 42.9301 209.24 42.9701 209.05 42.9701V43.0801H212.2V42.9701C211.97 42.9501 211.8 42.9201 211.66 42.8601C211.52 42.7901 211.42 42.7001 211.33 42.5601C211.28 42.4701 211.23 42.3401 211.2 42.1801C211.18 42.0201 211.16 41.8101 211.16 41.5301V37.9001C211.16 37.6801 211.18 37.4701 211.19 37.3001" fill="#221F20"/>
<path d="M219.29 36.3599H212.63L212.54 38.1799H212.65C212.72 37.7899 212.84 37.4799 212.99 37.2599C213.15 37.0099 213.35 36.8399 213.6 36.7399C213.84 36.6299 214.22 36.5699 214.73 36.5399C214.96 36.5399 215.19 36.5299 215.39 36.5299V41.5499C215.39 41.8899 215.37 42.1399 215.34 42.2999C215.3 42.4599 215.23 42.5999 215.13 42.6999L214.82 42.9099C214.71 42.9499 214.55 42.9799 214.36 42.9899V43.0999H217.51V42.9899C217.33 42.9899 217.18 42.9499 217.05 42.9099L216.74 42.6999C216.64 42.5999 216.56 42.4599 216.53 42.2999C216.49 42.1299 216.48 41.8799 216.48 41.5499V36.5299C217.21 36.5299 217.72 36.5699 218.03 36.6599C218.39 36.7699 218.66 36.9299 218.85 37.1699C219.04 37.4099 219.18 37.7499 219.27 38.1999H219.38L219.29 36.3699V36.3599Z" fill="#221F20"/>
<path d="M227.49 36.3599H222.34V36.4699C222.59 36.4899 222.78 36.5299 222.92 36.6099C223.17 36.7599 223.31 36.9699 223.34 37.2599C223.36 37.4899 223.37 37.7099 223.37 37.9099V41.5399C223.37 41.8499 223.35 42.0999 223.32 42.2799C223.27 42.4499 223.21 42.5999 223.12 42.6999C223.04 42.7799 222.93 42.8499 222.79 42.9099C222.65 42.9599 222.5 42.9899 222.34 42.9899V43.0999H225.49V42.9899C225.3 42.9899 225.15 42.9499 225.03 42.9099L224.72 42.7099C224.62 42.5999 224.55 42.4699 224.52 42.3099C224.48 42.1499 224.47 41.8999 224.47 41.5699V39.6099C224.77 39.6099 225.02 39.6299 225.21 39.6599C225.41 39.6999 225.57 39.7599 225.69 39.8399C225.87 39.9499 226 40.0999 226.09 40.2799C226.17 40.4599 226.23 40.7199 226.27 41.0599H226.39L226.42 38.0699H226.31C226.29 38.3099 226.25 38.5099 226.19 38.6599C226.13 38.8099 226.05 38.9499 225.93 39.0599C225.66 39.3199 225.24 39.4499 224.66 39.4499H224.46V36.5499H225.22C225.59 36.5499 225.88 36.5599 226.09 36.5999C226.29 36.6399 226.48 36.6999 226.64 36.7899C226.92 36.9499 227.13 37.1699 227.29 37.4599C227.36 37.5799 227.43 37.7699 227.52 38.0199L227.63 37.9999L227.49 36.3899V36.3599Z" fill="#221F20"/>
<path d="M232.35 42.8199L232.14 42.6199C232.09 42.5299 232.06 42.4199 232.03 42.2899C232.01 42.1499 232.01 41.9199 232.01 41.5799V38.9099H230.56V39.0199C230.81 39.0699 230.98 39.1299 231.07 39.2199L231.22 39.4799C231.24 39.5799 231.26 39.7399 231.26 39.9699V40.3299V41.2899C231.26 41.6799 231.24 41.9499 231.21 42.1199C231.18 42.2899 231.11 42.4299 231.02 42.5599C230.93 42.6899 230.8 42.7899 230.64 42.8599C230.48 42.9399 230.31 42.9699 230.12 42.9699C229.95 42.9699 229.8 42.9299 229.66 42.8699C229.52 42.7999 229.43 42.7199 229.35 42.5999C229.29 42.4899 229.24 42.3599 229.21 42.1799C229.19 42.0099 229.18 41.7599 229.18 41.3999V38.8999H227.73V39.0099C227.97 39.0599 228.15 39.1199 228.24 39.2099L228.39 39.4699C228.41 39.5699 228.43 39.7299 228.43 39.9599V40.3299V42.0399C228.43 42.3999 228.55 42.6799 228.79 42.8699C229.04 43.0699 229.37 43.1699 229.78 43.1699C230.34 43.1699 230.83 42.9699 231.24 42.5599C231.24 42.7599 231.26 42.9699 231.31 43.1699L232.66 42.9899V42.8799C232.52 42.8799 232.4 42.8399 232.33 42.7999" fill="#221F20"/>
<path d="M237.53 42.7898L237.38 42.5298C237.36 42.4198 237.34 42.2598 237.34 42.0398V39.9498C237.34 39.5898 237.21 39.3198 236.96 39.1198C236.7 38.9198 236.37 38.8298 235.94 38.8298C235.38 38.8298 234.89 39.0298 234.48 39.4398V39.3598C234.48 39.1898 234.46 39.0098 234.41 38.8198L233.06 38.9998V39.0998C233.21 39.1198 233.33 39.1398 233.4 39.1798L233.61 39.3798C233.66 39.4698 233.7 39.5798 233.72 39.7098C233.74 39.8498 233.74 40.0798 233.74 40.4098V41.6198C233.74 41.9098 233.74 42.1298 233.72 42.2798C233.72 42.4298 233.68 42.5498 233.64 42.6198L233.44 42.8598C233.36 42.9098 233.21 42.9398 233.02 42.9698V43.0798H235.2V42.9698C234.96 42.9198 234.79 42.8598 234.69 42.7698L234.54 42.5098C234.52 42.3998 234.5 42.2398 234.5 42.0198V41.6598V40.6998C234.5 40.3098 234.52 40.0398 234.55 39.8698C234.58 39.7098 234.64 39.5598 234.74 39.4298C234.83 39.2998 234.96 39.1998 235.12 39.1298C235.28 39.0498 235.45 39.0198 235.63 39.0198C235.81 39.0198 235.96 39.0498 236.1 39.1098C236.24 39.1798 236.35 39.2598 236.43 39.3798C236.5 39.4798 236.54 39.6098 236.57 39.7798C236.6 39.9498 236.61 40.1998 236.61 40.5598V41.6098C236.61 41.8998 236.61 42.1198 236.59 42.2698C236.57 42.4198 236.55 42.5398 236.51 42.6098L236.3 42.8498C236.22 42.8998 236.07 42.9298 235.88 42.9598V43.0698H238.06V42.9598C237.82 42.9098 237.64 42.8498 237.55 42.7598" fill="#221F20"/>
<path d="M241.8 41.9702C241.75 42.2002 241.69 42.4002 241.59 42.5502C241.5 42.7002 241.38 42.8202 241.22 42.9002C241.07 42.9902 240.91 43.0302 240.73 43.0302C240.37 43.0302 240.08 42.8602 239.83 42.5302C239.69 42.3302 239.58 42.1102 239.5 41.8302C239.42 41.5602 239.38 41.2802 239.38 41.0002C239.38 40.7202 239.43 40.4302 239.51 40.1602C239.6 39.8902 239.71 39.6502 239.87 39.4502C240.12 39.1202 240.42 38.9602 240.77 38.9602C240.93 38.9602 241.08 39.0002 241.23 39.0702C241.38 39.1402 241.5 39.2402 241.59 39.3702C241.69 39.5102 241.76 39.7002 241.8 39.9302C241.84 40.1602 241.85 40.5002 241.85 40.9502C241.85 41.4002 241.84 41.7202 241.8 41.9602M242.78 42.6802C242.66 42.5202 242.6 42.2602 242.6 41.8802V36.1802L241.09 36.3702V36.4902C241.36 36.4902 241.56 36.5702 241.68 36.7302C241.8 36.8802 241.85 37.1402 241.85 37.4902V39.3202C241.62 39.1202 241.41 38.9902 241.24 38.9302C241.06 38.8502 240.85 38.8202 240.6 38.8202C240.08 38.8202 239.64 38.9802 239.27 39.3002C239.03 39.5002 238.85 39.7502 238.72 40.0702C238.59 40.3702 238.52 40.7102 238.52 41.0702C238.52 41.4102 238.58 41.7202 238.7 42.0102C238.82 42.3002 239 42.5402 239.22 42.7302C239.57 43.0302 240 43.1802 240.49 43.1802C240.74 43.1802 240.97 43.1402 241.19 43.0702C241.4 43.0002 241.63 42.8902 241.87 42.7302C241.87 42.9202 241.89 43.0902 241.92 43.2502L243.35 43.0402V42.9202C243.08 42.9202 242.88 42.8402 242.77 42.6902" fill="#221F20"/>
</svg>
