<svg width="324" height="77" viewBox="0 0 324 77" fill="none" xmlns="http://www.w3.org/2000/svg">
<path d="M22.1488 67.7783C21.357 66.9747 21.357 65.6441 22.1488 64.8405L28.7212 58.1483L29.1171 57.7531L38.5798 48.11L48.0292 57.74L50.6028 60.3747L54.9844 64.8405C55.7762 65.6441 55.7762 66.9615 54.9844 67.7783L60.9233 61.7316C63.6552 58.9519 63.6552 54.4334 60.9233 51.6537L38.5666 28.8896L19.4301 48.3867L16.2099 51.6669C13.478 54.4597 13.478 58.9651 16.2099 61.7447L22.1488 67.7914V67.7783Z" fill="#F6F6F6"/>
<path d="M7.98782 53.3138C7.19597 52.5102 7.19597 51.1796 7.98782 50.3761L38.5666 19.2335L69.1585 50.3761C69.9503 51.1796 69.9503 52.5102 69.1585 53.3138L75.0974 47.2671C77.8293 44.4874 77.8293 39.9689 75.0974 37.176L38.5666 0L2.04892 37.1892C-0.682973 39.9689 -0.682973 44.4874 2.04892 47.2802L7.97461 53.3138H7.98782Z" fill="#F6F6F6"/>
<path d="M38.5666 77.0001L29.104 67.3834L33.8419 62.575L38.5666 57.7798L43.2782 62.5618L48.0161 67.3834L38.5666 77.0001Z" fill="#FFD400"/>
<path d="M239.918 23.7675C240.486 23.7675 240.948 23.3064 240.948 22.7399C240.948 22.1735 240.486 21.7124 239.918 21.7124C239.351 21.7124 238.889 22.1735 238.889 22.7399C238.889 23.3064 239.351 23.7675 239.918 23.7675Z" fill="#F6F6F6"/>
<path d="M231.432 21.726C232 21.726 232.462 21.2649 232.462 20.6984C232.462 20.132 232 19.6709 231.432 19.6709C230.865 19.6709 230.403 20.132 230.403 20.6984C230.403 21.2649 230.865 21.726 231.432 21.726Z" fill="#F6F6F6"/>
<path d="M237.318 23.7675C237.886 23.7675 238.348 23.3064 238.348 22.7399C238.348 22.1735 237.886 21.7124 237.318 21.7124C236.751 21.7124 236.289 22.1735 236.289 22.7399C236.289 23.3064 236.751 23.7675 237.318 23.7675Z" fill="#F6F6F6"/>
<path d="M122.024 23.7675C122.592 23.7675 123.054 23.3064 123.054 22.7399C123.054 22.1735 122.592 21.7124 122.024 21.7124C121.457 21.7124 120.995 22.1735 120.995 22.7399C120.995 23.3064 121.457 23.7675 122.024 23.7675Z" fill="#F6F6F6"/>
<path d="M119.438 23.7675C120.005 23.7675 120.467 23.3064 120.467 22.7399C120.467 22.1735 120.005 21.7124 119.438 21.7124C118.87 21.7124 118.408 22.1735 118.408 22.7399C118.408 23.3064 118.87 23.7675 119.438 23.7675Z" fill="#F6F6F6"/>
<path d="M111.783 23.7675C112.351 23.7675 112.813 23.3064 112.813 22.7399C112.813 22.1735 112.351 21.7124 111.783 21.7124C111.216 21.7124 110.754 22.1735 110.754 22.7399C110.754 23.3064 111.216 23.7675 111.783 23.7675Z" fill="#F6F6F6"/>
<path d="M231.696 22.7399C231.696 23.3064 232.158 23.7675 232.726 23.7675C233.293 23.7675 233.755 23.3064 233.755 22.7399C233.755 22.1735 233.293 21.7124 232.726 21.7124C232.158 21.7124 231.696 22.1735 231.696 22.7399Z" fill="#F6F6F6"/>
<path d="M230.139 23.7675C230.706 23.7675 231.168 23.3064 231.168 22.7399C231.168 22.1735 230.706 21.7124 230.139 21.7124C229.571 21.7124 229.109 22.1735 229.109 22.7399C229.109 23.3064 229.571 23.7675 230.139 23.7675Z" fill="#F6F6F6"/>
<path d="M212.573 29.5248V35.69C212.573 37.8769 210.659 37.6266 210.659 37.6266C214.315 38.6146 214.592 36.4146 214.592 35.2553C214.592 34.096 214.592 28.0625 214.592 28.0625C213.589 29.9463 212.586 29.538 212.586 29.538" fill="#F6F6F6"/>
<path d="M284.381 32.5545V35.6899C284.381 37.8767 282.467 37.6264 282.467 37.6264C286.123 38.6144 286.4 36.4144 286.4 35.2551C286.4 34.0959 286.4 31.0791 286.4 31.0791C285.397 32.9629 284.394 32.5545 284.394 32.5545" fill="#F6F6F6"/>
<path d="M200.457 29.5248V35.69C200.457 37.8769 198.544 37.6266 198.544 37.6266C202.2 38.6146 202.477 36.4146 202.477 35.2553C202.477 34.096 202.477 28.0625 202.477 28.0625C201.474 29.9463 200.471 29.538 200.471 29.538" fill="#F6F6F6"/>
<path d="M168.255 29.5248V35.69C168.255 37.8769 166.342 37.6266 166.342 37.6266C169.998 38.6146 170.275 36.4146 170.275 35.2553C170.275 34.096 170.275 28.0625 170.275 28.0625C169.272 29.9463 168.269 29.538 168.269 29.538" fill="#F6F6F6"/>
<path d="M262.71 20.1976V35.5976H264.835V18.0239C263.661 20.2503 262.71 20.1976 262.71 20.1976Z" fill="#F6F6F6"/>
<path d="M204.232 18.0239V35.5976H206.357V20.1976C206.357 20.1976 205.407 20.2634 204.232 18.0239Z" fill="#F6F6F6"/>
<path d="M258.329 18.0239V33.5952H254.132V35.5976H260.454V20.1844C260.454 20.1844 259.503 20.2503 258.329 18.0107" fill="#F6F6F6"/>
<path d="M138.944 20.1976V35.5976H141.069V18.0239C139.894 20.2503 138.944 20.1976 138.944 20.1976Z" fill="#F6F6F6"/>
<path d="M127.158 35.6107C126.564 35.6107 126.089 35.1233 126.089 34.5437C126.089 33.964 126.564 33.4634 127.158 33.4634C127.752 33.4634 128.227 33.9377 128.227 34.5437C128.227 35.1496 127.752 35.6107 127.158 35.6107ZM105.237 33.6347H103.838C103.838 32.6466 104.313 32.1592 105.237 32.1592V33.6347ZM134.562 18.0239V33.5952H130.154C129.758 32.3041 128.557 31.3688 127.145 31.3688C125.733 31.3688 124.545 32.3041 124.136 33.5952V33.6215H121.774V25.994C121.774 25.994 120.863 27.667 119.649 28.194V33.6215H113.882V25.994C113.882 25.994 112.971 27.667 111.757 28.194V33.6215H107.441V29.1556C107.058 29.6167 106.794 29.8802 106.676 29.9197C106.398 30.0383 105.989 30.1041 105.461 30.1437C104.485 30.2095 103.667 30.5652 103.007 31.1844C102.307 31.8431 101.964 32.6598 101.964 33.6083V35.5712H105.422V36.6383C105.422 38.8119 103.495 38.5748 103.495 38.5748C107.164 39.5628 107.441 37.3628 107.441 36.2035V35.5712H124.162C124.598 36.8227 125.759 37.7185 127.132 37.7185C128.504 37.7185 129.692 36.8095 130.114 35.5449V35.5712H136.674V20.158C136.674 20.158 135.723 20.2107 134.549 17.9844" fill="#F6F6F6"/>
<path d="M256.296 18.0239C255.122 20.2503 254.185 20.1976 254.185 20.1976V31.7245H256.296V18.0239Z" fill="#F6F6F6"/>
<path d="M222.854 35.6108C222.26 35.6108 221.772 35.1233 221.772 34.5437C221.772 33.964 222.247 33.4634 222.854 33.4634C223.461 33.4634 223.923 33.9377 223.923 34.5437C223.923 35.1497 223.448 35.6108 222.854 35.6108ZM249.104 27.8515V33.5952H247.098V28.7078C247.098 28.7078 246.517 29.3928 245.092 29.6431V33.5952H243.31V30.1437C243.31 30.1437 242.756 30.5784 241.304 30.5652V33.5952H239.206V25.9808C237.965 28.0622 237.2 28.1545 237.2 28.1545V33.5952H232.448V25.9808C231.208 28.0622 230.442 28.1545 230.442 28.1545V33.5952H225.876C225.467 32.3042 224.279 31.3688 222.867 31.3688C221.455 31.3688 220.267 32.3042 219.858 33.5952H218.472V18.0239C217.284 20.2503 216.347 20.1976 216.347 20.1976V35.6108H219.884C220.307 36.8622 221.481 37.7581 222.854 37.7581C224.226 37.7581 225.414 36.8491 225.836 35.5844V35.6108H251.11V25.691C249.869 27.7593 249.091 27.8646 249.091 27.8646" fill="#F6F6F6"/>
<path d="M196.762 37.0732C196.195 37.0732 195.733 37.5343 195.733 38.1008C195.733 38.6673 196.195 39.1283 196.762 39.1283C197.33 39.1283 197.792 38.6673 197.792 38.1008C197.792 37.5343 197.33 37.0732 196.762 37.0732Z" fill="#F6F6F6"/>
<path d="M194.176 37.0732C193.608 37.0732 193.146 37.5343 193.146 38.1008C193.146 38.6673 193.608 39.1283 194.176 39.1283C194.743 39.1283 195.205 38.6673 195.205 38.1008C195.205 37.5343 194.743 37.0732 194.176 37.0732Z" fill="#F6F6F6"/>
<path d="M164.534 37.0732C163.966 37.0732 163.504 37.5343 163.504 38.1008C163.504 38.6673 163.966 39.1283 164.534 39.1283C165.101 39.1283 165.563 38.6673 165.563 38.1008C165.563 37.5343 165.101 37.0732 164.534 37.0732Z" fill="#F6F6F6"/>
<path d="M161.947 37.0732C161.38 37.0732 160.918 37.5343 160.918 38.1008C160.918 38.6673 161.38 39.1283 161.947 39.1283C162.515 39.1283 162.976 38.6673 162.976 38.1008C162.976 37.5343 162.515 37.0732 161.947 37.0732Z" fill="#F6F6F6"/>
<path d="M304.243 25.2299C304.811 25.2299 305.272 24.7688 305.272 24.2023C305.272 23.6359 304.811 23.1748 304.243 23.1748C303.676 23.1748 303.214 23.6359 303.214 24.2023C303.214 24.7688 303.676 25.2299 304.243 25.2299Z" fill="#F6F6F6"/>
<path d="M321.057 33.6217H311.462V30.3941H319.565C320.384 30.3941 321.057 31.066 321.057 31.8828V33.6217ZM323.023 31.6325C323.023 29.854 321.585 28.4049 319.79 28.4049H311.462V25.9941C311.462 25.9941 310.538 27.6672 309.337 28.1941V33.6217H307.279V25.9941C307.279 25.9941 306.368 27.6672 305.154 28.1941V33.6217H301.762V31.6325C301.762 29.854 300.323 28.4049 298.529 28.4049H291.23C288.591 28.4049 288.142 26.2049 288.142 26.2049V28.4049V30.3941H298.304C299.122 30.3941 299.796 31.066 299.796 31.8828V33.6217H288.142V35.5977H323.01V31.6325H323.023Z" fill="#F6F6F6"/>
<path d="M197.765 35.6106V33.6346V26.007C197.765 26.007 196.855 27.6801 195.64 28.1939V33.6214H189.886V20.4478C188.698 22.6741 187.761 22.6214 187.761 22.6214V33.6214H184.607H178.629C175.989 33.6214 175.554 31.4214 175.554 31.4214V32.001V33.6214V35.6106H184.607H197.778H197.765Z" fill="#F6F6F6"/>
<path d="M95.8404 31.8827C95.8404 31.0659 96.5003 30.3941 97.3318 30.3941H100.182V28.4048V27.7593V27.1797C100.182 27.1797 99.7469 28.4048 97.1074 28.4048C95.3257 28.4048 93.874 29.8539 93.874 31.6324V33.6084C93.874 33.7797 93.9004 33.9509 93.94 34.109C93.0162 34.6755 92.3959 35.6899 92.3959 36.8491V38.0743C92.3959 39.3917 93.3329 40.4719 94.5603 40.7486L94.6131 40.7617L94.745 40.7881L95.1278 40.8144H96.5927C94.7978 40.8144 94.4415 38.9569 94.3623 38.0216L94.3491 37.6132V37.0863C94.3491 36.2695 95.0222 35.5977 95.8404 35.5977H99.6677L100.169 35.5845V33.6084H95.814V31.8695L95.8404 31.8827Z" fill="#F6F6F6"/>
<path d="M284.183 32.6334H282.784C282.784 31.6585 283.259 31.1711 284.183 31.1711V32.6334ZM285.621 28.9447C285.357 29.0633 284.948 29.1292 284.42 29.1687C283.444 29.2345 282.625 29.5902 281.966 30.2094C281.266 30.8681 280.91 31.6848 280.91 32.6334V34.6094H284.368V35.6765C284.368 37.8501 282.441 37.613 282.441 37.613C286.11 38.601 286.387 36.401 286.387 35.2286V28.1675C285.991 28.6286 285.74 28.8789 285.608 28.9316" fill="#F6F6F6"/>
<path d="M277.162 31.1846H275.776C275.776 30.2098 276.238 29.7224 277.162 29.7224V31.1846ZM278.613 27.496C278.35 27.6146 277.94 27.6804 277.413 27.72C276.436 27.7858 275.618 28.1415 274.945 28.7607C274.258 29.4194 273.902 30.2361 273.902 31.1846V33.1607H277.36V35.8613H271.328C269.138 35.8613 269.375 33.9379 269.375 33.9379C268.385 37.6002 270.603 37.8768 271.764 37.8768H277.083C279.194 37.8768 279.379 36.2038 279.379 35.2553V26.7319C278.983 27.193 278.745 27.4433 278.613 27.496Z" fill="#F6F6F6"/>
<path d="M277.756 25.2299C278.323 25.2299 278.785 24.7688 278.785 24.2023C278.785 23.6359 278.323 23.1748 277.756 23.1748C277.188 23.1748 276.726 23.6359 276.726 24.2023C276.726 24.7688 277.188 25.2299 277.756 25.2299Z" fill="#F6F6F6"/>
<path d="M275.169 25.2299C275.736 25.2299 276.198 24.7688 276.198 24.2023C276.198 23.6359 275.736 23.1748 275.169 23.1748C274.601 23.1748 274.139 23.6359 274.139 24.2023C274.139 24.7688 274.601 25.2299 275.169 25.2299Z" fill="#F6F6F6"/>
<path d="M152.946 25.2299C153.514 25.2299 153.976 24.7688 153.976 24.2023C153.976 23.6359 153.514 23.1748 152.946 23.1748C152.379 23.1748 151.917 23.6359 151.917 24.2023C151.917 24.7688 152.379 25.2299 152.946 25.2299Z" fill="#F6F6F6"/>
<path d="M150.36 25.2299C150.927 25.2299 151.389 24.7688 151.389 24.2023C151.389 23.6359 150.927 23.1748 150.36 23.1748C149.792 23.1748 149.33 23.6359 149.33 24.2023C149.33 24.7688 149.792 25.2299 150.36 25.2299Z" fill="#F6F6F6"/>
<path d="M163.425 28.1941V33.6217H157.671V25.9941C157.671 25.9941 156.76 27.6672 155.546 28.181V33.6085H147.535V28.181C146.321 27.6672 145.397 25.9941 145.397 25.9941V35.5977H165.563V33.6217V25.9941C165.563 25.9941 164.653 27.6672 163.438 28.181" fill="#F6F6F6"/>
<path d="M183.182 28.9976H182.865C182.548 28.9976 182.232 28.7736 181.915 28.3389C181.691 28.0095 181.545 27.6934 181.466 27.3772C181.453 27.3245 181.717 27.061 182.285 26.5736L182.456 26.4155C182.271 26.5341 181.836 26.4024 181.611 26.5868C180.754 27.2455 180.318 27.6275 180.292 27.7461C180.252 27.9437 180.292 28.1281 180.424 28.3389C180.622 28.6419 180.727 28.8658 180.767 28.9844H180.397C179.962 29.0107 179.711 28.9449 179.658 28.7604V29.5377H183.182V28.9976Z" fill="#F6F6F6"/>
<path d="M94.7583 50.9317L96.0517 47.5593L97.411 50.9317H94.7583ZM100.882 54.5018L100.526 54.3305C100.38 54.212 100.235 54.0539 100.117 53.83C99.9845 53.5928 99.813 53.2371 99.6018 52.7234L96.7775 45.8994H96.408L94.0192 52.0252C93.7949 52.5785 93.6233 53 93.5045 53.2898C93.3594 53.5665 93.2274 53.7904 93.0954 53.9617C92.937 54.1856 92.7655 54.3437 92.5807 54.4491C92.4091 54.5413 92.2112 54.6072 91.9868 54.6204V54.7653H94.9035V54.6204C94.6395 54.594 94.4284 54.5282 94.2568 54.4096L93.9664 54.0803L93.8609 53.6323C93.8609 53.3557 93.9664 52.9868 94.1644 52.4994L94.3228 52.1042L94.6659 51.2084H97.5166L98.1501 52.7497L98.2557 53.0132C98.3744 53.3162 98.4404 53.5533 98.4404 53.7377C98.4404 54.0276 98.3084 54.2647 98.0445 54.4359C97.8993 54.5282 97.6222 54.594 97.2394 54.6204V54.7653H101.515V54.6204C101.238 54.594 101.04 54.5677 100.908 54.515" fill="#F6F6F6"/>
<path d="M103.825 54.3699L103.627 54.0274C103.601 53.8825 103.574 53.6717 103.574 53.3819V52.8944V45.6489L101.7 45.8861V46.031C101.898 46.031 102.057 46.0837 102.149 46.1364L102.426 46.3998C102.492 46.5052 102.545 46.6633 102.571 46.8346C102.598 47.019 102.598 47.322 102.598 47.7699V52.8549C102.598 53.2501 102.598 53.5399 102.571 53.7376C102.545 53.9352 102.519 54.0932 102.466 54.1855L102.189 54.5016C102.083 54.5675 101.885 54.607 101.634 54.6465V54.7914H104.511V54.6465C104.195 54.5807 103.957 54.5016 103.838 54.3831" fill="#F6F6F6"/>
<path d="M106.794 45.8334C106.689 45.728 106.544 45.6753 106.372 45.6753L105.95 45.8334L105.778 46.2418L105.95 46.6501C106.055 46.7555 106.201 46.8082 106.372 46.8082C106.544 46.8082 106.689 46.7555 106.794 46.6501L106.966 46.2418L106.794 45.8334ZM107.151 54.3567L106.953 54.0142C106.913 53.8693 106.887 53.6585 106.887 53.3687V49.14L105.013 49.3771V49.5088C105.198 49.5352 105.356 49.5615 105.461 49.6142L105.725 49.8777C105.791 49.9963 105.844 50.1412 105.871 50.3124C105.897 50.4969 105.91 50.7998 105.91 51.2346V52.8286C105.91 53.2106 105.91 53.5004 105.884 53.698C105.857 53.8957 105.818 54.0537 105.778 54.146L105.501 54.4621C105.395 54.528 105.211 54.5675 104.947 54.607V54.7519H107.824V54.607C107.494 54.5412 107.27 54.4621 107.151 54.3436" fill="#F6F6F6"/>
<path d="M111.968 52.2491C111.757 51.9725 111.453 51.7353 111.044 51.5509L110.358 51.2347C110.041 51.0898 109.804 50.9317 109.645 50.7605C109.5 50.5892 109.421 50.4048 109.421 50.1808C109.421 49.9305 109.513 49.7066 109.685 49.5353C109.856 49.3509 110.054 49.2719 110.292 49.2719C110.477 49.2719 110.648 49.3114 110.82 49.4036C111.005 49.509 111.15 49.6275 111.282 49.7856L111.506 50.1545C111.572 50.2731 111.612 50.4443 111.664 50.6551H111.796L111.73 49.1796H111.598L111.374 49.3772L111.189 49.3377L110.965 49.2323C110.78 49.1533 110.569 49.1138 110.345 49.1138C109.843 49.1138 109.46 49.2719 109.157 49.588C108.893 49.8647 108.761 50.2072 108.761 50.6024C108.761 50.9581 108.893 51.2874 109.157 51.5641C109.342 51.7617 109.698 51.9988 110.252 52.2886C110.569 52.4467 110.78 52.5784 110.912 52.6707L111.242 52.9736C111.387 53.1713 111.466 53.4084 111.466 53.6982C111.466 54.0275 111.361 54.291 111.15 54.4623C110.952 54.6204 110.714 54.6994 110.437 54.6994C110.001 54.6994 109.606 54.4623 109.276 53.9749C109.091 53.7114 108.932 53.3425 108.814 52.8946H108.708V54.7389H108.814L109.157 54.5545H109.302C109.302 54.5545 109.447 54.6204 109.645 54.6994C109.936 54.8048 110.226 54.8707 110.516 54.8707C111.044 54.8707 111.48 54.6862 111.823 54.3569C112.113 54.0539 112.258 53.6719 112.258 53.2239C112.258 52.8419 112.153 52.5126 111.955 52.2491" fill="#F6F6F6"/>
<path d="M116.653 54.0273C116.508 54.2381 116.35 54.383 116.218 54.4621C116.086 54.5411 115.927 54.5806 115.742 54.5806L115.307 54.4752L114.99 54.2249C114.845 54.0405 114.766 53.7112 114.766 53.2501V49.4692H116.416V49.2189H114.766V47.5327H114.528L114.462 47.7567C114.383 48.007 114.304 48.2046 114.212 48.3627L113.868 48.8501C113.631 49.1136 113.367 49.2848 113.09 49.3639V49.4692H113.776V53.395C113.776 53.777 113.802 54.0273 113.842 54.1854L114.093 54.5543C114.317 54.7519 114.687 54.8573 115.201 54.8573C115.597 54.8573 115.914 54.7914 116.178 54.6597C116.442 54.5279 116.64 54.3435 116.785 54.08L116.679 54.001L116.653 54.0273Z" fill="#F6F6F6"/>
<path d="M118.461 45.8334C118.355 45.728 118.21 45.6753 118.039 45.6753L117.63 45.8334L117.458 46.2418L117.616 46.6501C117.722 46.7555 117.867 46.8082 118.039 46.8082C118.21 46.8082 118.355 46.7555 118.461 46.6501L118.633 46.2418L118.461 45.8334ZM118.817 54.3567L118.619 54.0142C118.58 53.8693 118.567 53.6585 118.567 53.3687V52.8681V49.1268L116.693 49.3639V49.4957C116.877 49.522 117.036 49.5483 117.141 49.601L117.405 49.8645C117.484 49.9831 117.537 50.128 117.55 50.2992C117.577 50.4837 117.577 50.7867 117.577 51.2214V52.8154C117.577 53.1975 117.577 53.4873 117.55 53.6849C117.524 53.8825 117.498 54.0406 117.445 54.1328L117.168 54.4489C117.049 54.5148 116.864 54.5543 116.613 54.5939V54.7388H119.49V54.5939C119.161 54.528 118.936 54.4489 118.817 54.3304" fill="#F6F6F6"/>
<path d="M123.516 54.0273C123.357 54.2381 123.212 54.383 123.08 54.4621C122.948 54.5411 122.79 54.5806 122.605 54.5806L122.17 54.4752L121.853 54.2249C121.694 54.0405 121.615 53.7112 121.615 53.2501V49.4692H123.265V49.2189H121.615V47.5327H121.378L121.312 47.7567C121.233 48.007 121.153 48.2046 121.061 48.3627L120.718 48.8501C120.48 49.1136 120.216 49.2848 119.939 49.3639V49.4692H120.639V53.395C120.639 53.777 120.665 54.0273 120.705 54.1854L120.942 54.5543C121.18 54.7519 121.549 54.8573 122.064 54.8573C122.46 54.8573 122.777 54.7914 123.027 54.6597C123.291 54.5279 123.489 54.3435 123.635 54.08L123.529 54.001L123.516 54.0273Z" fill="#F6F6F6"/>
<path d="M129.481 54.3699L129.283 54.0274C129.244 53.8825 129.23 53.6717 129.23 53.3819V52.8944V50.9974C129.23 50.5627 129.191 50.2334 129.098 50.0226C129.006 49.8118 128.834 49.6274 128.61 49.4693C128.267 49.2585 127.845 49.1663 127.343 49.1663C126.947 49.1663 126.578 49.2453 126.261 49.4034L125.839 49.6801C125.72 49.7723 125.588 49.9304 125.443 50.1016V45.6489L123.569 45.8861V46.031C123.753 46.031 123.912 46.0837 124.004 46.1364L124.281 46.3998C124.347 46.5052 124.4 46.6633 124.426 46.8346C124.44 47.019 124.466 47.322 124.466 47.7699V52.8549C124.466 53.2501 124.466 53.5399 124.44 53.7376C124.413 53.9352 124.387 54.0932 124.334 54.1855L124.057 54.5016C123.951 54.5675 123.753 54.607 123.489 54.6465V54.7914H126.366V54.6465C126.05 54.5807 125.825 54.5016 125.707 54.3831L125.495 54.0405C125.469 53.8956 125.443 53.6849 125.443 53.395V51.8801C125.443 50.2334 125.971 49.4166 127 49.4166C127.409 49.4166 127.726 49.5352 127.937 49.7986C128.043 49.9304 128.135 50.0884 128.175 50.2729C128.214 50.4573 128.24 50.7076 128.24 51.0106V53.0657C128.24 53.4214 128.214 53.7112 128.188 53.8825C128.161 54.0669 128.109 54.225 128.029 54.3172L127.765 54.5411C127.66 54.5938 127.501 54.6202 127.277 54.6465V54.7914H130.154V54.6465C129.824 54.5807 129.6 54.5016 129.481 54.3831" fill="#F6F6F6"/>
<path d="M140.211 54.3701L140.013 54.0276C139.986 53.8827 139.96 53.6719 139.96 53.3821V52.8946V50.6946C139.96 50.2336 139.802 49.8647 139.472 49.588C139.142 49.2982 138.719 49.1533 138.205 49.1533C137.822 49.1533 137.466 49.2324 137.122 49.3904C136.792 49.5354 136.463 49.7857 136.133 50.115C135.921 49.812 135.737 49.5881 135.565 49.4563C135.288 49.2587 134.958 49.1533 134.549 49.1533C134.193 49.1533 133.823 49.2324 133.493 49.3904C133.15 49.5354 132.86 49.7725 132.569 50.0623C132.543 49.7593 132.503 49.4563 132.424 49.1533L130.642 49.3773V49.509C130.827 49.509 130.986 49.5617 131.091 49.6144L131.355 49.8779C131.434 49.9833 131.474 50.1413 131.5 50.3126C131.513 50.497 131.527 50.8 131.527 51.2479V52.8419C131.527 53.224 131.527 53.5138 131.5 53.7114C131.474 53.909 131.447 54.0671 131.395 54.1593L131.131 54.4755C131.012 54.5413 130.827 54.5809 130.563 54.6204V54.7653H133.44V54.6204C133.11 54.5545 132.886 54.4755 132.767 54.3569L132.569 54.0144C132.53 53.8695 132.516 53.6587 132.516 53.3689V52.8946V51.709C132.516 51.327 132.53 50.9976 132.582 50.7473C132.635 50.497 132.728 50.2863 132.833 50.115C132.965 49.9174 133.137 49.7593 133.348 49.6407C133.572 49.5222 133.797 49.4563 134.047 49.4563C134.259 49.4563 134.457 49.509 134.628 49.6012C134.8 49.6934 134.932 49.812 135.024 49.9569C135.116 50.1018 135.182 50.2994 135.222 50.5366C135.248 50.7605 135.275 51.1294 135.275 51.6431V52.8419C135.275 53.224 135.275 53.5138 135.248 53.7114C135.222 53.909 135.182 54.0671 135.143 54.1593L134.866 54.4755C134.76 54.5413 134.562 54.5809 134.311 54.6204V54.7653H137.188V54.6204C136.858 54.5545 136.634 54.4755 136.502 54.3569L136.317 54.0144C136.278 53.8695 136.265 53.6587 136.265 53.3689V51.63C136.265 50.9054 136.37 50.3653 136.568 50.036C136.819 49.6407 137.202 49.4431 137.743 49.4431C138.244 49.4431 138.601 49.6276 138.799 49.9964C138.891 50.1413 138.944 50.3389 138.983 50.5497C139.023 50.7605 139.023 51.1162 139.023 51.6036V52.8419C139.023 53.224 139.023 53.5138 138.996 53.7114C138.97 53.909 138.944 54.0671 138.891 54.1593L138.614 54.4755C138.495 54.5413 138.31 54.5809 138.059 54.6204V54.7653H140.937V54.6204C140.62 54.5545 140.382 54.4755 140.263 54.3569" fill="#F6F6F6"/>
<path d="M144.698 52.6707C144.698 53.224 144.632 53.6455 144.5 53.9354C144.394 54.1593 144.262 54.3306 144.064 54.4623C143.88 54.594 143.682 54.6467 143.47 54.6467C143.22 54.6467 143.022 54.5545 142.877 54.3701C142.718 54.1857 142.639 53.9485 142.639 53.6719C142.639 53.3294 142.745 53.0395 142.943 52.7892L143.273 52.4863C143.404 52.394 143.616 52.2623 143.932 52.091C144.21 51.9461 144.473 51.788 144.698 51.5773V52.6707ZM146.849 54.1461L146.572 54.436L146.255 54.5018C145.978 54.5018 145.806 54.3437 145.727 54.0407C145.701 53.8958 145.674 53.606 145.674 53.2108V50.8C145.674 50.497 145.648 50.2731 145.622 50.1545C145.556 49.891 145.371 49.6803 145.094 49.5222C144.909 49.4168 144.658 49.3377 144.368 49.2587C144.078 49.1928 143.8 49.1533 143.523 49.1533C143.286 49.1533 143.048 49.1797 142.797 49.2324C142.547 49.2851 142.335 49.3377 142.164 49.4168C141.847 49.5617 141.689 49.7593 141.689 49.9833L141.834 50.3389L142.204 50.4839C142.441 50.4839 142.599 50.3785 142.679 50.1809L142.837 49.7988L143.154 49.4168C143.286 49.3246 143.444 49.2851 143.629 49.2851L144.064 49.3773L144.394 49.6407C144.579 49.8779 144.685 50.2467 144.685 50.7473C144.685 50.9845 144.658 51.1821 144.605 51.3006L144.315 51.6563C144.196 51.7485 144.038 51.8276 143.866 51.8934C143.682 51.9461 143.404 52.0383 143.035 52.1306C142.718 52.2096 142.467 52.2886 142.296 52.3677C142.124 52.4467 141.979 52.5521 141.847 52.6839C141.623 52.921 141.504 53.224 141.504 53.5797C141.504 53.9749 141.649 54.2779 141.926 54.515C142.204 54.7389 142.586 54.8575 143.061 54.8575C143.444 54.8575 143.761 54.7785 144.051 54.6204C144.196 54.5413 144.407 54.3701 144.698 54.1066C144.843 54.3569 144.988 54.5282 145.12 54.6336C145.318 54.7785 145.582 54.8575 145.886 54.8575C146.453 54.8575 146.796 54.6336 146.955 54.1725L146.849 54.1066V54.1461Z" fill="#F6F6F6"/>
<path d="M151.323 49.3378C151.178 49.2192 150.967 49.1533 150.689 49.1533C150.228 49.1533 149.818 49.2851 149.462 49.5485C149.277 49.6803 149.093 49.891 148.947 50.1545C148.947 49.8779 148.908 49.5485 148.829 49.1533L147.153 49.3904V49.5222C147.351 49.5354 147.496 49.5749 147.601 49.6144L147.865 49.8779C147.944 49.9964 147.997 50.1413 148.01 50.3126C148.037 50.497 148.037 50.8 148.037 51.2479V52.8419C148.037 53.224 148.037 53.5138 148.01 53.7114C147.984 53.909 147.958 54.0671 147.905 54.1593L147.628 54.4755C147.509 54.5413 147.324 54.5809 147.073 54.6204V54.7653H149.95V54.6204C149.62 54.5545 149.396 54.4755 149.277 54.3569L149.079 54.0144C149.04 53.8695 149.027 53.6587 149.027 53.3689V52.8815V51.6695C149.027 50.9845 149.106 50.4575 149.277 50.0755C149.436 49.6934 149.66 49.509 149.964 49.509C150.175 49.509 150.36 49.588 150.518 49.7593L150.716 49.9833L151.112 50.1677L151.415 50.0491L151.534 49.7593C151.534 49.588 151.468 49.4431 151.336 49.3378" fill="#F6F6F6"/>
<path d="M157.658 50.9317L158.951 47.5593L160.311 50.9317H157.658ZM163.795 54.5018L163.438 54.3305C163.293 54.212 163.148 54.0539 163.029 53.83C162.897 53.5928 162.726 53.2371 162.515 52.7234L159.69 45.8994H159.321L156.945 52.0252C156.721 52.5785 156.549 53 156.417 53.2898C156.272 53.5665 156.153 53.7904 156.008 53.9617C155.85 54.1856 155.678 54.3437 155.493 54.4491C155.322 54.5413 155.124 54.6072 154.886 54.6204V54.7653H157.803V54.6204C157.539 54.594 157.328 54.5282 157.156 54.4096L156.866 54.0803L156.76 53.6323C156.76 53.3557 156.866 52.9868 157.064 52.4994L157.222 52.1042L157.565 51.2084H160.416L161.05 52.7497L161.155 53.0132C161.274 53.3162 161.34 53.5533 161.34 53.7377C161.34 54.0276 161.208 54.2647 160.944 54.4359C160.799 54.5282 160.522 54.594 160.139 54.6204V54.7653H164.415V54.6204C164.151 54.594 163.94 54.5677 163.821 54.515" fill="#F6F6F6"/>
<path d="M168.863 50.194C168.625 50.2599 168.242 50.2862 167.714 50.2862H167.464V46.1102H167.741C168.203 46.1102 168.559 46.1365 168.81 46.1892C169.061 46.2419 169.285 46.3605 169.456 46.4922C169.681 46.6898 169.866 46.927 170.011 47.2431C170.143 47.5461 170.209 47.8623 170.209 48.2048C170.209 48.8503 169.984 49.3904 169.522 49.812C169.324 49.9964 169.1 50.1282 168.876 50.194M172.65 54.515L172.347 54.2383C172.202 54.0671 172.043 53.8036 171.845 53.4347C171.66 53.0791 171.357 52.4994 170.974 51.6958C170.803 51.3533 170.684 51.1162 170.605 50.9713L170.341 50.6288C170.209 50.5102 170.024 50.3916 169.76 50.2862C170.064 50.2204 170.327 50.1413 170.512 50.0623C170.697 49.9832 170.869 49.8779 171.027 49.7593C171.542 49.3641 171.792 48.8108 171.792 48.1389C171.792 47.6779 171.674 47.2826 171.436 46.9401C171.212 46.5976 170.869 46.3341 170.446 46.1629C170.064 46.018 169.536 45.9258 168.863 45.8994C168.691 45.8994 168.348 45.8994 167.833 45.8994H164.692V46.0443C164.943 46.0575 165.141 46.097 165.299 46.1497L165.708 46.4132C165.854 46.5581 165.933 46.7294 165.985 46.9401C166.025 47.1509 166.051 47.4803 166.051 47.915V52.697C166.051 53.1449 166.025 53.4743 165.985 53.685C165.933 53.8958 165.84 54.0802 165.708 54.212L165.299 54.4755C165.154 54.5413 164.943 54.5809 164.692 54.5809V54.7258H168.849V54.5809C168.599 54.5809 168.401 54.5282 168.255 54.4755L167.846 54.212C167.714 54.0802 167.622 53.8958 167.582 53.685C167.53 53.4611 167.503 53.1317 167.503 52.697V50.4048H167.82C168.005 50.4048 168.176 50.4311 168.308 50.4575L168.691 50.6419C168.929 50.8264 169.166 51.1425 169.456 51.6036C169.734 52.091 170.011 52.618 170.275 53.2503L170.737 54.291C170.737 54.291 170.829 54.5018 170.948 54.7389H173.099V54.594C172.927 54.5677 172.782 54.5413 172.677 54.4886" fill="#F6F6F6"/>
<path d="M181.07 52.1701C180.991 52.5653 180.899 52.8683 180.806 53.1054C180.714 53.3425 180.582 53.5533 180.424 53.7509C180.199 54.0144 179.922 54.2251 179.579 54.3569C179.223 54.4886 178.787 54.5545 178.272 54.5545C177.784 54.5545 177.375 54.4886 177.085 54.3305C176.781 54.1856 176.557 53.9617 176.412 53.6455C176.319 53.4611 176.266 53.2371 176.227 52.9605C176.2 52.697 176.187 52.2623 176.187 51.6563V50.1677H176.557C176.873 50.1677 177.137 50.2072 177.349 50.273C177.56 50.3389 177.731 50.4443 177.863 50.576C177.995 50.721 178.088 50.879 178.167 51.103C178.246 51.3006 178.299 51.5772 178.338 51.9066H178.484L178.51 48.4287H178.365C178.325 48.7581 178.272 49.0084 178.22 49.1796C178.154 49.3509 178.074 49.4958 177.942 49.6275C177.824 49.7593 177.665 49.8515 177.467 49.9042C177.269 49.9569 176.966 49.9701 176.583 49.9701H176.187V46.0838H177.665C178.127 46.0838 178.497 46.1102 178.774 46.176C179.038 46.2419 179.302 46.3473 179.5 46.4922C179.751 46.6766 179.935 46.8874 180.054 47.1245C180.186 47.3617 180.292 47.6647 180.331 48.0204H180.476L180.371 45.873H173.389V46.018C173.64 46.0443 173.838 46.0706 173.996 46.1233L174.392 46.4C174.537 46.5449 174.617 46.7162 174.669 46.9269C174.722 47.1377 174.735 47.4671 174.735 47.9018V52.6838C174.735 53.1186 174.709 53.4479 174.669 53.6718C174.617 53.8826 174.524 54.0671 174.392 54.1856L173.983 54.4623C173.838 54.515 173.627 54.5545 173.389 54.5677V54.7126H181.149L181.229 52.1305H181.083L181.07 52.1701Z" fill="#F6F6F6"/>
<path d="M184.607 47.1509C184.634 46.8479 184.752 46.5976 184.911 46.4264L185.32 46.1629C185.465 46.097 185.676 46.0707 185.914 46.0575V45.9126H181.757V46.0575C182.007 46.0839 182.205 46.1102 182.35 46.1629L182.76 46.4264C182.905 46.5713 182.997 46.7294 183.037 46.9533C183.09 47.1641 183.103 47.4934 183.103 47.9282V52.7102C183.103 53.1581 183.076 53.4874 183.037 53.6982C182.997 53.909 182.892 54.0934 182.76 54.2252L182.364 54.5018C182.205 54.5545 182.007 54.6072 181.757 54.6072V54.7521H185.914V54.6072C185.623 54.5809 185.386 54.5413 185.201 54.4623C185.03 54.3701 184.884 54.2515 184.766 54.0671C184.686 53.9485 184.62 53.7773 184.594 53.5665C184.554 53.3557 184.541 53.0791 184.541 52.7102V47.9282C184.541 47.6383 184.541 47.3617 184.581 47.1377" fill="#F6F6F6"/>
<path d="M194.703 52.1436C194.598 52.7496 194.413 53.237 194.162 53.5927C193.938 53.8957 193.634 54.146 193.238 54.3172C192.843 54.4885 192.394 54.5675 191.906 54.5675C190.916 54.5675 190.124 54.225 189.517 53.5531C189.2 53.1843 188.949 52.7232 188.778 52.1831C188.606 51.6298 188.527 51.0238 188.527 50.3388C188.527 49.5352 188.646 48.8238 188.896 48.1915C189.068 47.7567 189.292 47.3484 189.57 47.0058C189.847 46.6502 190.137 46.3999 190.454 46.2022C190.81 45.9915 191.232 45.8861 191.721 45.8861C192.051 45.8861 192.341 45.9388 192.605 46.0442C192.869 46.1496 193.12 46.3076 193.357 46.5448C193.674 46.8478 193.925 47.1771 194.096 47.546C194.189 47.7436 194.321 48.0597 194.466 48.4813L194.571 48.7579H194.717L194.637 45.8597H194.479L194.373 46.0705L194.11 46.2154L193.832 46.1627L193.304 45.9915C192.724 45.7939 192.169 45.6885 191.642 45.6885C191.087 45.6885 190.546 45.7807 189.992 45.9651C189.438 46.1496 188.976 46.3999 188.58 46.716C188.065 47.1112 187.669 47.6514 187.379 48.3232C187.102 48.9951 186.956 49.7196 186.956 50.51C186.956 51.5508 187.194 52.4334 187.682 53.1843C188.171 53.922 188.857 54.449 189.728 54.7388C190.282 54.91 190.85 55.0022 191.444 55.0022C192.09 55.0022 192.658 54.8969 193.146 54.6993C193.621 54.4885 194.017 54.1987 194.281 53.8166C194.571 53.4214 194.756 52.8813 194.849 52.1831L194.703 52.1567V52.1436Z" fill="#F6F6F6"/>
<path d="M206.634 52.1701C206.476 52.6575 206.251 53.0922 205.961 53.4743C205.657 53.8695 205.314 54.1593 204.945 54.3305C204.562 54.5018 204.113 54.594 203.572 54.594C202.952 54.594 202.503 54.4228 202.226 54.0934C202.094 53.9353 202.002 53.7377 201.962 53.527C201.909 53.303 201.883 52.9868 201.883 52.5521V46.1102H202.675C203.242 46.1102 203.704 46.1629 204.06 46.2551C204.734 46.4395 205.301 46.8084 205.776 47.4012C206.132 47.8096 206.383 48.297 206.581 48.8503C206.766 49.4168 206.858 49.9964 206.858 50.6024C206.858 51.1557 206.779 51.6695 206.634 52.1701ZM207.927 48.3892C207.597 47.691 207.122 47.1246 206.515 46.703C205.869 46.2551 205.103 45.9916 204.179 45.9258C203.968 45.8994 203.453 45.8994 202.661 45.8994H199.085V46.0443C199.494 46.0707 199.811 46.1761 200.009 46.3473C200.18 46.4922 200.299 46.6767 200.352 46.9006C200.405 47.1246 200.444 47.4671 200.444 47.9413V52.7234C200.444 53.1581 200.418 53.4874 200.378 53.7114C200.326 53.9222 200.233 54.1066 200.101 54.2383L199.692 54.515C199.547 54.5677 199.336 54.6072 199.098 54.6204V54.7653H203.902C204.456 54.7653 204.997 54.7126 205.539 54.6204C206.264 54.4886 206.858 54.1725 207.347 53.685C207.69 53.3294 207.954 52.8946 208.152 52.3677C208.336 51.8407 208.442 51.2743 208.442 50.6815C208.442 49.8647 208.27 49.1006 207.927 48.4156" fill="#F6F6F6"/>
<path d="M211.161 45.8334C211.055 45.728 210.91 45.6753 210.738 45.6753L210.316 45.8334L210.145 46.2418L210.316 46.6501C210.422 46.7555 210.567 46.8082 210.738 46.8082C210.91 46.8082 211.042 46.7555 211.161 46.6501L211.332 46.2418L211.161 45.8334ZM211.517 54.3567L211.319 54.0142C211.28 53.8693 211.266 53.6585 211.266 53.3687V52.8681V49.1268L209.392 49.3639V49.4957C209.577 49.522 209.735 49.5483 209.841 49.601L210.105 49.8645C210.184 49.9831 210.224 50.128 210.25 50.2992C210.277 50.4837 210.277 50.7867 210.277 51.2214V52.8154C210.277 53.1975 210.277 53.4873 210.25 53.6849C210.224 53.8825 210.197 54.0406 210.145 54.1328L209.867 54.4489C209.762 54.5148 209.577 54.5543 209.313 54.5939V54.7388H212.19V54.5939C211.86 54.528 211.636 54.4489 211.517 54.3304" fill="#F6F6F6"/>
<path d="M216.361 49.2456V49.3905C216.545 49.43 216.664 49.4827 216.743 49.5354C216.875 49.6408 216.941 49.7989 216.941 50.0097C216.941 50.2205 216.862 50.5234 216.717 50.9318L215.661 53.6983L214.605 51.0372C214.486 50.7342 214.421 50.5103 214.368 50.3522L214.302 49.9438C214.302 49.7594 214.368 49.6145 214.513 49.5223C214.566 49.4696 214.698 49.43 214.896 49.3905V49.2456H212.375V49.3905L212.705 49.4696L212.903 49.6276C213.008 49.7594 213.193 50.1282 213.444 50.7474L215.08 54.7654H215.437L216.941 50.945C217.179 50.3258 217.403 49.9175 217.575 49.7199C217.72 49.5618 217.931 49.4432 218.169 49.3905V49.2456H216.374H216.361Z" fill="#F6F6F6"/>
<path d="M220.148 49.7725C220.425 49.4563 220.742 49.2851 221.125 49.2851C221.349 49.2851 221.547 49.3509 221.745 49.4695C221.93 49.588 222.102 49.7593 222.207 49.9701C222.339 50.2072 222.418 50.5366 222.445 50.9713H219.647C219.7 50.497 219.858 50.0886 220.135 49.7725M223.408 53.303C223.303 53.6324 223.157 53.8827 223.012 54.0276C222.867 54.1725 222.695 54.2647 222.484 54.3437C222.273 54.4228 222.049 54.4623 221.811 54.4623C221.508 54.4623 221.204 54.3964 220.914 54.2515C220.623 54.1066 220.386 53.9222 220.188 53.6851C220.003 53.4479 219.845 53.1449 219.739 52.7892C219.634 52.4336 219.568 52.0647 219.568 51.6958C219.568 51.5904 219.568 51.4455 219.594 51.2348H223.408C223.408 50.6815 223.25 50.2336 222.933 49.8647C222.735 49.6276 222.484 49.4563 222.181 49.3378C221.89 49.206 221.574 49.1533 221.217 49.1533C220.571 49.1533 219.99 49.3509 219.488 49.7593C218.789 50.3126 218.433 51.0767 218.433 52.0515C218.433 52.7629 218.617 53.3689 218.987 53.8563C219.251 54.212 219.568 54.4755 219.95 54.6336C220.333 54.8048 220.795 54.897 221.323 54.897C221.943 54.897 222.431 54.7653 222.801 54.5018C223.171 54.2383 223.408 53.8563 223.527 53.3557L223.382 53.3162L223.408 53.303Z" fill="#F6F6F6"/>
<path d="M228.595 49.3378C228.45 49.2192 228.238 49.1533 227.961 49.1533C227.499 49.1533 227.09 49.2851 226.734 49.5485C226.549 49.6803 226.364 49.891 226.206 50.1545C226.206 49.8779 226.166 49.5485 226.1 49.1533L224.424 49.3904V49.5222C224.622 49.5354 224.781 49.5749 224.873 49.6144L225.137 49.8779C225.203 49.9964 225.256 50.1413 225.282 50.3126C225.295 50.497 225.309 50.8 225.309 51.2479V52.8419C225.309 53.224 225.308 53.5138 225.282 53.7114C225.256 53.909 225.229 54.0671 225.177 54.1593L224.913 54.4755C224.807 54.5413 224.609 54.5809 224.358 54.6204V54.7653H227.235V54.6204C226.919 54.5545 226.681 54.4755 226.562 54.3569L226.364 54.0144C226.338 53.8695 226.312 53.6587 226.312 53.3689V52.8815V51.6695C226.312 50.9845 226.391 50.4575 226.562 50.0755C226.721 49.6934 226.958 49.509 227.249 49.509C227.46 49.509 227.644 49.588 227.803 49.7593L228.001 49.9833L228.397 50.1677L228.7 50.0491L228.819 49.7593C228.819 49.588 228.753 49.4431 228.608 49.3378" fill="#F6F6F6"/>
<path d="M232.752 52.2491C232.554 51.9725 232.237 51.7353 231.828 51.5509L231.142 51.2347C230.825 51.0898 230.588 50.9317 230.429 50.7605C230.271 50.5892 230.205 50.4048 230.205 50.1808C230.205 49.9305 230.284 49.7066 230.456 49.5353C230.627 49.3509 230.838 49.2719 231.076 49.2719C231.247 49.2719 231.432 49.3114 231.604 49.4036C231.775 49.509 231.934 49.6275 232.066 49.7856L232.303 50.1545C232.356 50.2731 232.409 50.4443 232.448 50.6551H232.594L232.528 49.1796H232.396L232.171 49.3772L231.986 49.3377L231.762 49.2323C231.577 49.1533 231.366 49.1138 231.155 49.1138C230.654 49.1138 230.258 49.2719 229.967 49.588C229.703 49.8647 229.585 50.2072 229.585 50.6024C229.585 50.9581 229.717 51.2874 229.967 51.5641C230.152 51.7617 230.508 51.9988 231.063 52.2886C231.366 52.4467 231.591 52.5784 231.723 52.6707L232.052 52.9736C232.198 53.1713 232.29 53.4084 232.29 53.6982C232.29 54.0275 232.184 54.291 231.973 54.4623C231.775 54.6204 231.538 54.6994 231.261 54.6994C230.812 54.6994 230.429 54.4623 230.086 53.9749C229.901 53.7114 229.756 53.3425 229.637 52.8946H229.532V54.7389H229.637L229.98 54.5545H230.126C230.126 54.5545 230.284 54.6204 230.482 54.6994C230.772 54.8048 231.063 54.8707 231.353 54.8707C231.881 54.8707 232.316 54.6862 232.66 54.3569C232.95 54.0539 233.095 53.6719 233.095 53.2239C233.095 52.8419 232.989 52.5126 232.792 52.2491" fill="#F6F6F6"/>
<path d="M235.708 45.8334L235.286 45.6753C235.114 45.6753 234.982 45.728 234.864 45.8334L234.692 46.2418L234.864 46.6501C234.969 46.7555 235.114 46.8082 235.286 46.8082C235.457 46.8082 235.603 46.7555 235.708 46.6501L235.88 46.2418L235.708 45.8334ZM236.064 54.3567L235.853 54.0142C235.827 53.8693 235.801 53.6585 235.801 53.3687V49.14L233.913 49.3771V49.5088C234.111 49.5352 234.27 49.5615 234.362 49.6142L234.626 49.8777C234.692 49.9963 234.745 50.1412 234.771 50.3124C234.784 50.4969 234.798 50.7998 234.798 51.2346V52.8286C234.798 53.2106 234.798 53.5004 234.771 53.698C234.745 53.8957 234.705 54.0537 234.666 54.146L234.402 54.4621C234.296 54.528 234.098 54.5675 233.834 54.607V54.7519H236.711V54.607C236.394 54.5412 236.17 54.4621 236.051 54.3436" fill="#F6F6F6"/>
<path d="M241.489 45.807C241.291 45.6884 241.014 45.6357 240.684 45.6357C240.327 45.6357 239.971 45.6753 239.641 45.7807C239.324 45.8729 239.034 46.0046 238.81 46.1627C238.559 46.3471 238.374 46.5447 238.295 46.7687C238.189 46.9926 238.15 47.2824 238.15 47.6777V49.2585H237.213V49.5088H238.15V52.8417C238.15 53.2238 238.15 53.5268 238.123 53.7244C238.097 53.922 238.071 54.0801 238.018 54.1723L237.754 54.4884C237.635 54.5543 237.45 54.5938 237.186 54.6333V54.7783H240.063V54.6333C239.733 54.5675 239.509 54.4884 239.39 54.3699L239.192 54.0274C239.153 53.8824 239.14 53.6717 239.14 53.3819V52.8944V49.5088H240.433V49.2585H239.153V47.5459C239.153 47.1771 239.153 46.8872 239.206 46.6896C239.232 46.5052 239.311 46.3339 239.39 46.2154L239.733 45.9519C239.879 45.886 240.037 45.8465 240.209 45.8465L240.525 45.9519C240.591 46.0046 240.697 46.1363 240.829 46.3339L241.093 46.6369L241.396 46.7292L241.7 46.5974L241.832 46.2813C241.832 46.0836 241.726 45.9256 241.528 45.807" fill="#F6F6F6"/>
<path d="M242.848 45.8334L242.426 45.6753C242.254 45.6753 242.122 45.728 242.003 45.8334L241.832 46.2418L242.003 46.6501C242.109 46.7555 242.254 46.8082 242.426 46.8082C242.597 46.8082 242.729 46.7555 242.848 46.6501L243.02 46.2418L242.848 45.8334ZM243.204 54.3567L243.006 54.0142C242.98 53.8693 242.954 53.6585 242.954 53.3687V49.14L241.066 49.3771V49.5088C241.264 49.5352 241.423 49.5615 241.515 49.6142L241.792 49.8777C241.858 49.9963 241.911 50.1412 241.937 50.3124C241.964 50.4969 241.964 50.7998 241.964 51.2346V52.8286C241.964 53.2106 241.964 53.5004 241.937 53.698C241.924 53.8957 241.885 54.0537 241.832 54.146L241.555 54.4621C241.449 54.528 241.251 54.5675 241 54.607V54.7519H243.877V54.607C243.561 54.5412 243.336 54.4621 243.204 54.3436" fill="#F6F6F6"/>
<path d="M246.227 49.7725C246.504 49.4563 246.834 49.2851 247.203 49.2851C247.428 49.2851 247.639 49.3509 247.824 49.4695C248.022 49.588 248.18 49.7593 248.299 49.9701C248.431 50.2072 248.51 50.5366 248.536 50.9713H245.738C245.791 50.497 245.963 50.0886 246.24 49.7725M249.5 53.303C249.394 53.6324 249.262 53.8827 249.104 54.0276C248.959 54.1725 248.787 54.2647 248.576 54.3437C248.365 54.4228 248.14 54.4623 247.916 54.4623C247.599 54.4623 247.296 54.3964 247.005 54.2515C246.728 54.1066 246.491 53.9222 246.279 53.6851C246.095 53.4479 245.936 53.1449 245.831 52.7892C245.725 52.4336 245.672 52.0647 245.672 51.6958C245.672 51.5904 245.672 51.4455 245.699 51.2348H249.513C249.513 50.6815 249.354 50.2336 249.038 49.8647C248.827 49.6276 248.576 49.4563 248.285 49.3378C247.995 49.206 247.665 49.1533 247.322 49.1533C246.675 49.1533 246.095 49.3509 245.58 49.7593C244.894 50.3126 244.537 51.0767 244.537 52.0515C244.537 52.7629 244.722 53.3689 245.092 53.8563C245.356 54.212 245.686 54.4755 246.068 54.6336C246.451 54.8048 246.913 54.897 247.441 54.897C248.048 54.897 248.549 54.7653 248.919 54.5018C249.288 54.2383 249.526 53.8563 249.645 53.3557L249.5 53.3162V53.303Z" fill="#F6F6F6"/>
<path d="M254.95 53.2897C254.897 53.5926 254.805 53.8561 254.686 54.0537C254.567 54.2513 254.396 54.4094 254.198 54.5148C254 54.6334 253.776 54.6861 253.564 54.6861C253.089 54.6861 252.693 54.4621 252.377 54.0274C252.192 53.7639 252.047 53.4741 251.941 53.1052C251.836 52.7495 251.783 52.3807 251.783 52.0118C251.783 51.6429 251.836 51.2609 251.954 50.9052C252.06 50.5495 252.232 50.2334 252.429 49.9699C252.773 49.5352 253.169 49.3244 253.63 49.3244C253.842 49.3244 254.04 49.3771 254.238 49.4693C254.422 49.5615 254.594 49.6932 254.699 49.8645C254.845 50.0489 254.937 50.2992 254.977 50.6022C255.029 50.9052 255.056 51.3531 255.056 51.9459C255.056 52.5388 255.029 52.9603 254.977 53.2765M256.27 54.225C256.125 54.0142 256.046 53.6717 256.046 53.1711V45.6621L254.053 45.9124V46.0705C254.409 46.0705 254.673 46.1759 254.831 46.3867C254.977 46.5843 255.056 46.9268 255.056 47.3879V49.7986C254.752 49.5352 254.475 49.3639 254.238 49.2849C254.013 49.1795 253.723 49.14 253.393 49.14C252.707 49.14 252.139 49.3507 251.638 49.7723C251.321 50.0358 251.083 50.3651 250.912 50.7867C250.727 51.1819 250.648 51.6298 250.648 52.104C250.648 52.5519 250.727 52.9603 250.885 53.3423C251.044 53.7244 251.281 54.0406 251.572 54.2909C252.047 54.6861 252.601 54.8837 253.261 54.8837C253.578 54.8837 253.894 54.831 254.172 54.7388C254.449 54.6465 254.765 54.5016 255.082 54.2909C255.082 54.5412 255.109 54.7651 255.148 54.9759L257.049 54.6992V54.5411C256.692 54.5411 256.428 54.4358 256.27 54.2382" fill="#F6F6F6"/>
<path d="M265.231 50.194C264.994 50.2599 264.611 50.2862 264.07 50.2862H263.832V46.1102H264.096C264.571 46.1102 264.914 46.1365 265.165 46.1892C265.429 46.2419 265.64 46.3605 265.812 46.4922C266.049 46.6898 266.234 46.927 266.366 47.2431C266.498 47.5461 266.564 47.8623 266.564 48.2048C266.564 48.8503 266.34 49.3904 265.878 49.812C265.667 49.9964 265.455 50.1282 265.231 50.194ZM269.006 54.515L268.689 54.2383C268.557 54.0671 268.385 53.8036 268.201 53.4347C268.003 53.0791 267.712 52.4994 267.316 51.6958C267.158 51.3533 267.039 51.1162 266.947 50.9713L266.683 50.6288C266.564 50.5102 266.366 50.3916 266.102 50.2862C266.419 50.2204 266.67 50.1413 266.868 50.0623C267.052 49.9832 267.224 49.8779 267.395 49.7593C267.91 49.3641 268.161 48.8108 268.161 48.1389C268.161 47.6779 268.042 47.2826 267.805 46.9401C267.567 46.5976 267.237 46.3341 266.802 46.1629C266.419 46.018 265.891 45.9258 265.218 45.8994C265.06 45.8994 264.703 45.8994 264.188 45.8994H261.061V46.0443C261.311 46.0575 261.509 46.097 261.655 46.1497L262.064 46.4132C262.209 46.5581 262.288 46.7294 262.341 46.9401C262.394 47.1509 262.407 47.4803 262.407 47.915V52.697C262.407 53.1449 262.38 53.4743 262.341 53.685C262.288 53.8958 262.196 54.0802 262.064 54.212L261.668 54.4755C261.509 54.5413 261.311 54.5809 261.061 54.5809V54.7258H265.218V54.5809C264.967 54.5809 264.769 54.5282 264.611 54.4755L264.215 54.212C264.07 54.0802 263.991 53.8958 263.938 53.685C263.885 53.4611 263.872 53.1317 263.872 52.697V50.4048H264.175C264.373 50.4048 264.532 50.4311 264.677 50.4575L265.046 50.6419C265.271 50.8264 265.535 51.1425 265.812 51.6036C266.089 52.091 266.366 52.618 266.643 53.2503L267.092 54.291C267.092 54.291 267.198 54.5018 267.303 54.7389H269.468V54.594C269.283 54.5677 269.151 54.5413 269.045 54.4886" fill="#F6F6F6"/>
<path d="M277.452 52.1701C277.373 52.5653 277.281 52.8683 277.188 53.1054C277.083 53.3425 276.964 53.5533 276.805 53.7509C276.581 54.0144 276.291 54.2251 275.948 54.3569C275.591 54.4886 275.169 54.5545 274.641 54.5545C274.113 54.5545 273.744 54.4886 273.453 54.3305C273.15 54.1856 272.925 53.9617 272.767 53.6455C272.688 53.4611 272.622 53.2371 272.595 52.9605C272.569 52.697 272.543 52.2623 272.543 51.6563V50.1677H272.912C273.229 50.1677 273.506 50.2072 273.704 50.273C273.915 50.3389 274.087 50.4443 274.219 50.576C274.364 50.721 274.456 50.879 274.535 51.103C274.601 51.3006 274.667 51.5772 274.707 51.9066H274.852L274.879 48.4287H274.733C274.707 48.7581 274.654 49.0084 274.588 49.1796C274.522 49.3509 274.443 49.4958 274.311 49.6275C274.179 49.7593 274.021 49.8515 273.823 49.9042C273.625 49.9569 273.334 49.9701 272.925 49.9701H272.543V46.0838H274.034C274.496 46.0838 274.865 46.1102 275.129 46.176C275.406 46.2419 275.644 46.3473 275.855 46.4922C276.106 46.6766 276.291 46.8874 276.423 47.1245C276.555 47.3617 276.647 47.6647 276.7 48.0204H276.845L276.739 45.873H269.758V46.018C270.009 46.0443 270.207 46.0706 270.352 46.1233L270.761 46.4C270.893 46.5449 270.985 46.7162 271.025 46.9269C271.064 47.1377 271.104 47.4671 271.104 47.9018V52.6838C271.104 53.1186 271.078 53.4479 271.025 53.6718C270.972 53.8826 270.88 54.0671 270.761 54.1856L270.352 54.4623C270.193 54.515 269.995 54.5545 269.758 54.5677V54.7126H277.505L277.597 52.1305H277.452V52.1701Z" fill="#F6F6F6"/>
<path d="M280.976 47.1509C281.015 46.8479 281.121 46.5976 281.279 46.4264L281.702 46.1629C281.847 46.097 282.058 46.0707 282.309 46.0575V45.9126H278.151V46.0575C278.389 46.0839 278.587 46.1102 278.759 46.1629L279.168 46.4264C279.313 46.5713 279.405 46.7294 279.445 46.9533C279.498 47.1641 279.511 47.4934 279.511 47.9282V52.7102C279.511 53.1581 279.484 53.4874 279.445 53.6982C279.392 53.909 279.3 54.0934 279.168 54.2252L278.759 54.5018C278.613 54.5545 278.402 54.6072 278.151 54.6072V54.7521H282.309V54.6072C282.005 54.5809 281.781 54.5413 281.596 54.4623C281.411 54.3701 281.279 54.2515 281.161 54.0671C281.095 53.9485 281.029 53.7773 280.989 53.5665C280.963 53.3557 280.936 53.0791 280.936 52.7102V47.9282C280.936 47.6383 280.963 47.3617 280.976 47.1377" fill="#F6F6F6"/>
<path d="M291.666 45.8994H282.876L282.757 48.297H282.903C282.995 47.7832 283.153 47.3749 283.351 47.085C283.563 46.7557 283.826 46.5318 284.156 46.4C284.473 46.2551 284.975 46.1761 285.648 46.1365C285.951 46.1365 286.255 46.1234 286.519 46.1234V52.7365C286.519 53.1844 286.492 53.5138 286.453 53.7246C286.4 53.9353 286.308 54.1198 286.176 54.2515L285.767 54.5282C285.621 54.5808 285.41 54.6204 285.159 54.6335V54.7785H289.317V54.6335C289.079 54.6335 288.881 54.5808 288.71 54.5282L288.3 54.2515C288.168 54.1198 288.063 53.9353 288.023 53.7246C287.97 53.5006 287.957 53.1713 287.957 52.7365V46.1234C288.921 46.1234 289.594 46.1761 290.003 46.2946C290.478 46.4395 290.834 46.6503 291.085 46.9665C291.336 47.2826 291.521 47.7306 291.639 48.3234H291.785L291.666 45.9126V45.8994Z" fill="#F6F6F6"/>
<path d="M302.488 45.8994H295.691V46.0443C296.021 46.0707 296.272 46.1234 296.457 46.2288C296.786 46.4264 296.971 46.703 297.011 47.085C297.037 47.388 297.05 47.6779 297.05 47.9413V52.7234C297.05 53.1317 297.024 53.4611 296.984 53.6982C296.918 53.9222 296.839 54.1198 296.72 54.2515C296.615 54.3569 296.47 54.4491 296.285 54.5282C296.1 54.594 295.902 54.6335 295.691 54.6335V54.7785H299.848V54.6335C299.598 54.6335 299.4 54.5808 299.241 54.5282L298.832 54.2647C298.7 54.1198 298.608 53.9485 298.568 53.7377C298.515 53.527 298.502 53.1976 298.502 52.7629V50.1809C298.898 50.1809 299.228 50.2072 299.479 50.2467C299.743 50.2994 299.954 50.3785 300.112 50.4838C300.35 50.6288 300.521 50.8264 300.64 51.0635C300.746 51.3006 300.825 51.6431 300.878 52.091H301.036L301.076 48.1521H300.93C300.904 48.4683 300.851 48.7317 300.772 48.9294C300.693 49.127 300.587 49.3114 300.429 49.4563C300.073 49.7988 299.518 49.9701 298.753 49.9701H298.489V46.1497H299.492C299.98 46.1497 300.363 46.1629 300.64 46.2156C300.904 46.2683 301.155 46.3473 301.366 46.4659C301.736 46.6767 302.013 46.9665 302.224 47.3485C302.316 47.5066 302.409 47.7569 302.527 48.0862L302.673 48.0599L302.488 45.9389V45.8994Z" fill="#F6F6F6"/>
<path d="M308.902 54.4097L308.625 54.1462C308.559 54.0276 308.519 53.8827 308.48 53.7115C308.453 53.527 308.453 53.224 308.453 52.7761V49.2588H306.539V49.4037C306.869 49.4696 307.094 49.5486 307.213 49.6672L307.411 50.0097C307.437 50.1414 307.463 50.3522 307.463 50.6552V51.1294V52.3941C307.463 52.9079 307.437 53.2636 307.397 53.4875C307.358 53.7115 307.265 53.8959 307.147 54.0672C307.028 54.2384 306.856 54.3702 306.645 54.4624C306.434 54.5678 306.21 54.6073 305.959 54.6073C305.734 54.6073 305.536 54.5546 305.352 54.4755C305.167 54.3833 305.048 54.2779 304.943 54.1199C304.863 53.9749 304.797 53.8037 304.758 53.5666C304.731 53.3426 304.718 53.0133 304.718 52.539V49.2456H302.805V49.3905C303.121 49.4564 303.359 49.5354 303.478 49.654L303.676 49.9965C303.702 50.1282 303.728 50.339 303.728 50.642V51.1294V53.3821C303.728 53.8564 303.887 54.2252 304.204 54.4755C304.533 54.739 304.969 54.8708 305.51 54.8708C306.249 54.8708 306.896 54.6073 307.437 54.0672C307.437 54.3306 307.463 54.6073 307.529 54.8708L309.311 54.6336V54.4887C309.126 54.4887 308.968 54.436 308.875 54.3833" fill="#F6F6F6"/>
<path d="M315.738 54.3701L315.54 54.0276C315.514 53.8827 315.487 53.6719 315.487 53.3821V50.6288C315.487 50.1545 315.316 49.7988 314.986 49.5353C314.643 49.2719 314.207 49.1533 313.64 49.1533C312.901 49.1533 312.254 49.4168 311.713 49.9569V49.8515C311.713 49.6276 311.687 49.3904 311.621 49.1401L309.839 49.3773V49.509C310.037 49.5353 310.195 49.5617 310.288 49.6144L310.565 49.8779C310.631 49.9964 310.684 50.1413 310.71 50.3126C310.736 50.497 310.736 50.8 310.736 51.2347V52.8288C310.736 53.2108 310.736 53.5006 310.71 53.6982C310.71 53.8958 310.657 54.0539 310.604 54.1461L310.34 54.4623C310.235 54.5282 310.037 54.5677 309.786 54.6072V54.7521H312.663V54.6072C312.346 54.5413 312.122 54.4623 311.99 54.3437L311.792 54.0012C311.766 53.8563 311.739 53.6455 311.739 53.3557V52.8815V51.6168C311.739 51.103 311.766 50.7473 311.805 50.5234C311.845 50.3126 311.924 50.115 312.056 49.9437C312.175 49.7725 312.346 49.6407 312.558 49.5485C312.769 49.4431 312.993 49.4036 313.231 49.4036C313.468 49.4036 313.666 49.4431 313.851 49.5222C314.036 49.6144 314.181 49.7198 314.286 49.8779C314.379 50.0096 314.432 50.1809 314.471 50.4048C314.511 50.6288 314.524 50.9581 314.524 51.4324V52.8156C314.524 53.1976 314.524 53.4874 314.498 53.685C314.471 53.8827 314.445 54.0407 314.392 54.133L314.115 54.4491C314.009 54.515 313.811 54.5545 313.561 54.594V54.7389H316.438V54.594C316.121 54.5282 315.883 54.4491 315.765 54.3306" fill="#F6F6F6"/>
<path d="M321.373 53.2897C321.307 53.5926 321.228 53.8561 321.096 54.0537C320.978 54.2513 320.819 54.4094 320.608 54.5148C320.41 54.6334 320.199 54.6861 319.961 54.6861C319.486 54.6861 319.103 54.4621 318.774 54.0274C318.589 53.7639 318.444 53.4741 318.338 53.1052C318.232 52.7495 318.18 52.3807 318.18 52.0118C318.18 51.6429 318.246 51.2609 318.351 50.9052C318.47 50.5495 318.615 50.2334 318.826 49.9699C319.156 49.5352 319.552 49.3244 320.014 49.3244C320.225 49.3244 320.423 49.3771 320.621 49.4693C320.819 49.5615 320.978 49.6932 321.096 49.8645C321.228 50.0489 321.321 50.2992 321.373 50.6022C321.426 50.9052 321.439 51.3531 321.439 51.9459C321.439 52.5388 321.426 52.9603 321.373 53.2765M322.667 54.225C322.508 54.0142 322.429 53.6717 322.429 53.1711V45.6621L320.436 45.9124V46.0705C320.793 46.0705 321.057 46.1759 321.215 46.3867C321.373 46.5843 321.439 46.9268 321.439 47.3879V49.7986C321.136 49.5352 320.859 49.3639 320.634 49.2849C320.397 49.1795 320.12 49.14 319.79 49.14C319.103 49.14 318.523 49.3507 318.034 49.7723C317.718 50.0358 317.48 50.3651 317.309 50.7867C317.137 51.1819 317.045 51.6298 317.045 52.104C317.045 52.5519 317.124 52.9603 317.282 53.3423C317.441 53.7244 317.678 54.0406 317.969 54.2909C318.43 54.6861 318.998 54.8837 319.645 54.8837C319.975 54.8837 320.278 54.831 320.568 54.7388C320.846 54.6465 321.149 54.5016 321.466 54.2909C321.466 54.5412 321.492 54.7651 321.532 54.9759L323.419 54.6992V54.5411C323.063 54.5411 322.799 54.4358 322.654 54.2382" fill="#F6F6F6"/>
</svg>
