<?xml version="1.0" encoding="UTF-8"?>
<svg id="Layer_1" data-name="Layer 1" xmlns="http://www.w3.org/2000/svg" viewBox="0 0 390.17 321.18">
  <defs>
    <style>
      .cls-1, .cls-2, .cls-3, .cls-4 {
        stroke-width: 0px;
      }

      .cls-2 {
        fill: #dd4747;
      }

      .cls-3 {
        fill: #fecc0d;
      }

      .cls-4 {
        fill: #fff;
      }
    </style>
  </defs>
  <g>
    <path class="cls-3" d="M132.96,281.52l2.35,3.84,10.26,9.1c.05.05.08.12.08.19v1.71h.14c.14,0,.25.11.25.25v3.03h.8c.1,0,.19.06.23.15l1.17,2.6h.89c.12,0,.23.09.25.21l.47,3.15,2.3,2.01s.04.04.05.06l.94,1.57s.04.08.04.13v2.53l.88,1.02s.05.09.06.14l.18,1.64h1.4l.69-.48v-1.44c0-.1.06-.2.16-.23l2.65-1.02v-2.19c0-.14.11-.25.25-.25h1.95l.47-1.96-2.49-2.3c-.09-.09-.11-.23-.03-.33l1.71-2.34-.96-.7c-.06-.05-.1-.12-.1-.2v-1.18s0-.08.03-.11l1.24-2.45c.04-.08.13-.14.22-.14h1.06v-.94h-.95c-.14,0-.25-.11-.25-.25v-3.01c0-.05.02-.1.04-.14l.78-1.13-.93-1.03h-1.75c-.11,0-.2-.07-.24-.17l-1.1-3.11-1.69-.77c-.09-.04-.15-.13-.15-.23v-2.5h-1.2l-2.3,2.92v3.04c0,.14-.11.25-.25.25h-2.75c-.09,0-.17-.05-.22-.12l-2.63-4.52h-4.18c-.1,0-.19-.06-.23-.15l-1.02-2.24h-3.24c-.07,0-.14-.03-.19-.09-.05-.05-.07-.13-.06-.2l.67-5.04h-1.97l-3.06,2.77-.72.65Z"/>
    <path class="cls-3" d="M172.8,244.02l1.02-4.6s.02-.07.04-.1l1.84-2.44v-1.62l-1.62-1.1s-.06-.05-.08-.09l-1.87-3.55-3.5-3.01-4.62,2.89c-.07.05-.17.05-.25.01l-1.11-.57h-2.43l-3.71.84-2.17,1.99s-.06.04-.09.05l-2.19.7-6.63,6.25s-.11.07-.17.07h-1.7c-.09,0-.18-.05-.22-.14l-2.82-5.54-.71,3.64,1.12.88c.06.05.1.12.1.2v1.44c0,.08-.04.16-.1.2l-3.71,2.69v2.23s0,.06-.02.09l-1.57,3.88,2.3.5c.06.01.12.05.16.11.04.06.05.12.03.19l-.81,3.75,1.66,3.17c.03.06.04.13.02.19l-1.09,3.36c-.03.1-.13.17-.24.17h-3.86l-2.61,1.62c-.08.05-.19.05-.27,0l-1.12-.77v6.39l.86.89h4.35c.1,0,.19.06.23.15l2.05,4.96c.02.05.02.11.01.16l-.83,3.03.34.42h2.24c.07,0,.14.03.19.09.05.05.07.13.06.2l-.67,5.04h3.12c.1,0,.19.06.23.15l1.02,2.24h4.16c.09,0,.17.05.22.12l2.63,4.52h2.36v-2.88c0-.06.02-.11.05-.15l2.43-3.09c.05-.06.12-.1.2-.1h1.57c.14,0,.25.11.25.25v2.59l1.64.74c.06.03.11.08.13.14l1.08,3.04h1.68c.07,0,.14.03.19.08l1.07,1.18h2.25c.06,0,.12.02.17.06l3.29,2.94.38-.72v-2.73l-.51-.66c-.04-.06-.06-.13-.05-.2l.69-3.83-.63-6.61c0-.07.01-.13.06-.18l8.21-10.03c.05-.06.12-.09.19-.09h1.88l2.87-2.14-.45-7.18c0-.1.05-.19.13-.24l2.53-1.32v-3.4l-10.75-11.19c-.06-.06-.08-.15-.06-.23Z"/>
    <path class="cls-3" d="M156.8,286.57l1.64.74c.06.03.11.08.13.14-.02-.06-.07-.12-.13-.14l-1.64-.74Z"/>
    <path class="cls-3" d="M191.6,260.51h-.01s-.09-.01-.13-.04l-7.35-4.68v3.19c0,.09-.05.18-.13.22l-2.52,1.32.45,7.16c0,.08-.03.17-.1.22l-3.05,2.27s-.1.05-.15.05h-1.84l-8.07,9.86.63,6.55s0,.05,0,.07l-.68,3.76.5.64s.05.1.05.15v2.88s-.01.08-.03.12l-.47.88.64.58h1.61c.05,0,.11.02.15.05l1.82,1.36h.71l1.48-2.01c.08-.11.24-.13.35-.05l1.15.85,2.27-.99s.07-.02.1-.02h17.15s.08,0,.12.03l2.98,1.55,16.6,1.96,6.84-.76c.1-.01.18.03.23.11l4.1,6.08h2.29l4.45-2.68,1.41-11.48,4.19-34.09-30.69,4.19-17.03.74Z"/>
    <path class="cls-3" d="M195.75,105.22v2.6l5.51,3.13h2.55c.07,0,.14.03.19.08l4.29,4.8h4.99c.05,0,.1.02.14.04l5.54,3.82h4.64c.07,0,.13.03.18.08l3.89,3.99,7.66,2.91c.1.04.16.13.16.23v28.25l8.84,6.99s.04.03.05.05l4.83,6.85s.05.09.05.14v9.69l-9.4,76.44-4.29,34.88-1.31,10.63.71-.43,2.59-6.77s.02-.04.03-.06l9.89-13.04s.05-.05.08-.07l15.63-8.25s.05-.02.08-.03l37.89-5.11,12.17-2.52,51.5-18.44,11.58-38.25-7.79-12.86-3.28,2.95c-.06.05-.14.07-.21.06l-41.95-7.92c-.06-.01-.11-.04-.15-.09l-17.25-21.75s-.05-.1-.05-.16v-2.47l-2.95-1.63-1.55.95c-.08.05-.17.05-.25,0-.08-.04-.13-.13-.13-.22v-1.97s.01-.1.04-.14l2.6-4.01h-.58l-.98,1.54c-.05.07-.13.12-.21.12h-.61c-.14,0-.25-.11-.25-.25v-1.43h-1.49l-1.07,1.01s-.11.07-.17.07h-2.36c-.08,0-.15-.04-.2-.1l-2.75-3.68h-1.19c-.1,0-.19-.06-.23-.15l-2.29-5.53h-.75c-.14,0-.25-.11-.25-.25v-.79l-1.55-6.37h-2.12c-.09,0-.17-.05-.21-.12l-3.53-5.82c-.05-.08-.05-.17,0-.25.04-.08.13-.13.22-.13h.43l-.86-1.2s-.05-.09-.05-.15v-2.32l-2.13-.92c-.09-.04-.15-.13-.15-.23v-3.4c0-.1.06-.19.14-.23.09-.04.19-.03.27.03l1.94,1.62h.69l.87-1.37v-4.09l-3.04-1.47c-.09-.04-.14-.13-.14-.23v-3.93c0-.09.04-.17.12-.21.07-.05.17-.05.24-.01l1.55.79-3.12-3.6h-1.59c-.06,0-.13-.02-.17-.07l-5.58-5.38h-2.91c-.09,0-.17-.04-.21-.12l-3.13-4.99h-.65c-.14,0-.25-.11-.25-.25v-.65c0-.14.11-.25.25-.25h2.41v-.61l-3.04-.94h-.75s-.05,0-.07,0l-3.65-1.06c-.11-.03-.18-.13-.18-.24v-.93h-.67c-.14,0-.25-.11-.25-.25v-2.36c0-.14.11-.25.25-.25h.52l-.9-1.89s-.02-.07-.02-.11v-1.38h-1.71c-.1,0-.19-.06-.23-.15l-1.04-2.41s-.02-.06-.02-.1v-1.73l-1.63-1.75s-.07-.11-.07-.17v-2.99l-1.45-.72h-11.86c-.08,0-.15-.04-.2-.1l-1.97-2.62s-.05-.1-.05-.15v-3.18l-2.46-2.81-16.48-1.81-1.03.66s-.1.04-.16.04l-5.1-.43-9.25,8.35-5.57,10.78-5.11,6.43v3.19l3.94,2.83c.07.05.1.12.1.2Z"/>
    <polygon class="cls-3" points="239.85 255.33 235.56 290.21 239.85 255.32 239.85 255.33"/>
    <path class="cls-3" d="M129.39,76.83s.09,0,.14.01l4.83,1.78,2.38-.84s.05-.01.08-.01h4.19s.05,0,.07.01l6.14,1.86s.08.04.12.07l3.55,4.05h2.31l2.73-1.42s.08-.03.12-.03h1.18c.14,0,.25.11.25.25v2.39l1.29,1.38h3.82c.06,0,.12.02.16.06l1.61,1.4h1.81l3.42-2.5c.06-.04.13-.06.2-.04.07.02.13.06.17.13l5.04,9.43,3.62,3h4.62c.06,0,.12.02.17.06l4.77,4.26,2.16,1.94.85-1.05v-4.1c0-.06.02-.11.05-.16l5.14-6.45,5.56-10.78s.03-.05.05-.07l8.94-8.07-23.57-1.99s-.1-.02-.13-.05l-45.13-36.03-28.73-15.79-21.69-4.27-3.82,3.01s-.06.04-.09.05l-16.86,4.52-1.81,6.36v3.28l5.13,6.01,15.25-1.48,12.94,1.44s.08.02.11.04l4.38,2.98h14.29c.05,0,.1.02.14.04l5.2,3.62h4.22c.06,0,.12.02.16.06l1.89,1.62s.06.06.07.1l.97,2.5,5.04,3.86c.06.05.1.12.1.2v1.05c0,.08-.04.16-.11.21l-20.38,13.09v6.54c0,.06-.02.12-.06.16l-3.01,3.59,2.01,1.24,11.95-2.49Z"/>
    <path class="cls-3" d="M191.26,98.75s-.05.1-.05.16c0-.06.02-.11.05-.16l5.14-6.45,5.56-10.78-5.56,10.78-5.14,6.45Z"/>
    <path class="cls-3" d="M89.97,88.23l8.48-3.82s.07-.02.1-.02h1.9l12.65-6.47s.07-.03.11-.03h1.72l3.06-3.66v-6.59c0-.09.04-.16.11-.21l20.38-13.09v-.79l-4.99-3.83s-.06-.07-.08-.11l-.97-2.51-1.77-1.52h-4.21c-.05,0-.1-.02-.14-.05l-5.2-3.62h-14.29c-.05,0-.1-.02-.14-.04l-4.39-2.98-12.82-1.43-15.33,1.49c-.08,0-.16-.02-.21-.09l-5.27-6.18s-.06-.1-.06-.16v-3.4s0-.05,0-.07l1.74-6.1-16.17,4.34,16.84,18.83c.05.06.07.13.06.2-.01.07-.05.14-.12.18l-5.52,3.39-3.15,6.25c-.04.07-.1.12-.18.13l-12.91,2.31-4.58,7.5s-.04.05-.07.07l-7.19,5.26c-.05.04-.12.05-.19.05l-18.9-3.04-1.91,8.56,6.74.37,2.07-1.67s.08-.05.13-.05l7.67-.9s.06,0,.09,0l5.19,1.37s.09.04.13.08l5.82,6.88,7.72-1.94s.1,0,.15,0l4.62,1.73h4.25l1.64-3.68s.06-.09.1-.11l3.86-2.22c.08-.04.17-.04.25,0,.08.04.12.13.12.22v7.38l2.65,3.5,7.84.83h2.99c.09,0,.17.05.22.12l1.31,2.25h1.24l2.87-1.44c.08-.04.16-.03.24,0l2.05,1.19,1.52-2.61s.07-.08.11-.1Z"/>
    <path class="cls-3" d="M73.94,38.88l-5.27-6.18s-.06-.1-.06-.16c0,.06.02.12.06.16l5.27,6.18Z"/>
    <polygon class="cls-3" points="114.94 77.88 118 74.23 114.94 77.88 114.94 77.88"/>
    <polygon class="cls-3" points="138.5 53.56 133.5 49.73 138.5 53.56 138.5 53.56"/>
    <path class="cls-3" d="M104.25,114.52l4.16-5.04-4.43-3.02c-.05-.03-.09-.09-.1-.15l-2.11-8.43-5.89-4.78-7.5-1.57s-.05-.02-.07-.03l-2.15-1.25-2.81,1.41s-.07.03-.11.03h-1.44c-.09,0-.17-.05-.22-.12l-1.31-2.25h-2.87l-7.97-.84c-.07,0-.13-.04-.17-.1l-2.77-3.65s-.05-.1-.05-.15v-7.03l-3.41,1.97-1.68,3.75c-.04.09-.13.15-.23.15h-4.45s-.06,0-.09-.02l-4.59-1.72-7.8,1.96c-.09.02-.19,0-.25-.08l-5.87-6.94-5.07-1.34-7.55.88-2.09,1.68s-.11.07-.17.05l-6.92-.38-.52,2.34v3.87s0,.07-.02.11l-3.78,8.03,1.15,1.41,1.94-1.57c.06-.05.13-.06.2-.05l7.22,1.3c.07.01.13.05.16.11l5.42,8.19s.04.09.04.14v1.88l2.44,2.98h.67c.09,0,.18.05.22.13l1.43,2.65s.03.08.03.12v1.99l4.02,3.79c.05.05.08.11.08.18v1.48l4.27,5.36s.05.1.05.16v.85l3.98,7.13h2.34c.07,0,.14.03.18.08.05.05.07.12.06.19l-.33,3.52v1.28s1.21,1.08,1.21,1.08h.95c.06,0,.13.02.17.07l2.08,1.99s.05.06.06.09l1.5,3.88,3.57,4.98s.05.09.05.15v1.57l.51,4.53c0,.07-.01.13-.05.18-.04.05-.1.09-.17.09l-1.31.15.12,1.1,4.08,4.72.38-2.78c.02-.12.12-.22.25-.22h3.54l1.6-2.08c.05-.07.14-.11.23-.1l3.12.41,1.27-1.37v-11.44h-1.98c-.12,0-.22-.08-.24-.19l-1.04-4.39-4.18-4.04s-.08-.11-.08-.18v-1.71l-2.84-1.72h-.94l-1.13.76c-.07.05-.15.05-.23.03-.08-.03-.13-.09-.15-.17l-1.56-5.95c-.02-.07,0-.15.04-.21l1.47-2.07v-1.45l-2.53-.95s-.06-.03-.09-.06l-2.16-2.1s-.08-.11-.08-.18v-7.61h-3.02c-.14,0-.25-.11-.25-.25v-1.44c0-.11.07-.2.17-.24l8.03-2.83c.07-.02.14-.02.2.02l3.89,2.16,3.76-2.11s.08-.03.12-.03h1.83c.14,0,.25.11.25.25v1.38l2.65,4.88h3.91c.14,0,.25.11.25.25v1.7l1.63,1.09c.07.05.11.12.11.21v1.71h.59l2.88-1.92c.07-.05.16-.06.24-.02l2.97,1.38v-2.2c0-.14.11-.25.25-.25h.92c.11,0,.21.07.24.17l.69,2.15,5.51,3.19,10.41-1.5c.08,0,.17.02.23.08l1.33,1.54,1.43-4.7s.03-.06.05-.09Z"/>
    <path class="cls-3" d="M140.2,161.37l1.6-1.37v-1.85h-.88c-.07,0-.14-.03-.19-.09l-1.7-1.99s-.06-.1-.06-.16v-1.78l-1.57-3.28-3.34-1.25c-.1-.04-.16-.13-.16-.23v-7.39l-3.65-.78h0l-5.89-1.26h-4.56s-3.35,3.36-3.35,3.36c-.05.05-.11.07-.18.07h-3.89l-5.19,1.68s-.05.01-.08.01c-.04,0-.07,0-.1-.02l-2.27-1.03c-.09-.04-.15-.13-.15-.23v-6.89l-1-2.51s-.02-.08-.02-.12l.91-8.71h-2.21c-.06,0-.11-.02-.16-.05l-1.03-.81c-.05-.04-.09-.1-.09-.17,0-.07.01-.13.05-.18l1.57-1.98v-2.44l-1.47-1.71-10.36,1.49c-.06,0-.11,0-.16-.03l-5.67-3.28c-.05-.03-.09-.08-.11-.14l-.66-2.07h-.48v2.35c0,.09-.04.16-.12.21-.07.05-.16.05-.24.02l-3.2-1.49-2.82,1.88s-.09.04-.14.04h-.92c-.14,0-.25-.11-.25-.25v-1.83l-1.63-1.09c-.07-.05-.11-.12-.11-.21v-1.58h-3.81c-.09,0-.18-.05-.22-.13l-2.75-5.06s-.03-.08-.03-.12v-1.19h-1.52l-3.83,2.14c-.08.04-.17.04-.24,0l-3.91-2.17-7.76,2.73v1.01h3.02c.14,0,.25.11.25.25v7.75l2.04,1.99,2.65,1c.1.04.16.13.16.23v1.7c0,.05-.02.1-.05.14l-1.45,2.04,1.44,5.5.9-.6s.09-.04.14-.04h1.09s.09.01.13.04l3.02,1.83c.07.05.12.13.12.21v1.75l4.16,4.02s.06.08.07.12l1.01,4.27h2.03c.14,0,.25.11.25.25v11.78c0,.06-.02.12-.07.17l-1.42,1.54c-.06.06-.14.09-.22.08l-3.1-.4-1.59,2.07c-.05.06-.12.1-.2.1h-3.45l-.41,3,.92,1.06s.06.1.06.16v1.48l1.27,1.46,1.47.5.48-.84c.04-.07.1-.11.18-.12.07-.01.15.01.21.07l2.48,2.38h1.86c.06,0,.11.02.16.06l9.1,7.49c.06.05.09.12.09.19v1.12l1.61,3.35h1.02c.11,0,.21.08.24.18l.5,1.83,4.6-.54c.09-.01.17.02.22.09l4.54,5.61h4.2c.14,0,.25.11.25.25v1.32h1.02l4.62-1.33s.05,0,.07,0h2.49c.14,0,.25.11.25.25v3.5s0,.06-.02.09l-.99,2.72,2.97,1.08c.1.04.16.13.16.23v4.07h1.93l3.61-1.99c.06-.03.12-.04.19-.02l4.11,1.17,2.53-3.61,8.15-7.08s.05-.03.07-.04l3.02-1.15v-.87l-3.09-1.97c-.07-.05-.12-.13-.12-.21v-.92c0-.09.05-.17.13-.22l7.78-4.36.67-3.67-.72-1.6c-.06-.13,0-.27.13-.33l1.43-.64s.07-.02.1-.02h2.78l.57-8.82c0-.07.04-.13.09-.17Z"/>
    <path class="cls-3" d="M135.91,277.17l.84-3.08-1.95-4.73h-4.28c-.07,0-.13-.03-.18-.08l-1-1.03s-.07-.11-.07-.17v-6.97c0-.09.05-.18.13-.22.08-.04.18-.04.26.01l1.38.94,2.53-1.57s.08-.04.13-.04h3.75l1-3.09-1.65-3.16c-.03-.05-.04-.11-.02-.17l.78-3.59-2.14-.46-.15.38c-.04.09-.13.16-.23.16h-2.99l-2.23,4.21v3.21c0,.14-.11.25-.25.25h-4.06c-.07,0-.13-.03-.18-.08l-3.23-3.43s-.06-.1-.07-.15l-.58-8h-1.89c-.14,0-.25-.11-.25-.25v-2.23c0-.07.03-.14.08-.18l2.21-2.05s.11-.07.17-.07h3.11l2.22-5.37v-3.88c0-.06.02-.12.06-.17l.79-.87c.05-.05.11-.08.18-.08h1.44c.1,0,.19.06.23.15l1.37,3.22h1.93l7.28-1.5s0,0,0,0c0,0,0,0,0,0,0,0,.02,0,.02,0,.04,0,.07,0,.1.02,0,0,.01,0,.02,0,0,0,.01.01.02.02.01,0,.03.01.04.02.01.01.02.03.03.04,0,0,.02.01.02.02l3.08,6.05h1.45l6.6-6.22s.06-.04.1-.06l2.19-.7,2.18-2s.07-.05.11-.06l3.83-.86h2.54s.08,0,.11.02l1.04.53,4.44-2.77-4.63-7.25c-.04-.06-.05-.14-.03-.22l.84-2.44v-5.46c0-.06.02-.11.05-.15l1.22-1.59-.77-12.22h-3.2l-1.67.64c-.06.02-.12.02-.17,0l-2.23-.77c-.1-.04-.17-.13-.17-.24v-4.61l-2.27-2.25h-7.75c-.1,0-.18-.05-.22-.14l-3.7-7.52-1.65-4.44s-.02-.06-.02-.09v-1.73l-2.34-2.33s-.07-.11-.07-.18v-3.29h-2.71l-1.16.52.65,1.44s.03.1.02.15l-.71,3.86c-.01.07-.06.14-.12.17l-7.75,4.34v.63l3.09,1.97c.07.05.12.13.12.21v1.18c0,.1-.06.2-.16.23l-3.14,1.19-8.08,7.01-2.59,3.71c-.05.07-.13.1-.21.1-.02,0-.04,0-.06,0l-4.18-1.19-3.58,1.98s-.08.03-.12.03h-2.24c-.14,0-.25-.11-.25-.25v-4.15l-3.04-1.1c-.06-.02-.11-.07-.14-.13-.03-.06-.03-.13,0-.19l1.06-2.91v-3.2h-2.2l-4.62,1.33s-.05,0-.07,0h-1.31c-.14,0-.25-.11-.25-.25v-1.32h-4.07c-.08,0-.15-.03-.19-.09l-4.53-5.59-4.39.52.8,2.95,1.34,2.04s.04.09.04.14v2.42l5.01,8.21s.04.08.04.13v6.42c0,.14-.11.25-.25.25h-.4v2.98l.92,10.18h.82c.14,0,.25.11.25.25v3.14c0,.14-.11.25-.25.25h-.95l3.54,7.89,7.27,10.29,13.93,7.98s.08.06.1.1l1.87,3.58h2.47c.14,0,.25.11.25.25v3.16l1.72,1.5h.69c.14,0,.25.11.25.25v2.79l2.05,2.43s.06.1.06.16v1.81l1.94,1.06c.06.03.1.09.12.15.02.06.01.13-.02.19l-.47.86v2.05l1.46,1.34c.08.07.1.19.06.29l-.49,1.01v1.44l1.28,1.89h.91c.1,0,.2.07.23.16l1.76,4.79s.02.06.02.09v.8h.83c.14,0,.25.11.25.25v.98l.68,1.11,3.6-3.27-.34-.43c-.05-.06-.07-.15-.05-.22Z"/>
    <path class="cls-3" d="M140.36,233.04s0,0,0,0c0,0,.02,0,.03,0,0,0-.02,0-.02,0Z"/>
    <path class="cls-3" d="M140.62,233.17s-.02-.01-.02-.02c0,0,0,0,0,0,0,0,.02.01.02.02Z"/>
    <path class="cls-3" d="M140.53,233.08s-.01-.02-.02-.02c0,0,0,.01.02.02,0,0,0,0,0,0Z"/>
    <path class="cls-3" d="M116.76,197.58s-.04,0-.06,0l-4.18-1.19,4.18,1.19s.04,0,.06,0Z"/>
    <path class="cls-3" d="M185.13,108.58l.28.19,3.85,2.6c.07.05.11.12.11.21v1.96c0,.08-.04.16-.11.21l-3.87,2.58-1.44,2.57c-.04.08-.13.13-.22.13h-1.98v6.21l5.18,6.81s.05.1.05.15v.65c0,.14-.11.25-.25.25h-.4v1.49l1.28,1.54s.06.1.06.16v3.77c0,.14-.11.25-.25.25h-12.69l-2.02,3.35s-.03.05-.06.07l-2.84,2.32s-.07.04-.11.05l-6.09,1.24-4.06,3.83v2.52h.56c.08,0,.15.03.2.09.05.06.07.14.05.21l-.61,2.68c-.03.11-.13.19-.24.19h-10.61s-.07,0-.1-.02l-4.04-1.77-2.44,2.54v2.48c0,.07-.03.14-.09.19l-1.61,1.38-.58,8.94v3.42l2.34,2.33s.07.11.07.18v1.79l1.63,4.38,3.62,7.36h7.7c.07,0,.13.03.18.07l2.42,2.4s.07.11.07.18v4.54l1.97.68,1.63-.63s.06-.02.09-.02h3.48c.13,0,.24.1.25.23l.79,12.55c0,.06-.01.12-.05.17l-1.23,1.59v5.42s0,.06-.01.08l-.81,2.36,4.69,7.33,3.65,3.14s.04.05.06.07l1.86,3.54,1.68,1.14c.07.05.11.12.11.21v1.83c0,.05-.02.11-.05.15l-1.86,2.47-.98,4.42,10.7,11.15,7.64,4.86,16.93-.73,30.8-4.2,9.38-76.22v-9.58s-4.77-6.75-4.77-6.75l-8.91-7.04c-.06-.05-.1-.12-.1-.2v-28.19l-7.55-2.87s-.06-.03-.09-.06l-3.86-3.96h-4.61c-.05,0-.1-.02-.14-.04l-5.54-3.82h-5.03c-.07,0-.14-.03-.19-.08l-4.29-4.8h-2.51s-.09-.01-.12-.03l-5.69-3.24c-.08-.04-.13-.13-.13-.22v-2.62l-3.54-2.54v.3c0,.06-.02.11-.06.16l-1.07,1.32c-.04.05-.11.09-.17.09,0,0-.01,0-.02,0-.06,0-.12-.02-.17-.06l-2.17-1.94-2.91,3.26v2.65Z"/>
    <polygon class="cls-3" points="184.03 255.16 191.66 260 184.01 255.14 184.03 255.16"/>
    <path class="cls-3" d="M227.44,124.22s-.06-.03-.09-.06l-3.86-3.95,3.86,3.96s.06.05.09.06Z"/>
    <rect class="cls-3" x="205.67" y="216.96" width="76.79" height="0" transform="translate(-1.07 432.72) rotate(-82.99)"/>
    <path class="cls-3" d="M190.4,104.67c-.06,0-.14-.02-.19-.06.05.04.11.06.17.06,0,0,.01,0,.02,0Z"/>
    <polygon class="cls-3" points="188.04 102.67 188.04 102.67 190.22 104.61 188.04 102.67"/>
    <polygon class="cls-3" points="140.02 170.63 140.02 174.04 140.02 170.62 140.02 170.63"/>
    <path class="cls-3" d="M135.85,137.69l3.24-.82-.89-3.57c-.02-.09,0-.19.08-.25l1.42-1.16c.07-.06.17-.07.26-.03l2.64,1.17v-4.98c0-.1.06-.19.14-.23l2.14-1s.07-.02.11-.02h1.23l.37-2.38c0-.06.04-.12.09-.16l9.54-7.56s.04-.03.06-.03l4.62-1.95,1.73-3.14s.06-.08.1-.1l9.04-5.02s.08-.03.12-.03h1.96c.06,0,.12.02.17.07l4.71,4.41h4.75l1.41-1.87-.17-.11c-.07-.05-.11-.12-.11-.21v-2.88c0-.06.02-.12.06-.17l2.97-3.33-4.51-4.03h-4.62c-.06,0-.11-.02-.16-.06l-3.73-3.09s-.05-.05-.06-.07l-4.92-9.22-3.26,2.38s-.09.05-.15.05h-1.99c-.06,0-.12-.02-.16-.06l-1.61-1.4h-3.83c-.07,0-.14-.03-.18-.08l-1.43-1.54s-.07-.11-.07-.17v-2.24h-.87l-2.73,1.42s-.08.03-.12.03h-2.49c-.07,0-.14-.03-.19-.09l-3.58-4.09-6.04-1.83h-4.11l-2.43.86c-.05.02-.11.02-.17,0l-4.85-1.79-11.98,2.5c-.06.01-.13,0-.18-.03l-2.28-1.41h-1.7l-12.65,6.47s-.07.03-.11.03h-1.91l-8.35,3.77-1.43,2.46,7.22,1.51s.08.03.11.05l6,4.87s.07.08.08.13l2.11,8.42,4.57,3.12c.06.04.1.1.11.17,0,.07,0,.14-.05.19l-4.3,5.22-1.53,5.05v2.58c0,.06-.02.11-.05.16l-1.47,1.86.76.6h2.4c.07,0,.14.03.19.08.05.05.07.12.06.19l-.93,8.93,1,2.5s.02.06.02.09v6.78l2.03.93,5.14-1.67s.05-.01.08-.01h3.82l3.35-3.36s.11-.07.18-.07h4.72l5.85,1.24,5.58-2.98Z"/>
    <path class="cls-3" d="M158.48,86.76l-1.43-1.54s-.07-.11-.07-.17c0,.06.02.12.07.17l1.43,1.54Z"/>
    <polygon class="cls-3" points="187.67 102.33 183.16 98.3 187.67 102.33 187.67 102.33"/>
    <polygon class="cls-3" points="184.7 105.66 187.67 102.33 187.67 102.33 184.7 105.66"/>
    <path class="cls-3" d="M133.12,235.04h-2.15c-.1,0-.19-.06-.23-.15l-1.37-3.22h-1.16l-.65.72v3.83s0,.07-.02.1l-2.3,5.57c-.04.09-.13.15-.23.15h-3.17l-2.05,1.91v1.87h1.88c.13,0,.24.1.25.23l.59,8.14,3.1,3.29h3.7v-3.02s0-.08.03-.12l2.33-4.4c.04-.08.13-.13.22-.13h2.98l.17-.42,1.66-4.11v-2.31c0-.08.04-.16.1-.2l3.71-2.69v-1.19l-1.14-.9c-.07-.06-.11-.15-.09-.24l.81-4.13-1.52.31-5.44,1.12Z"/>
    <polygon class="cls-3" points="135.02 249.38 136.69 245.27 135.02 249.38 135.02 249.38"/>
    <polygon class="cls-3" points="134.85 249.8 135.02 249.38 135.02 249.38 134.85 249.8"/>
    <polygon class="cls-3" points="135.02 249.38 135.02 249.38 135.02 249.38 135.02 249.38"/>
    <path class="cls-3" d="M183.82,111.3c-.05.06-.12.1-.2.1h-4.97c-.06,0-.12-.02-.17-.07l-4.71-4.41h-1.8l-8.92,4.96-1.73,3.15s-.07.09-.12.11l-4.67,1.97-9.44,7.48-.39,2.49c-.02.12-.12.21-.25.21h-1.38l-1.94.91v5.21c0,.08-.04.16-.11.21-.07.05-.16.05-.24.02l-2.85-1.27-1.18.96.91,3.66c.03.13-.05.27-.18.3l-3.43.86-5,2.68,3.18.68c.12.02.2.13.2.24v7.42l3.27,1.23c.06.02.11.07.14.13l1.64,3.43s.02.07.02.11v1.74l1.56,1.84h.77v-.12c0-.06.02-.13.07-.17l2.63-2.74c.07-.08.18-.1.28-.06l4.15,1.82h10.35l.49-2.18h-.5c-.14,0-.25-.11-.25-.25v-2.88c0-.07.03-.13.08-.18l4.19-3.95s.08-.05.12-.06l6.1-1.24,2.76-2.25,2.07-3.44c.04-.08.13-.12.21-.12h12.58v-3.43l-1.28-1.54s-.06-.1-.06-.16v-1.83c0-.14.11-.25.25-.25h.4v-.32l-5.18-6.81s-.05-.1-.05-.15v-6.54c0-.14.11-.25.25-.25h2.08l1.4-2.5s.05-.06.08-.09l3.81-2.54v-1.7l-3.54-2.39-1.5,1.99Z"/>
  </g>
  <g>
    <g>
      <path class="cls-1" d="M111.37,218.9c-.02-.44-.05-.97-.05-1.36h-.01c-.11.37-.24.76-.4,1.19l-.56,1.53h-.31l-.51-1.5c-.15-.44-.27-.85-.36-1.22h0c0,.39-.03.92-.06,1.39l-.08,1.35h-.39l.22-3.15h.52l.54,1.52c.13.39.24.73.32,1.06h.01c.08-.32.19-.66.33-1.06l.56-1.52h.52l.2,3.15h-.4l-.08-1.38Z"/>
      <path class="cls-1" d="M113.73,220.28l-.03-.28h-.01c-.13.18-.37.34-.69.34-.46,0-.69-.32-.69-.65,0-.55.48-.84,1.36-.84v-.05c0-.19-.05-.52-.51-.52-.21,0-.43.07-.59.17l-.09-.27c.19-.12.46-.2.74-.2.69,0,.86.47.86.92v.84c0,.2,0,.39.04.54h-.37ZM113.67,219.12c-.45,0-.96.07-.96.51,0,.27.18.39.39.39.29,0,.48-.19.55-.38.01-.04.02-.09.02-.13v-.39Z"/>
      <path class="cls-1" d="M115.14,219.05h0c.06-.08.14-.18.2-.26l.66-.78h.5l-.87.93.99,1.33h-.5l-.78-1.08-.21.23v.85h-.41v-3.31h.41v2.09Z"/>
      <path class="cls-1" d="M117.41,219.05h0c.06-.08.14-.18.2-.26l.66-.78h.49l-.87.93.99,1.33h-.5l-.78-1.08-.21.23v.85h-.41v-3.31h.41v2.09Z"/>
      <path class="cls-1" d="M120.53,220.28l-.03-.28h-.01c-.13.18-.37.34-.69.34-.46,0-.69-.32-.69-.65,0-.55.49-.84,1.36-.84v-.05c0-.19-.05-.52-.51-.52-.21,0-.43.07-.59.17l-.09-.27c.19-.12.46-.2.74-.2.69,0,.86.47.86.92v.84c0,.2,0,.39.04.54h-.37ZM120.47,219.12c-.45,0-.96.07-.96.51,0,.27.18.39.39.39.29,0,.48-.19.55-.38.01-.04.02-.09.02-.13v-.39Z"/>
      <path class="cls-1" d="M121.53,216.96h.41v1.41h0c.07-.12.17-.22.29-.29.12-.07.27-.12.42-.12.3,0,.79.19.79.97v1.34h-.41v-1.3c0-.36-.14-.67-.52-.67-.27,0-.48.19-.55.41-.02.06-.03.12-.03.2v1.36h-.41v-3.31Z"/>
    </g>
    <path class="cls-1" d="M107.22,218.64c0,.53-.43.95-.95.95s-.95-.43-.95-.95.43-.95.95-.95.95.43.95.95Z"/>
  </g>
  <g>
    <g>
      <path class="cls-1" d="M76.93,217.93h.38v1.95c0,.77-.38,1.01-.88,1.01-.14,0-.31-.03-.4-.07l.06-.31c.08.03.19.06.32.06.34,0,.54-.15.54-.72v-1.92Z"/>
      <path class="cls-1" d="M78.13,219.86c0,.51.34.73.72.73.27,0,.44-.05.58-.11l.07.27c-.13.06-.36.13-.7.13-.64,0-1.03-.42-1.03-1.05s.37-1.13.98-1.13c.68,0,.86.6.86.98,0,.08,0,.14-.01.18h-1.47ZM79.25,219.59c0-.24-.1-.62-.53-.62-.38,0-.55.35-.58.62h1.11Z"/>
      <path class="cls-1" d="M81.89,217.77v2.53c0,.19,0,.4.02.54h-.34l-.02-.36h0c-.12.23-.37.41-.71.41-.51,0-.89-.43-.89-1.06,0-.7.43-1.12.94-1.12.32,0,.54.15.63.32h0v-1.25h.38ZM81.51,219.6s0-.11-.02-.16c-.06-.24-.26-.44-.55-.44-.39,0-.63.35-.63.81,0,.42.21.77.62.77.25,0,.49-.17.56-.45.01-.05.02-.1.02-.16v-.36Z"/>
      <path class="cls-1" d="M84.33,217.77v2.53c0,.19,0,.4.02.54h-.34l-.02-.36h0c-.12.23-.37.41-.71.41-.51,0-.89-.43-.89-1.06,0-.7.43-1.12.94-1.12.32,0,.54.15.63.32h0v-1.25h.38ZM83.95,219.6s0-.11-.02-.16c-.06-.24-.26-.44-.55-.44-.39,0-.63.35-.63.81,0,.42.21.77.62.77.25,0,.49-.17.56-.45.01-.05.02-.1.02-.16v-.36Z"/>
      <path class="cls-1" d="M86.11,220.84l-.03-.26h-.01c-.12.16-.34.31-.64.31-.42,0-.64-.3-.64-.6,0-.51.45-.78,1.26-.78v-.04c0-.17-.05-.48-.48-.48-.19,0-.4.06-.54.16l-.09-.25c.17-.11.42-.19.69-.19.64,0,.79.44.79.85v.78c0,.18,0,.36.03.5h-.35ZM86.06,219.77c-.41,0-.89.06-.89.47,0,.25.16.36.36.36.27,0,.44-.17.51-.35.01-.04.02-.08.02-.12v-.36Z"/>
      <path class="cls-1" d="M87.04,217.77h.38v1.3h0c.06-.11.16-.2.27-.27.11-.06.25-.11.39-.11.28,0,.73.17.73.89v1.24h-.38v-1.2c0-.34-.13-.62-.48-.62-.25,0-.44.17-.51.38-.02.05-.03.11-.03.18v1.26h-.38v-3.07Z"/>
    </g>
    <path class="cls-1" d="M91.98,219.67c0,.53-.43.95-.95.95s-.95-.43-.95-.95.43-.95.95-.95.95.43.95.95Z"/>
  </g>
  <g>
    <g>
      <path class="cls-1" d="M117.75,225.14l-.33.99h-.42l1.07-3.15h.49l1.07,3.15h-.43l-.34-.99h-1.12ZM118.78,224.82l-.31-.9c-.07-.21-.12-.39-.16-.57h0c-.05.19-.1.38-.16.57l-.31.91h.95Z"/>
      <path class="cls-1" d="M120.53,223.22v.65h.59v.31h-.59v1.22c0,.28.08.44.31.44.11,0,.19-.01.24-.03l.02.31c-.08.03-.21.06-.36.06-.19,0-.35-.06-.44-.17-.12-.12-.16-.32-.16-.59v-1.23h-.35v-.31h.35v-.54l.4-.11Z"/>
      <path class="cls-1" d="M122.99,223.33h-.96v-.34h2.33v.34h-.96v2.8h-.41v-2.8Z"/>
      <path class="cls-1" d="M125.65,226.13l-.03-.28h-.01c-.13.18-.37.34-.69.34-.46,0-.69-.32-.69-.65,0-.55.48-.84,1.36-.84v-.05c0-.19-.05-.52-.51-.52-.21,0-.43.07-.59.17l-.09-.27c.19-.12.46-.2.74-.2.69,0,.86.47.86.92v.84c0,.2,0,.39.04.54h-.37ZM125.59,224.97c-.45,0-.96.07-.96.51,0,.27.18.39.39.39.29,0,.48-.19.55-.38.01-.04.02-.09.02-.13v-.39Z"/>
      <path class="cls-1" d="M127.11,223.23c0,.14-.1.25-.26.25-.14,0-.25-.11-.25-.25s.11-.26.26-.26.25.11.25.26ZM126.65,226.13v-2.26h.41v2.26h-.41Z"/>
      <path class="cls-1" d="M127.79,226.13v-1.95h-.32v-.31h.32v-.11c0-.32.07-.61.26-.79.15-.15.36-.21.55-.21.14,0,.27.03.35.07l-.06.32c-.06-.03-.14-.05-.26-.05-.35,0-.44.31-.44.65v.12h.55v.31h-.55v1.95h-.41Z"/>
    </g>
    <path class="cls-1" d="M116.13,224.61c0,.53-.43.95-.95.95s-.95-.43-.95-.95.43-.95.95-.95.95.43.95.95Z"/>
  </g>
  <g>
    <g>
      <path class="cls-1" d="M151.04,275.48l-.33.99h-.42l1.07-3.15h.49l1.07,3.15h-.43l-.34-.99h-1.12ZM152.07,275.17l-.31-.9c-.07-.21-.12-.39-.16-.57h0c-.05.19-.1.38-.16.57l-.31.91h.95Z"/>
      <path class="cls-1" d="M153.34,276.47c0-.15.02-.38.02-.58v-2.73h.41v1.42h0c.14-.25.41-.41.77-.41.56,0,.96.47.95,1.15,0,.81-.51,1.21-1.01,1.21-.33,0-.59-.13-.76-.42h-.01l-.02.37h-.35ZM153.76,275.57c0,.05,0,.1.02.15.08.28.32.48.62.48.43,0,.69-.35.69-.87,0-.45-.23-.84-.67-.84-.28,0-.54.19-.62.5,0,.05-.02.1-.02.17v.41Z"/>
      <path class="cls-1" d="M156.01,273.16h.41v1.41h0c.06-.12.17-.22.29-.29.12-.07.27-.12.42-.12.3,0,.79.19.79.97v1.34h-.41v-1.3c0-.36-.14-.67-.52-.67-.27,0-.48.19-.55.41-.02.06-.03.12-.03.2v1.36h-.41v-3.31Z"/>
      <path class="cls-1" d="M159.85,276.47l-.03-.28h-.01c-.13.18-.37.34-.69.34-.46,0-.69-.32-.69-.65,0-.55.49-.84,1.36-.84v-.05c0-.19-.05-.52-.51-.52-.21,0-.43.07-.59.17l-.09-.27c.19-.12.46-.2.74-.2.69,0,.86.47.86.92v.84c0,.2,0,.39.04.54h-.37ZM159.79,275.32c-.45,0-.96.07-.96.51,0,.27.18.39.39.39.29,0,.48-.19.55-.38.01-.04.02-.09.02-.13v-.39Z"/>
    </g>
    <path class="cls-1" d="M149.41,274.95c0,.53-.43.95-.95.95s-.95-.43-.95-.95.43-.95.95-.95.95.43.95.95Z"/>
  </g>
  <g>
    <g>
      <path class="cls-1" d="M152.73,302.25h.41v2.1c0,.84-.41,1.09-.95,1.09-.15,0-.33-.03-.43-.07l.06-.33c.08.03.2.06.34.06.36,0,.58-.16.58-.78v-2.07Z"/>
      <path class="cls-1" d="M154.26,302.5c0,.14-.1.25-.26.25-.14,0-.25-.11-.25-.25s.11-.26.26-.26.25.11.25.26ZM153.8,305.39v-2.26h.41v2.26h-.41Z"/>
      <path class="cls-1" d="M154.64,305.15l1.02-1.33c.1-.12.19-.23.29-.35h0s-1.22,0-1.22,0v-.33h1.72v.26s-1.01,1.31-1.01,1.31c-.09.13-.19.24-.29.36h0s1.32,0,1.32,0v.33h-1.83v-.24Z"/>
      <path class="cls-1" d="M158.14,305.39l-.03-.28h-.01c-.13.18-.37.34-.69.34-.46,0-.69-.32-.69-.65,0-.55.49-.84,1.36-.84v-.05c0-.19-.05-.52-.51-.52-.21,0-.43.06-.59.17l-.09-.27c.19-.12.46-.2.74-.2.69,0,.86.47.86.92v.84c0,.2,0,.39.04.54h-.37ZM158.08,304.24c-.45,0-.96.07-.96.51,0,.27.18.39.39.39.29,0,.48-.19.55-.38.01-.04.02-.09.02-.13v-.39Z"/>
      <path class="cls-1" d="M159.14,303.74c0-.23,0-.42-.02-.61h.36l.02.37h0c.11-.21.37-.42.75-.42.31,0,.8.19.8.96v1.35h-.41v-1.3c0-.36-.14-.67-.52-.67-.27,0-.48.19-.55.42-.02.05-.03.12-.03.19v1.36h-.41v-1.65Z"/>
    </g>
    <path class="cls-1" d="M150.97,303.87c0,.53-.43.95-.95.95s-.95-.43-.95-.95.43-.95.95-.95.95.43.95.95Z"/>
  </g>
  <g>
    <g>
      <path class="cls-1" d="M182.21,293.36v-3.15h.44l1.01,1.59c.23.37.41.7.56,1.02h0c-.04-.42-.05-.81-.05-1.3v-1.32h.38v3.15h-.41l-1-1.6c-.22-.35-.43-.71-.59-1.05h-.01c.02.4.03.78.03,1.3v1.34h-.38Z"/>
      <path class="cls-1" d="M186.52,293.36l-.03-.28h-.01c-.13.18-.37.34-.69.34-.46,0-.69-.32-.69-.65,0-.55.48-.84,1.36-.84v-.05c0-.19-.05-.52-.51-.52-.21,0-.43.07-.59.17l-.09-.27c.19-.12.46-.2.74-.2.69,0,.86.47.86.92v.84c0,.2,0,.39.04.54h-.37ZM186.46,292.21c-.45,0-.96.07-.96.51,0,.27.18.39.39.39.29,0,.48-.19.55-.38.01-.04.02-.09.02-.13v-.39Z"/>
      <path class="cls-1" d="M186.97,294.01c.19-.01.35-.06.45-.17.11-.13.15-.31.15-.85v-1.89h.41v2.05c0,.44-.07.72-.27.93-.18.18-.48.26-.7.26l-.04-.32ZM188.03,290.47c0,.14-.09.25-.26.25-.15,0-.25-.12-.25-.25,0-.14.11-.26.26-.26s.25.11.25.26Z"/>
      <path class="cls-1" d="M188.65,291.8c0-.27,0-.5-.02-.71h.36v.44h.03c.1-.3.35-.49.63-.49.05,0,.08,0,.12.01v.39s-.08-.01-.14-.01c-.29,0-.49.22-.55.53,0,.06-.02.12-.02.19v1.2h-.41v-1.55Z"/>
      <path class="cls-1" d="M191.41,293.36l-.03-.28h-.01c-.13.18-.37.34-.69.34-.46,0-.69-.32-.69-.65,0-.55.48-.84,1.36-.84v-.05c0-.19-.05-.52-.51-.52-.21,0-.43.07-.59.17l-.09-.27c.19-.12.46-.2.74-.2.69,0,.86.47.86.92v.84c0,.2,0,.39.04.54h-.37ZM191.35,292.21c-.45,0-.96.07-.96.51,0,.27.18.39.39.39.29,0,.48-.19.55-.38.01-.04.02-.09.02-.13v-.39Z"/>
      <path class="cls-1" d="M192.41,291.71c0-.23,0-.42-.02-.61h.36l.02.37h0c.11-.21.37-.42.75-.42.31,0,.8.19.8.96v1.35h-.41v-1.3c0-.36-.14-.67-.52-.67-.27,0-.48.19-.55.42-.02.05-.03.12-.03.19v1.36h-.41v-1.65Z"/>
    </g>
    <path class="cls-1" d="M181.1,291.84c0,.53-.43.95-.95.95s-.95-.43-.95-.95.43-.95.95-.95.95.43.95.95Z"/>
  </g>
  <g>
    <g>
      <path class="cls-1" d="M227.92,182.66l-.33.99h-.42l1.07-3.15h.49l1.07,3.15h-.43l-.34-.99h-1.12ZM228.96,182.34l-.31-.91c-.07-.21-.12-.39-.16-.57h0c-.05.19-.1.38-.16.57l-.31.91h.95Z"/>
      <path class="cls-1" d="M230.25,180.34h.41v3.31h-.41v-3.31Z"/>
      <path class="cls-1" d="M232.76,180.5v1.32h1.52v-1.32h.41v3.15h-.41v-1.47h-1.52v1.47h-.41v-3.15h.41Z"/>
      <path class="cls-1" d="M235.88,180.76c0,.14-.1.25-.26.25-.14,0-.25-.11-.25-.25s.11-.26.26-.26.25.11.25.26ZM235.43,183.65v-2.26h.41v2.26h-.41Z"/>
      <path class="cls-1" d="M236.52,180.34h.41v3.31h-.41v-3.31Z"/>
      <path class="cls-1" d="M237.62,180.34h.41v3.31h-.41v-3.31Z"/>
      <path class="cls-1" d="M239.97,183.65l-.03-.28h-.01c-.13.18-.37.34-.69.34-.46,0-.69-.32-.69-.65,0-.55.48-.84,1.36-.84v-.05c0-.19-.05-.52-.51-.52-.21,0-.43.07-.59.17l-.09-.27c.19-.12.46-.2.74-.2.69,0,.86.47.86.92v.84c0,.2,0,.39.04.54h-.37ZM239.91,182.5c-.45,0-.96.07-.96.51,0,.27.18.39.39.39.29,0,.48-.19.55-.38.01-.04.02-.09.02-.13v-.39Z"/>
      <path class="cls-1" d="M240.97,180.34h.41v1.41h0c.07-.12.17-.22.29-.29.12-.07.27-.12.42-.12.3,0,.79.19.79.97v1.34h-.41v-1.3c0-.36-.14-.67-.52-.67-.27,0-.48.19-.55.41-.02.06-.03.12-.03.2v1.36h-.41v-3.31Z"/>
    </g>
    <path class="cls-1" d="M226.3,182.13c0,.53-.43.95-.95.95s-.95-.43-.95-.95.43-.95.95-.95.95.43.95.95Z"/>
  </g>
  <g>
    <g>
      <path class="cls-1" d="M233.83,171.12l-.33.99h-.42l1.07-3.15h.49l1.07,3.15h-.43l-.34-.99h-1.12ZM234.86,170.81l-.31-.9c-.07-.21-.12-.39-.16-.57h0c-.05.19-.1.38-.16.57l-.31.91h.95Z"/>
      <path class="cls-1" d="M236.15,168.8h.41v3.31h-.41v-3.31Z"/>
      <path class="cls-1" d="M238.26,168.97h.41v1.52h.01c.08-.12.17-.23.25-.34l.96-1.18h.5l-1.14,1.33,1.23,1.81h-.48l-1.04-1.54-.3.35v1.2h-.41v-3.15Z"/>
      <path class="cls-1" d="M240.82,168.8h.41v1.41h0c.06-.12.17-.22.29-.29.12-.07.27-.12.42-.12.3,0,.79.19.79.97v1.34h-.41v-1.3c0-.36-.14-.67-.52-.67-.27,0-.48.19-.55.41-.02.06-.03.12-.03.2v1.36h-.41v-3.31Z"/>
      <path class="cls-1" d="M244.66,172.11l-.03-.28h-.01c-.13.18-.37.34-.69.34-.46,0-.69-.32-.69-.65,0-.55.49-.84,1.36-.84v-.05c0-.19-.05-.52-.51-.52-.21,0-.43.07-.59.17l-.09-.27c.19-.12.46-.2.74-.2.69,0,.86.47.86.92v.84c0,.2,0,.39.04.54h-.37ZM244.6,170.96c-.45,0-.96.07-.96.51,0,.27.18.39.39.39.29,0,.48-.19.55-.38.01-.04.02-.09.02-.13v-.39Z"/>
      <path class="cls-1" d="M245.66,170.56c0-.27,0-.49-.02-.7h.36v.44h.03c.1-.3.35-.49.63-.49.05,0,.08,0,.12.01v.39s-.08-.01-.14-.01c-.29,0-.49.22-.55.53,0,.06-.02.12-.02.19v1.2h-.41v-1.55Z"/>
      <path class="cls-1" d="M246.64,172.77c.19-.01.35-.07.45-.17.11-.13.15-.31.15-.85v-1.89h.41v2.05c0,.44-.07.72-.27.93-.18.18-.48.26-.7.26l-.04-.32ZM247.7,169.22c0,.14-.09.25-.26.25-.15,0-.25-.12-.25-.25,0-.14.11-.26.26-.26s.25.11.25.26Z"/>
    </g>
    <path class="cls-1" d="M232.21,170.6c0,.53-.43.95-.95.95s-.95-.43-.95-.95.43-.95.95-.95.95.43.95.95Z"/>
  </g>
  <g>
    <g>
      <path class="cls-1" d="M268.08,153.22l-.33.99h-.42l1.07-3.14h.49l1.07,3.14h-.43l-.34-.99h-1.12ZM269.12,152.9l-.31-.91c-.07-.21-.12-.39-.16-.57h0c-.05.19-.1.38-.16.57l-.31.91h.95Z"/>
      <path class="cls-1" d="M270.4,150.89h.41v3.31h-.41v-3.31Z"/>
      <path class="cls-1" d="M272.92,151.06v1.32h1.52v-1.32h.41v3.14h-.41v-1.47h-1.52v1.47h-.41v-3.14h.41Z"/>
      <path class="cls-1" d="M277.43,153.59c0,.23,0,.44.02.62h-.36l-.02-.37h0c-.11.18-.35.42-.75.42-.35,0-.78-.2-.78-.99v-1.32h.41v1.25c0,.43.13.72.5.72.28,0,.47-.19.54-.37.02-.06.04-.14.04-.21v-1.39h.41v1.64Z"/>
      <path class="cls-1" d="M278.15,154.21v-1.95h-.32v-.31h.32v-.11c0-.32.07-.61.26-.79.15-.15.36-.21.55-.21.15,0,.27.03.35.07l-.06.32c-.06-.03-.14-.05-.26-.05-.35,0-.44.31-.44.65v.12h.55v.31h-.55v1.95h-.41Z"/>
      <path class="cls-1" d="M281.37,153.59c0,.23,0,.44.02.62h-.36l-.02-.37h0c-.11.18-.35.42-.75.42-.35,0-.78-.2-.78-.99v-1.32h.41v1.25c0,.43.13.72.5.72.28,0,.47-.19.54-.37.02-.06.04-.14.04-.21v-1.39h.41v1.64Z"/>
      <path class="cls-1" d="M282.09,154.21v-1.95h-.32v-.31h.32v-.11c0-.32.07-.61.26-.79.15-.15.36-.21.55-.21.14,0,.27.03.35.07l-.06.32c-.06-.03-.14-.05-.26-.05-.35,0-.44.31-.44.65v.12h.55v.31h-.55v1.95h-.41Z"/>
    </g>
    <path class="cls-1" d="M276.62,148.23c0,.53-.43.95-.95.95s-.95-.43-.95-.95.43-.95.95-.95.95.43.95.95Z"/>
  </g>
  <g>
    <g>
      <path class="cls-1" d="M258.52,142.47l-.33.99h-.42l1.07-3.15h.49l1.07,3.15h-.43l-.34-.99h-1.12ZM259.55,142.15l-.31-.91c-.07-.21-.12-.39-.16-.57h0c-.05.19-.1.38-.16.57l-.31.91h.95Z"/>
      <path class="cls-1" d="M260.84,140.14h.41v3.31h-.41v-3.31Z"/>
      <path class="cls-1" d="M265.6,142.07c-.02-.44-.05-.97-.05-1.36h-.01c-.11.37-.24.76-.4,1.19l-.56,1.53h-.31l-.51-1.5c-.15-.44-.28-.85-.36-1.22h0c0,.39-.03.92-.06,1.39l-.08,1.35h-.39l.22-3.15h.52l.54,1.52c.13.39.24.73.32,1.06h.01c.08-.32.19-.66.33-1.06l.56-1.52h.52l.2,3.15h-.4l-.08-1.38Z"/>
      <path class="cls-1" d="M268.59,142.84c0,.23,0,.44.02.62h-.36l-.02-.37h0c-.11.18-.35.42-.75.42-.35,0-.78-.2-.78-.99v-1.32h.41v1.25c0,.43.13.72.5.72.28,0,.47-.19.54-.37.02-.06.04-.14.04-.21v-1.39h.41v1.64Z"/>
      <path class="cls-1" d="M269.25,143.46c0-.15.02-.38.02-.58v-2.73h.41v1.42h0c.14-.25.41-.41.77-.41.56,0,.96.47.95,1.15,0,.81-.51,1.21-1.01,1.21-.33,0-.59-.13-.76-.42h-.01l-.02.37h-.35ZM269.68,142.55c0,.05,0,.1.02.15.08.28.32.48.62.48.43,0,.69-.35.69-.87,0-.45-.23-.84-.67-.84-.28,0-.54.19-.62.5,0,.05-.02.1-.02.17v.41Z"/>
      <path class="cls-1" d="M273.18,143.46l-.03-.28h-.01c-.13.18-.37.34-.69.34-.46,0-.69-.32-.69-.65,0-.55.48-.84,1.36-.84v-.05c0-.19-.05-.52-.51-.52-.21,0-.43.07-.59.17l-.09-.27c.19-.12.46-.2.74-.2.69,0,.86.47.86.92v.84c0,.2,0,.39.04.54h-.37ZM273.12,142.3c-.45,0-.96.07-.96.51,0,.27.18.39.39.39.29,0,.48-.19.55-.38.01-.04.02-.09.02-.13v-.39Z"/>
      <path class="cls-1" d="M274.18,141.9c0-.27,0-.5-.02-.7h.36v.44h.03c.1-.3.35-.49.63-.49.05,0,.08,0,.12.01v.39s-.08-.01-.14-.01c-.29,0-.49.22-.55.53,0,.06-.02.12-.02.19v1.2h-.41v-1.55Z"/>
      <path class="cls-1" d="M275.72,141.9c0-.27,0-.5-.02-.7h.36v.44h.03c.1-.3.35-.49.63-.49.05,0,.08,0,.12.01v.39s-.08-.01-.14-.01c-.29,0-.49.22-.55.53,0,.06-.02.12-.02.19v1.2h-.41v-1.55Z"/>
      <path class="cls-1" d="M278.48,143.46l-.03-.28h-.01c-.13.18-.37.34-.69.34-.46,0-.69-.32-.69-.65,0-.55.49-.84,1.36-.84v-.05c0-.19-.05-.52-.51-.52-.21,0-.43.07-.59.17l-.09-.27c.19-.12.46-.2.74-.2.69,0,.86.47.86.92v.84c0,.2,0,.39.04.54h-.37ZM278.42,142.3c-.45,0-.96.07-.96.51,0,.27.18.39.39.39.29,0,.48-.19.55-.38.01-.04.02-.09.02-.13v-.39Z"/>
      <path class="cls-1" d="M279.22,143.22l1.02-1.33c.1-.12.19-.23.29-.35h0s-1.22,0-1.22,0v-.33h1.72v.26s-1.01,1.31-1.01,1.31c-.09.13-.19.24-.29.35h0s1.32,0,1.32,0v.33h-1.83v-.24Z"/>
    </g>
    <path class="cls-1" d="M276.44,145.98c0,.53-.43.95-.95.95s-.95-.43-.95-.95.43-.95.95-.95.95.43.95.95Z"/>
  </g>
  <g>
    <g>
      <path class="cls-1" d="M275.56,111.51l-.33.99h-.42l1.07-3.15h.49l1.07,3.15h-.43l-.34-.99h-1.12ZM276.59,111.2l-.31-.91c-.07-.21-.12-.39-.16-.57h0c-.05.19-.1.38-.16.57l-.31.91h.95Z"/>
      <path class="cls-1" d="M277.88,109.19h.41v3.31h-.41v-3.31Z"/>
      <path class="cls-1" d="M280.63,109.36h.41v2.1c0,.84-.41,1.09-.95,1.09-.15,0-.33-.03-.43-.07l.06-.33c.08.03.21.06.34.06.36,0,.58-.16.58-.78v-2.07Z"/>
      <path class="cls-1" d="M283.59,111.89c0,.23,0,.44.02.62h-.36l-.02-.37h0c-.11.18-.35.42-.75.42-.35,0-.78-.2-.78-.99v-1.32h.41v1.25c0,.43.13.72.5.72.28,0,.47-.19.54-.37.02-.06.04-.14.04-.21v-1.39h.41v1.64Z"/>
      <path class="cls-1" d="M284.25,112.5c0-.15.02-.38.02-.58v-2.73h.41v1.42h0c.14-.25.41-.42.77-.42.56,0,.96.47.95,1.15,0,.81-.51,1.21-1.01,1.21-.33,0-.59-.13-.76-.42h-.01l-.02.37h-.35ZM284.67,111.6c0,.05,0,.1.02.15.08.28.32.48.62.48.43,0,.69-.35.69-.87,0-.45-.23-.84-.67-.84-.28,0-.54.19-.62.5,0,.05-.02.1-.02.17v.41Z"/>
      <path class="cls-1" d="M288.18,112.5l-.03-.28h-.01c-.13.18-.37.34-.69.34-.46,0-.69-.32-.69-.65,0-.55.49-.85,1.36-.84v-.05c0-.19-.05-.52-.51-.52-.21,0-.43.07-.59.17l-.09-.27c.19-.12.46-.2.74-.2.69,0,.86.47.86.92v.84c0,.2,0,.39.04.54h-.37ZM288.12,111.35c-.45,0-.96.07-.96.51,0,.27.18.39.39.39.29,0,.48-.19.55-.38.01-.04.02-.09.02-.13v-.39Z"/>
      <path class="cls-1" d="M289.29,110.25l.5,1.33c.05.15.11.33.14.46h0c.04-.14.09-.31.14-.47l.45-1.33h.43l-.62,1.61c-.29.77-.49,1.17-.77,1.41-.2.18-.4.25-.5.27l-.1-.35c.1-.03.24-.1.36-.2.11-.09.25-.25.35-.46.02-.04.03-.07.03-.1s0-.06-.03-.11l-.84-2.08h.45Z"/>
      <path class="cls-1" d="M291.34,109.19h.41v3.31h-.41v-3.31Z"/>
    </g>
    <path class="cls-1" d="M273.31,112.5c0,.53-.43.95-.95.95s-.95-.43-.95-.95.43-.95.95-.95.95.43.95.95Z"/>
  </g>
  <g>
    <g>
      <path class="cls-1" d="M282.54,122.9l-.33.99h-.42l1.07-3.15h.49l1.07,3.15h-.43l-.34-.99h-1.12ZM283.57,122.59l-.31-.91c-.07-.21-.12-.39-.16-.57h0c-.05.19-.1.38-.16.57l-.31.91h.95Z"/>
      <path class="cls-1" d="M286.76,120.58v2.73c0,.2,0,.43.02.58h-.37l-.02-.39h0c-.13.25-.4.44-.77.44-.55,0-.97-.46-.97-1.15,0-.75.46-1.21,1.01-1.21.35,0,.58.16.68.35h0v-1.35h.41ZM286.35,122.55c0-.05,0-.12-.02-.17-.06-.26-.28-.48-.59-.48-.42,0-.68.37-.68.87,0,.46.22.84.67.84.28,0,.53-.18.6-.49.01-.06.02-.11.02-.18v-.39Z"/>
      <path class="cls-1" d="M288.45,120.79c.25-.04.54-.07.86-.07.58,0,1,.14,1.27.39.28.26.44.62.44,1.13s-.16.93-.45,1.22c-.29.29-.78.45-1.39.45-.29,0-.53-.01-.74-.04v-3.09ZM288.86,123.57c.1.02.25.02.41.02.87,0,1.34-.49,1.34-1.34,0-.74-.42-1.21-1.27-1.21-.21,0-.37.02-.48.04v2.48Z"/>
      <path class="cls-1" d="M292.8,123.89l-.03-.28h-.01c-.13.18-.37.34-.69.34-.46,0-.69-.32-.69-.65,0-.55.49-.84,1.36-.84v-.05c0-.19-.05-.52-.51-.52-.21,0-.43.06-.59.17l-.09-.27c.19-.12.46-.2.74-.2.69,0,.86.47.86.92v.84c0,.2,0,.39.04.54h-.37ZM292.74,122.74c-.45,0-.96.07-.96.51,0,.27.18.39.39.39.29,0,.48-.19.55-.38.01-.04.02-.09.02-.13v-.39Z"/>
      <path class="cls-1" d="M293.8,122.25c0-.23,0-.42-.02-.61h.36l.02.36h.01c.13-.21.34-.41.71-.41.31,0,.54.19.64.45h0c.07-.13.16-.22.25-.29.14-.1.28-.16.5-.16.3,0,.74.2.74.98v1.33h-.4v-1.28c0-.43-.16-.7-.49-.7-.23,0-.41.17-.49.37-.02.06-.03.13-.03.21v1.4h-.4v-1.35c0-.36-.16-.62-.47-.62-.26,0-.44.21-.51.41-.02.06-.03.13-.03.2v1.36h-.4v-1.65Z"/>
      <path class="cls-1" d="M297.69,122.25c0-.23,0-.42-.02-.61h.36l.02.36h.01c.13-.21.34-.41.71-.41.31,0,.54.19.64.45h0c.07-.13.16-.22.25-.29.14-.1.28-.16.5-.16.3,0,.74.2.74.98v1.33h-.4v-1.28c0-.43-.16-.7-.49-.7-.23,0-.42.17-.49.37-.02.06-.03.13-.03.21v1.4h-.4v-1.35c0-.36-.16-.62-.47-.62-.26,0-.44.21-.51.41-.02.06-.03.13-.03.2v1.36h-.4v-1.65Z"/>
      <path class="cls-1" d="M302.84,123.89l-.03-.28h-.01c-.13.18-.37.34-.69.34-.46,0-.69-.32-.69-.65,0-.55.49-.84,1.36-.84v-.05c0-.19-.05-.52-.51-.52-.21,0-.43.06-.59.17l-.09-.27c.19-.12.46-.2.74-.2.69,0,.86.47.86.92v.84c0,.2,0,.39.04.54h-.37ZM302.77,122.74c-.45,0-.96.07-.96.51,0,.27.18.39.39.39.29,0,.48-.19.55-.38.01-.04.02-.09.02-.13v-.39Z"/>
      <path class="cls-1" d="M303.83,122.25c0-.23,0-.42-.02-.61h.36l.02.37h0c.11-.21.37-.42.75-.42.31,0,.8.19.8.96v1.35h-.41v-1.3c0-.36-.14-.67-.52-.67-.27,0-.48.19-.55.42-.02.05-.03.12-.03.19v1.36h-.41v-1.65Z"/>
    </g>
    <path class="cls-1" d="M280.29,122.96c0,.53-.43.95-.95.95s-.95-.43-.95-.95.43-.95.95-.95.95.43.95.95Z"/>
  </g>
  <g>
    <g>
      <path class="cls-1" d="M203.31,86.29v1.32h1.52v-1.32h.41v3.15h-.41v-1.47h-1.52v1.47h-.41v-3.15h.41Z"/>
      <path class="cls-1" d="M207.18,89.43l-.03-.28h-.01c-.13.18-.37.34-.69.34-.46,0-.69-.32-.69-.65,0-.55.48-.85,1.36-.84v-.05c0-.19-.05-.52-.51-.52-.21,0-.43.07-.59.17l-.09-.27c.19-.12.46-.2.74-.2.69,0,.86.47.86.92v.84c0,.2,0,.39.04.54h-.37ZM207.12,88.28c-.45,0-.96.07-.96.51,0,.27.18.39.39.39.29,0,.48-.19.55-.38.01-.04.02-.09.02-.13v-.39Z"/>
      <path class="cls-1" d="M208.22,89.43v-1.95h-.32v-.31h.32v-.11c0-.32.07-.61.26-.79.15-.15.36-.21.55-.21.14,0,.27.03.35.07l-.06.32c-.06-.03-.14-.05-.26-.05-.35,0-.44.31-.44.65v.12h.55v.31h-.55v1.95h-.41Z"/>
      <path class="cls-1" d="M210.8,89.43l-.03-.28h-.01c-.13.18-.37.34-.69.34-.46,0-.69-.32-.69-.65,0-.55.48-.85,1.36-.84v-.05c0-.19-.05-.52-.51-.52-.21,0-.43.07-.59.17l-.09-.27c.19-.12.46-.2.74-.2.69,0,.86.47.86.92v.84c0,.2,0,.39.04.54h-.37ZM210.73,88.28c-.45,0-.96.07-.96.51,0,.27.18.39.39.39.29,0,.48-.19.55-.38.01-.04.02-.09.02-.13v-.39Z"/>
      <path class="cls-1" d="M211.79,87.88c0-.27,0-.5-.02-.71h.36v.44h.03c.1-.3.35-.49.63-.49.05,0,.08,0,.12.01v.39s-.08-.01-.14-.01c-.29,0-.49.22-.55.53,0,.06-.02.12-.02.19v1.2h-.41v-1.55Z"/>
      <path class="cls-1" d="M215.56,89.43l-.03-.28h-.01c-.13.18-.37.34-.69.34-.46,0-.69-.32-.69-.65,0-.55.48-.85,1.36-.84v-.05c0-.19-.05-.52-.51-.52-.21,0-.43.07-.59.17l-.09-.27c.19-.12.46-.2.74-.2.69,0,.86.47.86.92v.84c0,.2,0,.39.04.54h-.37ZM215.5,88.28c-.45,0-.96.07-.96.51,0,.27.18.39.39.39.29,0,.48-.19.55-.38.01-.04.02-.09.02-.13v-.39Z"/>
      <path class="cls-1" d="M216.56,86.12h.41v3.31h-.41v-3.31Z"/>
      <path class="cls-1" d="M218.67,86.33c.18-.04.46-.07.74-.07.41,0,.67.07.86.23.16.12.26.31.26.56,0,.3-.2.57-.53.69h0c.3.08.65.33.65.8,0,.27-.11.48-.27.63-.22.2-.57.29-1.09.29-.28,0-.5-.02-.63-.04v-3.09ZM219.07,87.62h.37c.43,0,.68-.22.68-.53,0-.37-.28-.51-.69-.51-.19,0-.29.01-.36.03v1.01ZM219.07,89.12c.08.01.2.02.34.02.42,0,.81-.15.81-.61,0-.43-.37-.61-.81-.61h-.34v1.2Z"/>
      <path class="cls-1" d="M222.43,89.43l-.03-.28h-.01c-.13.18-.37.34-.69.34-.46,0-.69-.32-.69-.65,0-.55.49-.85,1.36-.84v-.05c0-.19-.05-.52-.51-.52-.21,0-.43.07-.59.17l-.09-.27c.19-.12.46-.2.74-.2.69,0,.86.47.86.92v.84c0,.2,0,.39.04.54h-.37ZM222.37,88.28c-.45,0-.96.07-.96.51,0,.27.18.39.39.39.29,0,.48-.19.55-.38.01-.04.02-.09.02-.13v-.39Z"/>
      <path class="cls-1" d="M223.91,86.53v.65h.59v.31h-.59v1.22c0,.28.08.44.31.44.11,0,.19-.01.24-.03l.02.31c-.08.03-.21.06-.36.06-.19,0-.35-.06-.44-.17-.12-.12-.16-.32-.16-.59v-1.23h-.35v-.31h.35v-.54l.4-.11Z"/>
      <path class="cls-1" d="M225.42,86.54c0,.14-.1.25-.26.25-.14,0-.25-.11-.25-.25s.11-.26.26-.26.25.11.25.26ZM224.96,89.43v-2.26h.41v2.26h-.41Z"/>
      <path class="cls-1" d="M226.05,87.78c0-.23,0-.42-.02-.61h.36l.02.37h0c.11-.21.37-.42.75-.42.31,0,.8.19.8.96v1.35h-.41v-1.3c0-.36-.14-.67-.52-.67-.27,0-.48.19-.55.42-.02.05-.03.12-.03.19v1.36h-.41v-1.65Z"/>
    </g>
    <path class="cls-1" d="M213.3,83.83c0,.53-.43.95-.95.95s-.95-.43-.95-.95.43-.95.95-.95.95.43.95.95Z"/>
  </g>
  <g>
    <g>
      <path class="cls-1" d="M162.77,123.4c.18-.04.46-.07.74-.07.41,0,.67.07.86.23.16.12.26.31.26.56,0,.3-.2.57-.53.69h0c.3.08.65.33.65.8,0,.27-.11.48-.27.63-.22.2-.57.29-1.09.29-.28,0-.49-.02-.63-.04v-3.09ZM163.17,124.69h.37c.43,0,.68-.22.68-.53,0-.37-.28-.51-.69-.51-.19,0-.29.01-.36.03v1.01ZM163.17,126.2c.08.01.2.02.34.02.42,0,.81-.15.81-.61,0-.43-.37-.61-.81-.61h-.34v1.2Z"/>
      <path class="cls-1" d="M167.17,125.89c0,.23,0,.44.02.62h-.36l-.02-.37h0c-.11.18-.35.42-.75.42-.35,0-.78-.2-.78-.99v-1.32h.41v1.25c0,.43.13.72.5.72.28,0,.47-.19.54-.37.02-.06.04-.13.04-.21v-1.39h.41v1.64Z"/>
      <path class="cls-1" d="M167.85,124.95c0-.27,0-.5-.02-.7h.36v.44h.03c.1-.3.35-.49.63-.49.05,0,.08,0,.12.01v.39s-.08-.01-.14-.01c-.29,0-.49.22-.55.53,0,.06-.02.12-.02.19v1.2h-.41v-1.55Z"/>
      <path class="cls-1" d="M170.61,126.5l-.03-.28h-.01c-.13.18-.37.34-.69.34-.46,0-.69-.32-.69-.65,0-.55.49-.84,1.36-.84v-.05c0-.19-.05-.52-.51-.52-.21,0-.43.07-.59.17l-.09-.27c.19-.12.46-.2.74-.2.69,0,.86.47.86.92v.84c0,.2,0,.39.04.54h-.37ZM170.55,125.35c-.45,0-.96.07-.96.51,0,.27.18.39.39.39.29,0,.48-.19.55-.38.01-.04.02-.09.02-.13v-.39Z"/>
      <path class="cls-1" d="M171.72,124.25l.49,1.33c.05.15.11.33.14.46h0c.04-.14.09-.31.14-.47l.45-1.33h.43l-.62,1.61c-.29.77-.49,1.17-.77,1.41-.2.18-.4.25-.5.27l-.1-.35c.1-.03.24-.1.36-.2.11-.09.25-.25.34-.46.02-.04.03-.07.03-.1s0-.06-.03-.11l-.84-2.08h.45Z"/>
      <path class="cls-1" d="M175.67,123.19v2.73c0,.2,0,.43.02.58h-.37l-.02-.39h0c-.13.25-.4.44-.77.44-.55,0-.97-.46-.97-1.15,0-.75.46-1.21,1.01-1.21.35,0,.58.16.68.35h0v-1.35h.41ZM175.26,125.16c0-.05,0-.12-.02-.17-.06-.26-.28-.48-.59-.48-.42,0-.68.37-.68.87,0,.46.22.84.67.84.27,0,.53-.18.6-.49.01-.06.02-.11.02-.18v-.39Z"/>
      <path class="cls-1" d="M177.61,126.5l-.03-.28h-.01c-.13.18-.37.34-.69.34-.46,0-.69-.32-.69-.65,0-.55.48-.84,1.36-.84v-.05c0-.19-.05-.52-.51-.52-.21,0-.43.07-.59.17l-.09-.27c.19-.12.46-.2.74-.2.69,0,.86.47.86.92v.84c0,.2,0,.39.04.54h-.37ZM177.55,125.35c-.45,0-.96.07-.96.51,0,.27.18.39.39.39.29,0,.48-.19.55-.38.01-.04.02-.09.02-.13v-.39Z"/>
      <path class="cls-1" d="M178.61,123.19h.41v1.41h0c.06-.12.17-.22.29-.29.12-.07.27-.12.42-.12.3,0,.79.19.79.97v1.34h-.41v-1.3c0-.36-.14-.67-.52-.67-.27,0-.48.19-.55.41-.02.06-.03.12-.03.2v1.36h-.41v-3.31Z"/>
    </g>
    <path class="cls-1" d="M174.57,121.85c0,.53-.43.95-.95.95s-.95-.43-.95-.95.43-.95.95-.95.95.43.95.95Z"/>
  </g>
  <g>
    <g>
      <path class="cls-1" d="M133.02,102.22v1.32h1.52v-1.32h.41v3.15h-.41v-1.47h-1.52v1.47h-.41v-3.15h.41Z"/>
      <path class="cls-1" d="M136.89,105.37l-.03-.28h-.01c-.13.18-.37.34-.69.34-.46,0-.69-.32-.69-.65,0-.55.49-.85,1.36-.84v-.05c0-.19-.05-.52-.51-.52-.21,0-.43.07-.59.17l-.09-.27c.19-.12.46-.2.74-.2.69,0,.86.47.86.92v.84c0,.2,0,.39.04.54h-.37ZM136.83,104.22c-.45,0-.96.07-.96.51,0,.27.18.39.39.39.29,0,.48-.19.55-.38.01-.04.02-.09.02-.13v-.39Z"/>
      <path class="cls-1" d="M138.35,102.48c0,.14-.1.25-.26.25-.14,0-.25-.11-.25-.25s.11-.26.26-.26.25.11.25.26ZM137.89,105.37v-2.26h.41v2.26h-.41Z"/>
      <path class="cls-1" d="M138.98,102.05h.41v3.31h-.41v-3.31Z"/>
    </g>
    <path class="cls-1" d="M136.83,100.13c0,.53-.43.95-.95.95s-.95-.43-.95-.95.43-.95.95-.95.95.43.95.95Z"/>
  </g>
  <g>
    <g>
      <path class="cls-1" d="M102.49,157.89c-.02-.44-.05-.97-.05-1.36h-.01c-.11.37-.24.76-.4,1.19l-.56,1.53h-.31l-.51-1.5c-.15-.44-.28-.85-.36-1.22h0c0,.39-.03.92-.06,1.39l-.08,1.35h-.39l.22-3.15h.52l.54,1.52c.13.39.24.73.32,1.06h.01c.08-.32.19-.66.33-1.06l.56-1.52h.52l.2,3.15h-.4l-.08-1.38Z"/>
      <path class="cls-1" d="M103.84,158.22c0,.56.36.78.77.78.29,0,.47-.05.63-.12l.07.29c-.14.07-.39.14-.75.14-.7,0-1.11-.46-1.11-1.14s.4-1.22,1.06-1.22c.74,0,.93.65.93,1.06,0,.08,0,.15-.01.19h-1.59ZM105.04,157.93c0-.26-.11-.67-.57-.67-.42,0-.6.38-.63.67h1.2Z"/>
      <path class="cls-1" d="M107.9,155.96v2.73c0,.2,0,.43.02.58h-.37l-.02-.39h0c-.13.25-.4.44-.77.44-.55,0-.97-.46-.97-1.15,0-.75.46-1.21,1.01-1.21.35,0,.58.16.68.34h0v-1.35h.41ZM107.49,157.94c0-.05,0-.12-.02-.17-.06-.26-.28-.48-.59-.48-.42,0-.68.37-.68.87,0,.46.22.84.67.84.27,0,.53-.18.6-.49.01-.06.02-.11.02-.18v-.39Z"/>
      <path class="cls-1" d="M109.04,156.38c0,.14-.1.25-.26.25-.14,0-.25-.11-.25-.25s.11-.26.26-.26.25.11.25.26ZM108.58,159.28v-2.26h.41v2.26h-.41Z"/>
      <path class="cls-1" d="M109.67,157.63c0-.23,0-.42-.02-.61h.36l.02.37h0c.11-.21.37-.42.75-.42.31,0,.8.19.8.96v1.35h-.41v-1.3c0-.36-.14-.67-.52-.67-.27,0-.48.19-.55.42-.02.05-.03.12-.03.19v1.36h-.41v-1.65Z"/>
      <path class="cls-1" d="M113.52,159.28l-.03-.28h-.01c-.13.18-.37.34-.69.34-.46,0-.69-.32-.69-.65,0-.55.48-.84,1.36-.84v-.05c0-.19-.05-.52-.51-.52-.21,0-.43.07-.59.17l-.09-.27c.19-.12.46-.2.74-.2.69,0,.86.47.86.92v.84c0,.2,0,.39.04.54h-.37ZM113.46,158.12c-.45,0-.96.07-.96.51,0,.27.18.39.39.39.29,0,.48-.19.55-.38.01-.04.02-.09.02-.13v-.39Z"/>
    </g>
    <path class="cls-1" d="M98.61,158.01c0,.53-.43.95-.95.95s-.95-.43-.95-.95.43-.95.95-.95.95.43.95.95Z"/>
  </g>
  <g>
    <g>
      <path class="cls-1" d="M74.02,167.49v-1.33l-.99-1.81h.46l.44.87c.12.24.21.43.31.65h0c.09-.2.2-.41.32-.65l.45-.87h.46l-1.06,1.81v1.34h-.41Z"/>
      <path class="cls-1" d="M76.76,167.49l-.03-.28h-.01c-.13.18-.37.34-.69.34-.46,0-.69-.32-.69-.65,0-.55.49-.84,1.36-.84v-.05c0-.19-.05-.52-.51-.52-.21,0-.43.07-.59.17l-.09-.27c.19-.12.46-.2.74-.2.69,0,.86.47.86.92v.84c0,.2,0,.39.04.54h-.37ZM76.7,166.34c-.45,0-.96.07-.96.51,0,.27.18.39.39.39.29,0,.48-.19.55-.38.01-.04.02-.09.02-.13v-.39Z"/>
      <path class="cls-1" d="M77.76,165.85c0-.23,0-.42-.02-.61h.36l.02.37h0c.11-.21.37-.42.75-.42.31,0,.8.19.8.96v1.35h-.41v-1.3c0-.36-.14-.67-.52-.67-.27,0-.48.19-.55.42-.02.05-.03.12-.03.19v1.36h-.41v-1.65Z"/>
      <path class="cls-1" d="M80.33,167.49c0-.15.02-.38.02-.58v-2.73h.41v1.42h0c.14-.25.41-.41.77-.41.56,0,.96.47.95,1.15,0,.81-.51,1.21-1.01,1.21-.33,0-.59-.13-.76-.42h-.01l-.02.37h-.35ZM80.76,166.59c0,.05,0,.1.02.15.08.28.32.48.62.48.43,0,.69-.35.69-.87,0-.45-.23-.84-.67-.84-.28,0-.54.19-.62.5,0,.05-.02.1-.02.17v.41Z"/>
      <path class="cls-1" d="M84.9,166.88c0,.23,0,.44.02.62h-.36l-.02-.37h0c-.11.18-.35.42-.75.42-.35,0-.78-.2-.78-.99v-1.32h.41v1.25c0,.43.13.72.5.72.28,0,.47-.19.54-.37.02-.06.04-.14.04-.21v-1.39h.41v1.64Z"/>
      <path class="cls-1" d="M87.82,167.49l-.03-.28h-.01c-.13.18-.37.34-.69.34-.46,0-.69-.32-.69-.65,0-.55.48-.84,1.36-.84v-.05c0-.19-.05-.52-.51-.52-.21,0-.43.07-.59.17l-.09-.27c.19-.12.46-.2.74-.2.69,0,.86.47.86.92v.84c0,.2,0,.39.04.54h-.37ZM87.76,166.34c-.45,0-.96.07-.96.51,0,.27.18.39.39.39.29,0,.48-.19.55-.38.01-.04.02-.09.02-.13v-.39Z"/>
      <path class="cls-1" d="M88.82,164.18h.41v3.31h-.41v-3.31Z"/>
      <path class="cls-1" d="M90.93,164.39c.18-.04.46-.07.74-.07.41,0,.67.07.86.23.16.12.26.31.26.56,0,.3-.2.57-.53.69h0c.3.08.65.33.65.8,0,.27-.11.48-.27.63-.22.2-.57.29-1.09.29-.28,0-.5-.02-.63-.04v-3.09ZM91.33,165.68h.37c.43,0,.68-.22.68-.53,0-.37-.28-.51-.69-.51-.19,0-.29.01-.36.03v1.01ZM91.33,167.18c.08.01.2.02.34.02.42,0,.81-.15.81-.61,0-.43-.37-.61-.81-.61h-.34v1.2Z"/>
      <path class="cls-1" d="M94.69,167.49l-.03-.28h-.01c-.13.18-.37.34-.69.34-.46,0-.69-.32-.69-.65,0-.55.49-.84,1.36-.84v-.05c0-.19-.05-.52-.51-.52-.21,0-.43.07-.59.17l-.09-.27c.19-.12.46-.2.74-.2.69,0,.86.47.86.92v.84c0,.2,0,.39.04.54h-.37ZM94.63,166.34c-.45,0-.96.07-.96.51,0,.27.18.39.39.39.29,0,.48-.19.55-.38.01-.04.02-.09.02-.13v-.39Z"/>
      <path class="cls-1" d="M95.69,164.18h.41v1.41h0c.06-.12.17-.22.29-.29.12-.07.27-.12.42-.12.3,0,.79.19.79.97v1.34h-.41v-1.3c0-.36-.14-.67-.52-.67-.27,0-.48.19-.55.41-.02.06-.03.12-.03.2v1.36h-.41v-3.31Z"/>
      <path class="cls-1" d="M98.28,165.94c0-.27,0-.5-.02-.7h.36v.44h.03c.1-.3.35-.49.63-.49.05,0,.08,0,.12.01v.39s-.08-.01-.14-.01c-.29,0-.49.22-.55.53,0,.06-.02.12-.02.19v1.2h-.41v-1.55Z"/>
    </g>
    <path class="cls-1" d="M72.09,166.23c0,.53-.43.95-.95.95s-.95-.43-.95-.95.43-.95.95-.95.95.43.95.95Z"/>
  </g>
  <g>
    <g>
      <path class="cls-1" d="M40.68,87.66h-.96v-.35h2.33v.35h-.96v2.8h-.41v-2.8Z"/>
      <path class="cls-1" d="M43.34,90.46l-.03-.28h-.01c-.13.18-.37.34-.69.34-.46,0-.69-.32-.69-.65,0-.55.49-.85,1.36-.84v-.05c0-.19-.05-.52-.51-.52-.21,0-.43.07-.59.17l-.09-.27c.19-.12.46-.2.74-.2.69,0,.86.47.86.92v.84c0,.2,0,.39.04.54h-.37ZM43.28,89.31c-.45,0-.96.07-.96.51,0,.27.18.39.39.39.29,0,.48-.19.55-.38.01-.04.02-.09.02-.13v-.39Z"/>
      <path class="cls-1" d="M44.32,90.46c0-.15.02-.38.02-.58v-2.73h.41v1.42h0c.14-.25.41-.41.77-.41.56,0,.96.47.95,1.15,0,.81-.51,1.21-1.01,1.21-.33,0-.59-.13-.76-.42h-.01l-.02.37h-.35ZM44.75,89.55c0,.05,0,.1.02.15.08.28.32.48.62.48.43,0,.69-.35.69-.87,0-.45-.23-.84-.67-.84-.28,0-.54.19-.62.5,0,.05-.02.1-.02.17v.41Z"/>
      <path class="cls-1" d="M48.89,89.84c0,.23,0,.44.02.62h-.36l-.02-.37h0c-.11.18-.34.42-.75.42-.35,0-.78-.2-.78-.99v-1.32h.41v1.25c0,.43.13.72.5.72.28,0,.47-.19.54-.37.02-.06.04-.14.04-.21v-1.39h.41v1.64Z"/>
      <path class="cls-1" d="M49.98,89.24h0c.06-.08.14-.18.2-.26l.66-.78h.5l-.87.93.99,1.33h-.5l-.78-1.08-.21.23v.85h-.41v-3.31h.41v2.09Z"/>
    </g>
    <path class="cls-1" d="M46.17,85.23c0,.53-.43.95-.95.95s-.95-.43-.95-.95.43-.95.95-.95.95.43.95.95Z"/>
  </g>
  <g>
    <g>
      <path class="cls-1" d="M98.53,57.3c.18.11.45.21.73.21.42,0,.66-.22.66-.54,0-.29-.17-.46-.59-.63-.51-.18-.83-.45-.83-.89,0-.49.41-.85,1.02-.85.32,0,.56.07.7.15l-.11.33c-.1-.06-.31-.15-.6-.15-.43,0-.59.26-.59.47,0,.29.19.44.63.61.53.21.8.46.8.92s-.36.9-1.1.9c-.3,0-.63-.09-.8-.2l.1-.34Z"/>
      <path class="cls-1" d="M102.14,57.79l-.03-.28h-.01c-.13.18-.37.34-.69.34-.46,0-.69-.32-.69-.65,0-.55.48-.84,1.36-.84v-.05c0-.19-.05-.52-.51-.52-.21,0-.43.07-.59.17l-.09-.27c.19-.12.46-.2.74-.2.69,0,.86.47.86.92v.84c0,.2,0,.39.04.54h-.37ZM102.08,56.64c-.45,0-.96.07-.96.51,0,.27.18.39.39.39.29,0,.48-.19.55-.38.01-.04.02-.09.02-.13v-.39Z"/>
      <path class="cls-1" d="M103.54,56.57h0c.06-.08.13-.18.2-.26l.66-.78h.5l-.87.93.99,1.33h-.5l-.78-1.08-.21.23v.85h-.41v-3.31h.41v2.09Z"/>
      <path class="cls-1" d="M106.66,57.79l-.03-.28h-.01c-.13.18-.37.34-.69.34-.46,0-.69-.32-.69-.65,0-.55.48-.84,1.36-.84v-.05c0-.19-.05-.52-.51-.52-.21,0-.43.07-.59.17l-.09-.27c.19-.12.46-.2.74-.2.69,0,.86.47.86.92v.84c0,.2,0,.39.04.54h-.37ZM106.6,56.64c-.45,0-.96.07-.96.51,0,.27.18.39.39.39.29,0,.48-.19.55-.38.01-.04.02-.09.02-.13v-.39Z"/>
      <path class="cls-1" d="M108.07,56.57h0c.06-.08.14-.18.2-.26l.66-.78h.5l-.87.93.99,1.33h-.5l-.78-1.08-.21.23v.85h-.41v-3.31h.41v2.09Z"/>
      <path class="cls-1" d="M111.19,57.79l-.03-.28h-.01c-.13.18-.37.34-.69.34-.46,0-.69-.32-.69-.65,0-.55.49-.84,1.36-.84v-.05c0-.19-.05-.52-.51-.52-.21,0-.43.07-.59.17l-.09-.27c.19-.12.46-.2.74-.2.69,0,.86.47.86.92v.84c0,.2,0,.39.04.54h-.37ZM111.12,56.64c-.45,0-.96.07-.96.51,0,.27.18.39.39.39.29,0,.48-.19.55-.38.01-.04.02-.09.02-.13v-.39Z"/>
      <path class="cls-1" d="M112.18,54.48h.41v1.41h0c.07-.12.17-.22.29-.29.12-.07.27-.12.42-.12.3,0,.79.19.79.97v1.34h-.41v-1.3c0-.36-.14-.67-.52-.67-.27,0-.48.19-.55.41-.02.06-.03.12-.03.2v1.36h-.41v-3.31Z"/>
    </g>
    <path class="cls-1" d="M107.47,52.56c0,.53-.43.95-.95.95s-.95-.43-.95-.95.43-.95.95-.95.95.43.95.95Z"/>
  </g>
  <g>
    <g>
      <path class="cls-1" d="M113.57,33.1l-.33.99h-.42l1.07-3.15h.49l1.07,3.15h-.43l-.34-.99h-1.12ZM114.6,32.78l-.31-.91c-.07-.21-.12-.39-.16-.57h0c-.05.19-.1.38-.16.57l-.31.91h.95Z"/>
      <path class="cls-1" d="M115.89,32.53c0-.27,0-.5-.02-.71h.36v.44h.03c.1-.3.35-.49.63-.49.05,0,.08,0,.12.01v.39s-.08-.01-.14-.01c-.29,0-.49.22-.55.53,0,.06-.02.12-.02.19v1.2h-.41v-1.55Z"/>
      <path class="cls-1" d="M118.65,34.09l-.03-.28h-.01c-.13.18-.37.34-.69.34-.46,0-.69-.32-.69-.65,0-.55.48-.85,1.36-.84v-.05c0-.19-.05-.52-.51-.52-.21,0-.43.07-.59.17l-.09-.27c.19-.12.46-.2.74-.2.69,0,.86.47.86.92v.84c0,.2,0,.39.04.54h-.37ZM118.59,32.93c-.45,0-.96.07-.96.51,0,.27.18.39.39.39.29,0,.48-.19.55-.38.01-.04.02-.09.02-.13v-.39Z"/>
      <path class="cls-1" d="M119.65,32.53c0-.27,0-.5-.02-.71h.36v.44h.03c.1-.3.35-.49.63-.49.05,0,.08,0,.12.01v.39s-.08-.01-.14-.01c-.29,0-.49.22-.55.53,0,.06-.02.12-.02.19v1.2h-.41v-1.55Z"/>
    </g>
    <path class="cls-1" d="M123.81,33.13c0,.53-.43.95-.95.95s-.95-.43-.95-.95.43-.95.95-.95.95.43.95.95Z"/>
  </g>
  <g>
    <path class="cls-1" d="M217.4,149.15c.22-.05.54-.07.83-.07.47,0,.77.09.98.28.17.15.26.38.26.64,0,.45-.28.74-.63.86v.02c.26.09.41.33.5.68.11.47.19.8.26.93h-.45c-.05-.1-.13-.39-.22-.81-.1-.47-.28-.64-.68-.66h-.41v1.46h-.43v-3.33ZM217.84,150.69h.45c.46,0,.76-.25.76-.64,0-.44-.31-.63-.78-.63-.21,0-.36.02-.43.04v1.23Z"/>
    <path class="cls-1" d="M220.62,149.38c0,.15-.1.27-.28.27-.16,0-.26-.12-.26-.27s.12-.28.28-.28.27.12.27.28ZM220.13,152.48v-2.42h.44v2.42h-.44Z"/>
    <path class="cls-1" d="M221.46,150.06l.53,1.43c.06.16.12.35.16.5h0c.05-.15.1-.33.16-.51l.48-1.42h.47l-.66,1.73c-.32.83-.53,1.26-.83,1.52-.22.19-.43.27-.54.29l-.11-.37c.11-.03.26-.1.39-.21.12-.09.27-.27.37-.49.02-.05.04-.08.04-.11s0-.06-.03-.12l-.9-2.23h.48Z"/>
    <path class="cls-1" d="M224.97,152.48l-.04-.31h-.02c-.13.19-.4.36-.74.36-.49,0-.74-.34-.74-.7,0-.59.52-.91,1.46-.9v-.05c0-.2-.06-.56-.55-.56-.23,0-.46.07-.63.18l-.1-.29c.2-.13.49-.22.8-.22.74,0,.92.51.92.99v.91c0,.21,0,.42.04.58h-.4ZM224.91,151.25c-.48,0-1.03.08-1.03.55,0,.29.19.42.42.42.32,0,.52-.2.58-.41.02-.04.03-.09.03-.14v-.42Z"/>
    <path class="cls-1" d="M228.13,148.93v2.93c0,.22,0,.46.02.63h-.4l-.02-.42h0c-.13.27-.43.48-.83.48-.59,0-1.04-.5-1.04-1.23,0-.81.5-1.3,1.09-1.3.37,0,.62.18.73.37h0v-1.45h.44ZM227.69,151.05c0-.05,0-.13-.02-.19-.07-.28-.31-.51-.64-.51-.46,0-.73.4-.73.94,0,.49.24.9.72.9.29,0,.57-.2.65-.53.01-.06.02-.12.02-.19v-.42Z"/>
    <path class="cls-1" d="M228.86,148.93h.44v1.51h0c.07-.12.18-.24.32-.31.13-.07.29-.12.45-.12.33,0,.85.2.85,1.04v1.44h-.44v-1.39c0-.39-.15-.72-.56-.72-.29,0-.51.2-.59.44-.03.06-.03.13-.03.21v1.46h-.44v-3.55Z"/>
  </g>
  <g>
    <path class="cls-2" d="M229,139.13c0,4.09-3.24,7.18-4.37,8.14-.22.19-.55.19-.77,0-1.13-.96-4.37-4.05-4.37-8.14,0-2.62,2.13-4.75,4.75-4.75s4.75,2.13,4.75,4.75Z"/>
    <circle class="cls-4" cx="224.25" cy="139.13" r="3.04"/>
    <path class="cls-2" d="M227.32,147.53c0,.6-1.37,1.08-3.07,1.08s-3.07-.49-3.07-1.08c0-.4.61-.75,1.51-.93.39.39.73.7.98.91.16.14.37.21.58.21s.42-.08.58-.21c.25-.21.59-.51.98-.91.91.19,1.51.54,1.51.93Z"/>
  </g>
  <g>
    <path class="cls-2" d="M271.46,106.21c0,2.76-2.19,4.85-2.95,5.5-.15.13-.37.13-.52,0-.76-.65-2.95-2.74-2.95-5.5,0-1.77,1.44-3.21,3.21-3.21s3.21,1.44,3.21,3.21Z"/>
    <circle class="cls-4" cx="268.25" cy="106.21" r="2.06"/>
    <path class="cls-2" d="M270.32,111.88c0,.4-.93.73-2.07.73s-2.07-.33-2.07-.73c0-.27.41-.5,1.02-.63.26.27.49.47.66.61.11.09.25.14.39.14s.28-.05.39-.14c.17-.14.4-.35.66-.61.61.13,1.02.36,1.02.63Z"/>
  </g>
  <g>
    <path class="cls-2" d="M277.25,118.88c0,2.48-1.96,4.35-2.64,4.93-.13.11-.33.11-.47,0-.68-.58-2.64-2.45-2.64-4.93,0-1.59,1.29-2.88,2.88-2.88s2.88,1.29,2.88,2.88Z"/>
    <circle class="cls-4" cx="274.38" cy="118.88" r="1.84"/>
    <path class="cls-2" d="M276.23,123.96c0,.36-.83.66-1.86.66s-1.86-.29-1.86-.66c0-.24.37-.45.92-.57.23.24.44.42.59.55.1.08.22.13.35.13s.25-.05.35-.13c.15-.13.36-.31.59-.55.55.11.92.32.92.57Z"/>
  </g>
  <g>
    <path class="cls-2" d="M151.46,265.21c0,2.76-2.19,4.85-2.95,5.5-.15.13-.37.13-.52,0-.76-.65-2.95-2.74-2.95-5.5,0-1.77,1.44-3.21,3.21-3.21s3.21,1.44,3.21,3.21Z"/>
    <circle class="cls-4" cx="148.25" cy="265.21" r="2.06"/>
    <path class="cls-2" d="M150.32,270.88c0,.4-.93.73-2.07.73s-2.07-.33-2.07-.73c0-.27.41-.5,1.02-.63.26.27.49.47.66.61.11.09.25.14.39.14s.28-.05.39-.14c.17-.14.4-.35.66-.61.61.13,1.02.36,1.02.63Z"/>
  </g>
</svg>