<?xml version="1.0" encoding="UTF-8"?>
<svg id="Layer_1" data-name="Layer 1" xmlns="http://www.w3.org/2000/svg" viewBox="0 0 390.17 321.18">
  <defs>
    <style>
      .cls-1 {
        font-family: Co-Text-Regular, 'Co Text';
        font-size: 5.52px;
      }

      .cls-2, .cls-3, .cls-4, .cls-5 {
        stroke-width: 0px;
      }

      .cls-3 {
        fill: #dd4747;
      }

      .cls-4 {
        fill: #fecc0d;
      }

      .cls-5 {
        fill: #fff;
      }
    </style>
  </defs>
  <g>
    <g>
      <path class="cls-4" d="M132.96,281.52l2.35,3.84,10.26,9.1c.05.05.08.12.08.19v1.71h.14c.14,0,.25.11.25.25v3.03h.8c.1,0,.19.06.23.15l1.17,2.6h.89c.12,0,.23.09.25.21l.47,3.15,2.3,2.01s.04.04.05.06l.94,1.57s.04.08.04.13v2.53l.88,1.02s.05.09.06.14l.18,1.64h1.4l.69-.48v-1.44c0-.1.06-.2.16-.23l2.65-1.02v-2.19c0-.14.11-.25.25-.25h1.95l.47-1.96-2.49-2.3c-.09-.09-.11-.23-.03-.33l1.71-2.34-.96-.7c-.06-.05-.1-.12-.1-.2v-1.18s0-.08.03-.11l1.24-2.45c.04-.08.13-.14.22-.14h1.06v-.94h-.95c-.14,0-.25-.11-.25-.25v-3.01c0-.05.02-.1.04-.14l.78-1.13-.93-1.03h-1.75c-.11,0-.2-.07-.24-.17l-1.1-3.11-1.69-.77c-.09-.04-.15-.13-.15-.23v-2.5h-1.2l-2.3,2.92v3.04c0,.14-.11.25-.25.25h-2.75c-.09,0-.17-.05-.22-.12l-2.63-4.52h-4.18c-.1,0-.19-.06-.23-.15l-1.02-2.24h-3.24c-.07,0-.14-.03-.19-.09-.05-.05-.07-.13-.06-.2l.67-5.04h-1.97l-3.06,2.77-.72.65Z"/>
      <path class="cls-4" d="M172.8,244.02l1.02-4.6s.02-.07.04-.1l1.84-2.44v-1.62l-1.62-1.1s-.06-.05-.08-.09l-1.87-3.55-3.5-3.01-4.62,2.89c-.07.05-.17.05-.25.01l-1.11-.57h-2.43l-3.71.84-2.17,1.99s-.06.04-.09.05l-2.19.7-6.63,6.25s-.11.07-.17.07h-1.7c-.09,0-.18-.05-.22-.14l-2.82-5.54-.71,3.64,1.12.88c.06.05.1.12.1.2v1.44c0,.08-.04.16-.1.2l-3.71,2.69v2.23s0,.06-.02.09l-1.57,3.88,2.3.5c.06.01.12.05.16.11.04.06.05.12.03.19l-.81,3.75,1.66,3.17c.03.06.04.13.02.19l-1.09,3.36c-.03.1-.13.17-.24.17h-3.86l-2.61,1.62c-.08.05-.19.05-.27,0l-1.12-.77v6.39l.86.89h4.35c.1,0,.19.06.23.15l2.05,4.96c.02.05.02.11.01.16l-.83,3.03.34.42h2.24c.07,0,.14.03.19.09.05.05.07.13.06.2l-.67,5.04h3.12c.1,0,.19.06.23.15l1.02,2.24h4.16c.09,0,.17.05.22.12l2.63,4.52h2.36v-2.88c0-.06.02-.11.05-.15l2.43-3.09c.05-.06.12-.1.2-.1h1.57c.14,0,.25.11.25.25v2.59l1.64.74c.06.03.11.08.13.14l1.08,3.04h1.68c.07,0,.14.03.19.08l1.07,1.18h2.25c.06,0,.12.02.17.06l3.29,2.94.38-.72v-2.73l-.51-.66c-.04-.06-.06-.13-.05-.2l.69-3.83-.63-6.61c0-.07.01-.13.06-.18l8.21-10.03c.05-.06.12-.09.19-.09h1.88l2.87-2.14-.45-7.18c0-.1.05-.19.13-.24l2.53-1.32v-3.4l-10.75-11.19c-.06-.06-.08-.15-.06-.23Z"/>
      <path class="cls-4" d="M156.8,286.57l1.64.74c.06.03.11.08.13.14-.02-.06-.07-.12-.13-.14l-1.64-.74Z"/>
      <path class="cls-4" d="M191.6,260.51h-.01s-.09-.01-.13-.04l-7.35-4.68v3.19c0,.09-.05.18-.13.22l-2.52,1.32.45,7.16c0,.08-.03.17-.1.22l-3.05,2.27s-.1.05-.15.05h-1.84l-8.07,9.86.63,6.55s0,.05,0,.07l-.68,3.76.5.64s.05.1.05.15v2.88s-.01.08-.03.12l-.47.88.64.58h1.61c.05,0,.11.02.15.05l1.82,1.36h.71l1.48-2.01c.08-.11.24-.13.35-.05l1.15.85,2.27-.99s.07-.02.1-.02h17.15s.08,0,.12.03l2.98,1.55,16.6,1.96,6.84-.76c.1-.01.18.03.23.11l4.1,6.08h2.29l4.45-2.68,1.41-11.48,4.19-34.09-30.69,4.19-17.03.74Z"/>
      <path class="cls-4" d="M195.75,105.22v2.6l5.51,3.13h2.55c.07,0,.14.03.19.08l4.29,4.8h4.99c.05,0,.1.02.14.04l5.54,3.82h4.64c.07,0,.13.03.18.08l3.89,3.99,7.66,2.91c.1.04.16.13.16.23v28.25l8.84,6.99s.04.03.05.05l4.83,6.85s.05.09.05.14v9.69l-9.4,76.44-4.29,34.88-1.31,10.63.71-.43,2.59-6.77s.02-.04.03-.06l9.89-13.04s.05-.05.08-.07l15.63-8.25s.05-.02.08-.03l37.89-5.11,12.17-2.52,51.5-18.44,11.58-38.25-7.79-12.86-3.28,2.95c-.06.05-.14.07-.21.06l-41.95-7.92c-.06-.01-.11-.04-.15-.09l-17.25-21.75s-.05-.1-.05-.16v-2.47l-2.95-1.63-1.55.95c-.08.05-.17.05-.25,0-.08-.04-.13-.13-.13-.22v-1.97s.01-.1.04-.14l2.6-4.01h-.58l-.98,1.54c-.05.07-.13.12-.21.12h-.61c-.14,0-.25-.11-.25-.25v-1.43h-1.49l-1.07,1.01s-.11.07-.17.07h-2.36c-.08,0-.15-.04-.2-.1l-2.75-3.68h-1.19c-.1,0-.19-.06-.23-.15l-2.29-5.53h-.75c-.14,0-.25-.11-.25-.25v-.79l-1.55-6.37h-2.12c-.09,0-.17-.05-.21-.12l-3.53-5.82c-.05-.08-.05-.17,0-.25.04-.08.13-.13.22-.13h.43l-.86-1.2s-.05-.09-.05-.15v-2.32l-2.13-.92c-.09-.04-.15-.13-.15-.23v-3.4c0-.1.06-.19.14-.23.09-.04.19-.03.27.03l1.94,1.62h.69l.87-1.37v-4.09l-3.04-1.47c-.09-.04-.14-.13-.14-.23v-3.93c0-.09.04-.17.12-.21.07-.05.17-.05.24-.01l1.55.79-3.12-3.6h-1.59c-.06,0-.13-.02-.17-.07l-5.58-5.38h-2.91c-.09,0-.17-.04-.21-.12l-3.13-4.99h-.65c-.14,0-.25-.11-.25-.25v-.65c0-.14.11-.25.25-.25h2.41v-.61l-3.04-.94h-.75s-.05,0-.07,0l-3.65-1.06c-.11-.03-.18-.13-.18-.24v-.93h-.67c-.14,0-.25-.11-.25-.25v-2.36c0-.14.11-.25.25-.25h.52l-.9-1.89s-.02-.07-.02-.11v-1.38h-1.71c-.1,0-.19-.06-.23-.15l-1.04-2.41s-.02-.06-.02-.1v-1.73l-1.63-1.75s-.07-.11-.07-.17v-2.99l-1.45-.72h-11.86c-.08,0-.15-.04-.2-.1l-1.97-2.62s-.05-.1-.05-.15v-3.18l-2.46-2.81-16.48-1.81-1.03.66s-.1.04-.16.04l-5.1-.43-9.25,8.35-5.57,10.78-5.11,6.43v3.19l3.94,2.83c.07.05.1.12.1.2Z"/>
      <polygon class="cls-4" points="239.85 255.33 235.56 290.21 239.85 255.32 239.85 255.33"/>
      <path class="cls-4" d="M129.39,76.83s.09,0,.14.01l4.83,1.78,2.38-.84s.05-.01.08-.01h4.19s.05,0,.07.01l6.14,1.86s.08.04.12.07l3.55,4.05h2.31l2.73-1.42s.08-.03.12-.03h1.18c.14,0,.25.11.25.25v2.39l1.29,1.38h3.82c.06,0,.12.02.16.06l1.61,1.4h1.81l3.42-2.5c.06-.04.13-.06.2-.04.07.02.13.06.17.13l5.04,9.43,3.62,3h4.62c.06,0,.12.02.17.06l4.77,4.26,2.16,1.94.85-1.05v-4.1c0-.06.02-.11.05-.16l5.14-6.45,5.56-10.78s.03-.05.05-.07l8.94-8.07-23.57-1.99s-.1-.02-.13-.05l-45.13-36.03-28.73-15.79-21.69-4.27-3.82,3.01s-.06.04-.09.05l-16.86,4.52-1.81,6.36v3.28l5.13,6.01,15.25-1.48,12.94,1.44s.08.02.11.04l4.38,2.98h14.29c.05,0,.1.02.14.04l5.2,3.62h4.22c.06,0,.12.02.16.06l1.89,1.62s.06.06.07.1l.97,2.5,5.04,3.86c.06.05.1.12.1.2v1.05c0,.08-.04.16-.11.21l-20.38,13.09v6.54c0,.06-.02.12-.06.16l-3.01,3.59,2.01,1.24,11.95-2.49Z"/>
      <path class="cls-4" d="M191.26,98.75s-.05.1-.05.16c0-.06.02-.11.05-.16l5.14-6.45,5.56-10.78-5.56,10.78-5.14,6.45Z"/>
      <path class="cls-4" d="M89.97,88.23l8.48-3.82s.07-.02.1-.02h1.9l12.65-6.47s.07-.03.11-.03h1.72l3.06-3.66v-6.59c0-.09.04-.16.11-.21l20.38-13.09v-.79l-4.99-3.83s-.06-.07-.08-.11l-.97-2.51-1.77-1.52h-4.21c-.05,0-.1-.02-.14-.05l-5.2-3.62h-14.29c-.05,0-.1-.02-.14-.04l-4.39-2.98-12.82-1.43-15.33,1.49c-.08,0-.16-.02-.21-.09l-5.27-6.18s-.06-.1-.06-.16v-3.4s0-.05,0-.07l1.74-6.1-16.17,4.34,16.84,18.83c.05.06.07.13.06.2-.01.07-.05.14-.12.18l-5.52,3.39-3.15,6.25c-.04.07-.1.12-.18.13l-12.91,2.31-4.58,7.5s-.04.05-.07.07l-7.19,5.26c-.05.04-.12.05-.19.05l-18.9-3.04-1.91,8.56,6.74.37,2.07-1.67s.08-.05.13-.05l7.67-.9s.06,0,.09,0l5.19,1.37s.09.04.13.08l5.82,6.88,7.72-1.94s.1,0,.15,0l4.62,1.73h4.25l1.64-3.68s.06-.09.1-.11l3.86-2.22c.08-.04.17-.04.25,0,.08.04.12.13.12.22v7.38l2.65,3.5,7.84.83h2.99c.09,0,.17.05.22.12l1.31,2.25h1.24l2.87-1.44c.08-.04.16-.03.24,0l2.05,1.19,1.52-2.61s.07-.08.11-.1Z"/>
      <path class="cls-4" d="M73.94,38.88l-5.27-6.18s-.06-.1-.06-.16c0,.06.02.12.06.16l5.27,6.18Z"/>
      <polygon class="cls-4" points="114.94 77.88 118 74.23 114.94 77.88 114.94 77.88"/>
      <polygon class="cls-4" points="138.5 53.56 133.5 49.73 138.5 53.56 138.5 53.56"/>
      <path class="cls-4" d="M104.25,114.52l4.16-5.04-4.43-3.02c-.05-.03-.09-.09-.1-.15l-2.11-8.43-5.89-4.78-7.5-1.57s-.05-.02-.07-.03l-2.15-1.25-2.81,1.41s-.07.03-.11.03h-1.44c-.09,0-.17-.05-.22-.12l-1.31-2.25h-2.87l-7.97-.84c-.07,0-.13-.04-.17-.1l-2.77-3.65s-.05-.1-.05-.15v-7.03l-3.41,1.97-1.68,3.75c-.04.09-.13.15-.23.15h-4.45s-.06,0-.09-.02l-4.59-1.72-7.8,1.96c-.09.02-.19,0-.25-.08l-5.87-6.94-5.07-1.34-7.55.88-2.09,1.68s-.11.07-.17.05l-6.92-.38-.52,2.34v3.87s0,.07-.02.11l-3.78,8.03,1.15,1.41,1.94-1.57c.06-.05.13-.06.2-.05l7.22,1.3c.07.01.13.05.16.11l5.42,8.19s.04.09.04.14v1.88l2.44,2.98h.67c.09,0,.18.05.22.13l1.43,2.65s.03.08.03.12v1.99l4.02,3.79c.05.05.08.11.08.18v1.48l4.27,5.36s.05.1.05.16v.85l3.98,7.13h2.34c.07,0,.14.03.18.08.05.05.07.12.06.19l-.33,3.52v1.28s1.21,1.08,1.21,1.08h.95c.06,0,.13.02.17.07l2.08,1.99s.05.06.06.09l1.5,3.88,3.57,4.98s.05.09.05.15v1.57l.51,4.53c0,.07-.01.13-.05.18-.04.05-.1.09-.17.09l-1.31.15.12,1.1,4.08,4.72.38-2.78c.02-.12.12-.22.25-.22h3.54l1.6-2.08c.05-.07.14-.11.23-.1l3.12.41,1.27-1.37v-11.44h-1.98c-.12,0-.22-.08-.24-.19l-1.04-4.39-4.18-4.04s-.08-.11-.08-.18v-1.71l-2.84-1.72h-.94l-1.13.76c-.07.05-.15.05-.23.03-.08-.03-.13-.09-.15-.17l-1.56-5.95c-.02-.07,0-.15.04-.21l1.47-2.07v-1.45l-2.53-.95s-.06-.03-.09-.06l-2.16-2.1s-.08-.11-.08-.18v-7.61h-3.02c-.14,0-.25-.11-.25-.25v-1.44c0-.11.07-.2.17-.24l8.03-2.83c.07-.02.14-.02.2.02l3.89,2.16,3.76-2.11s.08-.03.12-.03h1.83c.14,0,.25.11.25.25v1.38l2.65,4.88h3.91c.14,0,.25.11.25.25v1.7l1.63,1.09c.07.05.11.12.11.21v1.71h.59l2.88-1.92c.07-.05.16-.06.24-.02l2.97,1.38v-2.2c0-.14.11-.25.25-.25h.92c.11,0,.21.07.24.17l.69,2.15,5.51,3.19,10.41-1.5c.08,0,.17.02.23.08l1.33,1.54,1.43-4.7s.03-.06.05-.09Z"/>
      <path class="cls-4" d="M140.2,161.37l1.6-1.37v-1.85h-.88c-.07,0-.14-.03-.19-.09l-1.7-1.99s-.06-.1-.06-.16v-1.78l-1.57-3.28-3.34-1.25c-.1-.04-.16-.13-.16-.23v-7.39l-3.65-.78h0l-5.89-1.26h-4.56s-3.35,3.36-3.35,3.36c-.05.05-.11.07-.18.07h-3.89l-5.19,1.68s-.05.01-.08.01c-.04,0-.07,0-.1-.02l-2.27-1.03c-.09-.04-.15-.13-.15-.23v-6.89l-1-2.51s-.02-.08-.02-.12l.91-8.71h-2.21c-.06,0-.11-.02-.16-.05l-1.03-.81c-.05-.04-.09-.1-.09-.17,0-.07.01-.13.05-.18l1.57-1.98v-2.44l-1.47-1.71-10.36,1.49c-.06,0-.11,0-.16-.03l-5.67-3.28c-.05-.03-.09-.08-.11-.14l-.66-2.07h-.48v2.35c0,.09-.04.16-.12.21-.07.05-.16.05-.24.02l-3.2-1.49-2.82,1.88s-.09.04-.14.04h-.92c-.14,0-.25-.11-.25-.25v-1.83l-1.63-1.09c-.07-.05-.11-.12-.11-.21v-1.58h-3.81c-.09,0-.18-.05-.22-.13l-2.75-5.06s-.03-.08-.03-.12v-1.19h-1.52l-3.83,2.14c-.08.04-.17.04-.24,0l-3.91-2.17-7.76,2.73v1.01h3.02c.14,0,.25.11.25.25v7.75l2.04,1.99,2.65,1c.1.04.16.13.16.23v1.7c0,.05-.02.1-.05.14l-1.45,2.04,1.44,5.5.9-.6s.09-.04.14-.04h1.09s.09.01.13.04l3.02,1.83c.07.05.12.13.12.21v1.75l4.16,4.02s.06.08.07.12l1.01,4.27h2.03c.14,0,.25.11.25.25v11.78c0,.06-.02.12-.07.17l-1.42,1.54c-.06.06-.14.09-.22.08l-3.1-.4-1.59,2.07c-.05.06-.12.1-.2.1h-3.45l-.41,3,.92,1.06s.06.1.06.16v1.48l1.27,1.46,1.47.5.48-.84c.04-.07.1-.11.18-.12.07-.01.15.01.21.07l2.48,2.38h1.86c.06,0,.11.02.16.06l9.1,7.49c.06.05.09.12.09.19v1.12l1.61,3.35h1.02c.11,0,.21.08.24.18l.5,1.83,4.6-.54c.09-.01.17.02.22.09l4.54,5.61h4.2c.14,0,.25.11.25.25v1.32h1.02l4.62-1.33s.05,0,.07,0h2.49c.14,0,.25.11.25.25v3.5s0,.06-.02.09l-.99,2.72,2.97,1.08c.1.04.16.13.16.23v4.07h1.93l3.61-1.99c.06-.03.12-.04.19-.02l4.11,1.17,2.53-3.61,8.15-7.08s.05-.03.07-.04l3.02-1.15v-.87l-3.09-1.97c-.07-.05-.12-.13-.12-.21v-.92c0-.09.05-.17.13-.22l7.78-4.36.67-3.67-.72-1.6c-.06-.13,0-.27.13-.33l1.43-.64s.07-.02.1-.02h2.78l.57-8.82c0-.07.04-.13.09-.17Z"/>
      <path class="cls-4" d="M135.91,277.17l.84-3.08-1.95-4.73h-4.28c-.07,0-.13-.03-.18-.08l-1-1.03s-.07-.11-.07-.17v-6.97c0-.09.05-.18.13-.22.08-.04.18-.04.26.01l1.38.94,2.53-1.57s.08-.04.13-.04h3.75l1-3.09-1.65-3.16c-.03-.05-.04-.11-.02-.17l.78-3.59-2.14-.46-.15.38c-.04.09-.13.16-.23.16h-2.99l-2.23,4.21v3.21c0,.14-.11.25-.25.25h-4.06c-.07,0-.13-.03-.18-.08l-3.23-3.43s-.06-.1-.07-.15l-.58-8h-1.89c-.14,0-.25-.11-.25-.25v-2.23c0-.07.03-.14.08-.18l2.21-2.05s.11-.07.17-.07h3.11l2.22-5.37v-3.88c0-.06.02-.12.06-.17l.79-.87c.05-.05.11-.08.18-.08h1.44c.1,0,.19.06.23.15l1.37,3.22h1.93l7.28-1.5s0,0,0,0c0,0,0,0,0,0,0,0,.02,0,.02,0,.04,0,.07,0,.1.02,0,0,.01,0,.02,0,0,0,.01.01.02.02.01,0,.03.01.04.02.01.01.02.03.03.04,0,0,.02.01.02.02l3.08,6.05h1.45l6.6-6.22s.06-.04.1-.06l2.19-.7,2.18-2s.07-.05.11-.06l3.83-.86h2.54s.08,0,.11.02l1.04.53,4.44-2.77-4.63-7.25c-.04-.06-.05-.14-.03-.22l.84-2.44v-5.46c0-.06.02-.11.05-.15l1.22-1.59-.77-12.22h-3.2l-1.67.64c-.06.02-.12.02-.17,0l-2.23-.77c-.1-.04-.17-.13-.17-.24v-4.61l-2.27-2.25h-7.75c-.1,0-.18-.05-.22-.14l-3.7-7.52-1.65-4.44s-.02-.06-.02-.09v-1.73l-2.34-2.33s-.07-.11-.07-.18v-3.29h-2.71l-1.16.52.65,1.44s.03.1.02.15l-.71,3.86c-.01.07-.06.14-.12.17l-7.75,4.34v.63l3.09,1.97c.07.05.12.13.12.21v1.18c0,.1-.06.2-.16.23l-3.14,1.19-8.08,7.01-2.59,3.71c-.05.07-.13.1-.21.1-.02,0-.04,0-.06,0l-4.18-1.19-3.58,1.98s-.08.03-.12.03h-2.24c-.14,0-.25-.11-.25-.25v-4.15l-3.04-1.1c-.06-.02-.11-.07-.14-.13-.03-.06-.03-.13,0-.19l1.06-2.91v-3.2h-2.2l-4.62,1.33s-.05,0-.07,0h-1.31c-.14,0-.25-.11-.25-.25v-1.32h-4.07c-.08,0-.15-.03-.19-.09l-4.53-5.59-4.39.52.8,2.95,1.34,2.04s.04.09.04.14v2.42l5.01,8.21s.04.08.04.13v6.42c0,.14-.11.25-.25.25h-.4v2.98l.92,10.18h.82c.14,0,.25.11.25.25v3.14c0,.14-.11.25-.25.25h-.95l3.54,7.89,7.27,10.29,13.93,7.98s.08.06.1.1l1.87,3.58h2.47c.14,0,.25.11.25.25v3.16l1.72,1.5h.69c.14,0,.25.11.25.25v2.79l2.05,2.43s.06.1.06.16v1.81l1.94,1.06c.06.03.1.09.12.15.02.06.01.13-.02.19l-.47.86v2.05l1.46,1.34c.08.07.1.19.06.29l-.49,1.01v1.44l1.28,1.89h.91c.1,0,.2.07.23.16l1.76,4.79s.02.06.02.09v.8h.83c.14,0,.25.11.25.25v.98l.68,1.11,3.6-3.27-.34-.43c-.05-.06-.07-.15-.05-.22Z"/>
      <path class="cls-4" d="M140.36,233.04s0,0,0,0c0,0,.02,0,.03,0,0,0-.02,0-.02,0Z"/>
      <path class="cls-4" d="M140.62,233.17s-.02-.01-.02-.02c0,0,0,0,0,0,0,0,.02.01.02.02Z"/>
      <path class="cls-4" d="M140.53,233.08s-.01-.02-.02-.02c0,0,0,.01.02.02,0,0,0,0,0,0Z"/>
      <path class="cls-4" d="M116.76,197.58s-.04,0-.06,0l-4.18-1.19,4.18,1.19s.04,0,.06,0Z"/>
      <path class="cls-4" d="M185.13,108.58l.28.19,3.85,2.6c.07.05.11.12.11.21v1.96c0,.08-.04.16-.11.21l-3.87,2.58-1.44,2.57c-.04.08-.13.13-.22.13h-1.98v6.21l5.18,6.81s.05.1.05.15v.65c0,.14-.11.25-.25.25h-.4v1.49l1.28,1.54s.06.1.06.16v3.77c0,.14-.11.25-.25.25h-12.69l-2.02,3.35s-.03.05-.06.07l-2.84,2.32s-.07.04-.11.05l-6.09,1.24-4.06,3.83v2.52h.56c.08,0,.15.03.2.09.05.06.07.14.05.21l-.61,2.68c-.03.11-.13.19-.24.19h-10.61s-.07,0-.1-.02l-4.04-1.77-2.44,2.54v2.48c0,.07-.03.14-.09.19l-1.61,1.38-.58,8.94v3.42l2.34,2.33s.07.11.07.18v1.79l1.63,4.38,3.62,7.36h7.7c.07,0,.13.03.18.07l2.42,2.4s.07.11.07.18v4.54l1.97.68,1.63-.63s.06-.02.09-.02h3.48c.13,0,.24.1.25.23l.79,12.55c0,.06-.01.12-.05.17l-1.23,1.59v5.42s0,.06-.01.08l-.81,2.36,4.69,7.33,3.65,3.14s.04.05.06.07l1.86,3.54,1.68,1.14c.07.05.11.12.11.21v1.83c0,.05-.02.11-.05.15l-1.86,2.47-.98,4.42,10.7,11.15,7.64,4.86,16.93-.73,30.8-4.2,9.38-76.22v-9.58s-4.77-6.75-4.77-6.75l-8.91-7.04c-.06-.05-.1-.12-.1-.2v-28.19l-7.55-2.87s-.06-.03-.09-.06l-3.86-3.96h-4.61c-.05,0-.1-.02-.14-.04l-5.54-3.82h-5.03c-.07,0-.14-.03-.19-.08l-4.29-4.8h-2.51s-.09-.01-.12-.03l-5.69-3.24c-.08-.04-.13-.13-.13-.22v-2.62l-3.54-2.54v.3c0,.06-.02.11-.06.16l-1.07,1.32c-.04.05-.11.09-.17.09,0,0-.01,0-.02,0-.06,0-.12-.02-.17-.06l-2.17-1.94-2.91,3.26v2.65Z"/>
      <polygon class="cls-4" points="184.03 255.16 191.66 260 184.01 255.14 184.03 255.16"/>
      <path class="cls-4" d="M227.44,124.22s-.06-.03-.09-.06l-3.86-3.95,3.86,3.96s.06.05.09.06Z"/>
      <rect class="cls-4" x="205.67" y="216.96" width="76.79" height="0" transform="translate(-1.07 432.72) rotate(-82.99)"/>
      <path class="cls-4" d="M190.4,104.67c-.06,0-.14-.02-.19-.06.05.04.11.06.17.06,0,0,.01,0,.02,0Z"/>
      <polygon class="cls-4" points="188.04 102.67 188.04 102.67 190.22 104.61 188.04 102.67"/>
      <polygon class="cls-4" points="140.02 170.63 140.02 174.04 140.02 170.62 140.02 170.63"/>
      <path class="cls-4" d="M135.85,137.69l3.24-.82-.89-3.57c-.02-.09,0-.19.08-.25l1.42-1.16c.07-.06.17-.07.26-.03l2.64,1.17v-4.98c0-.1.06-.19.14-.23l2.14-1s.07-.02.11-.02h1.23l.37-2.38c0-.06.04-.12.09-.16l9.54-7.56s.04-.03.06-.03l4.62-1.95,1.73-3.14s.06-.08.1-.1l9.04-5.02s.08-.03.12-.03h1.96c.06,0,.12.02.17.07l4.71,4.41h4.75l1.41-1.87-.17-.11c-.07-.05-.11-.12-.11-.21v-2.88c0-.06.02-.12.06-.17l2.97-3.33-4.51-4.03h-4.62c-.06,0-.11-.02-.16-.06l-3.73-3.09s-.05-.05-.06-.07l-4.92-9.22-3.26,2.38s-.09.05-.15.05h-1.99c-.06,0-.12-.02-.16-.06l-1.61-1.4h-3.83c-.07,0-.14-.03-.18-.08l-1.43-1.54s-.07-.11-.07-.17v-2.24h-.87l-2.73,1.42s-.08.03-.12.03h-2.49c-.07,0-.14-.03-.19-.09l-3.58-4.09-6.04-1.83h-4.11l-2.43.86c-.05.02-.11.02-.17,0l-4.85-1.79-11.98,2.5c-.06.01-.13,0-.18-.03l-2.28-1.41h-1.7l-12.65,6.47s-.07.03-.11.03h-1.91l-8.35,3.77-1.43,2.46,7.22,1.51s.08.03.11.05l6,4.87s.07.08.08.13l2.11,8.42,4.57,3.12c.06.04.1.1.11.17,0,.07,0,.14-.05.19l-4.3,5.22-1.53,5.05v2.58c0,.06-.02.11-.05.16l-1.47,1.86.76.6h2.4c.07,0,.14.03.19.08.05.05.07.12.06.19l-.93,8.93,1,2.5s.02.06.02.09v6.78l2.03.93,5.14-1.67s.05-.01.08-.01h3.82l3.35-3.36s.11-.07.18-.07h4.72l5.85,1.24,5.58-2.98Z"/>
      <path class="cls-4" d="M158.48,86.76l-1.43-1.54s-.07-.11-.07-.17c0,.06.02.12.07.17l1.43,1.54Z"/>
      <polygon class="cls-4" points="187.67 102.33 183.16 98.3 187.67 102.33 187.67 102.33"/>
      <polygon class="cls-4" points="184.7 105.66 187.67 102.33 187.67 102.33 184.7 105.66"/>
      <path class="cls-4" d="M133.12,235.04h-2.15c-.1,0-.19-.06-.23-.15l-1.37-3.22h-1.16l-.65.72v3.83s0,.07-.02.1l-2.3,5.57c-.04.09-.13.15-.23.15h-3.17l-2.05,1.91v1.87h1.88c.13,0,.24.1.25.23l.59,8.14,3.1,3.29h3.7v-3.02s0-.08.03-.12l2.33-4.4c.04-.08.13-.13.22-.13h2.98l.17-.42,1.66-4.11v-2.31c0-.08.04-.16.1-.2l3.71-2.69v-1.19l-1.14-.9c-.07-.06-.11-.15-.09-.24l.81-4.13-1.52.31-5.44,1.12Z"/>
      <polygon class="cls-4" points="135.02 249.38 136.69 245.27 135.02 249.38 135.02 249.38"/>
      <polygon class="cls-4" points="134.85 249.8 135.02 249.38 135.02 249.38 134.85 249.8"/>
      <polygon class="cls-4" points="135.02 249.38 135.02 249.38 135.02 249.38 135.02 249.38"/>
      <path class="cls-4" d="M183.82,111.3c-.05.06-.12.1-.2.1h-4.97c-.06,0-.12-.02-.17-.07l-4.71-4.41h-1.8l-8.92,4.96-1.73,3.15s-.07.09-.12.11l-4.67,1.97-9.44,7.48-.39,2.49c-.02.12-.12.21-.25.21h-1.38l-1.94.91v5.21c0,.08-.04.16-.11.21-.07.05-.16.05-.24.02l-2.85-1.27-1.18.96.91,3.66c.03.13-.05.27-.18.3l-3.43.86-5,2.68,3.18.68c.12.02.2.13.2.24v7.42l3.27,1.23c.06.02.11.07.14.13l1.64,3.43s.02.07.02.11v1.74l1.56,1.84h.77v-.12c0-.06.02-.13.07-.17l2.63-2.74c.07-.08.18-.1.28-.06l4.15,1.82h10.35l.49-2.18h-.5c-.14,0-.25-.11-.25-.25v-2.88c0-.07.03-.13.08-.18l4.19-3.95s.08-.05.12-.06l6.1-1.24,2.76-2.25,2.07-3.44c.04-.08.13-.12.21-.12h12.58v-3.43l-1.28-1.54s-.06-.1-.06-.16v-1.83c0-.14.11-.25.25-.25h.4v-.32l-5.18-6.81s-.05-.1-.05-.15v-6.54c0-.14.11-.25.25-.25h2.08l1.4-2.5s.05-.06.08-.09l3.81-2.54v-1.7l-3.54-2.39-1.5,1.99Z"/>
    </g>
    <path class="cls-2" d="M107.22,218.64c0,.53-.43.95-.95.95s-.95-.43-.95-.95.43-.95.95-.95.95.43.95.95Z"/>
    <path class="cls-2" d="M91.98,219.67c0,.53-.43.95-.95.95s-.95-.43-.95-.95.43-.95.95-.95.95.43.95.95Z"/>
    <path class="cls-2" d="M116.13,224.61c0,.53-.43.95-.95.95s-.95-.43-.95-.95.43-.95.95-.95.95.43.95.95Z"/>
    <path class="cls-2" d="M149.41,274.95c0,.53-.43.95-.95.95s-.95-.43-.95-.95.43-.95.95-.95.95.43.95.95Z"/>
    <path class="cls-2" d="M150.97,303.87c0,.53-.43.95-.95.95s-.95-.43-.95-.95.43-.95.95-.95.95.43.95.95Z"/>
    <path class="cls-2" d="M181.1,291.84c0,.53-.43.95-.95.95s-.95-.43-.95-.95.43-.95.95-.95.95.43.95.95Z"/>
    <path class="cls-2" d="M232.21,170.6c0,.53-.43.95-.95.95s-.95-.43-.95-.95.43-.95.95-.95.95.43.95.95Z"/>
    <path class="cls-2" d="M276.62,148.23c0,.53-.43.95-.95.95s-.95-.43-.95-.95.43-.95.95-.95.95.43.95.95Z"/>
    <path class="cls-2" d="M273.31,112.5c0,.53-.43.95-.95.95s-.95-.43-.95-.95.43-.95.95-.95.95.43.95.95Z"/>
    <path class="cls-2" d="M280.29,122.96c0,.53-.43.95-.95.95s-.95-.43-.95-.95.43-.95.95-.95.95.43.95.95Z"/>
    <path class="cls-2" d="M213.3,83.83c0,.53-.43.95-.95.95s-.95-.43-.95-.95.43-.95.95-.95.95.43.95.95Z"/>
    <path class="cls-2" d="M174.57,121.85c0,.53-.43.95-.95.95s-.95-.43-.95-.95.43-.95.95-.95.95.43.95.95Z"/>
    <path class="cls-2" d="M136.83,100.13c0,.53-.43.95-.95.95s-.95-.43-.95-.95.43-.95.95-.95.95.43.95.95Z"/>
    <path class="cls-2" d="M98.61,158.01c0,.53-.43.95-.95.95s-.95-.43-.95-.95.43-.95.95-.95.95.43.95.95Z"/>
    <path class="cls-2" d="M72.09,166.23c0,.53-.43.95-.95.95s-.95-.43-.95-.95.43-.95.95-.95.95.43.95.95Z"/>
    <path class="cls-2" d="M46.17,85.23c0,.53-.43.95-.95.95s-.95-.43-.95-.95.43-.95.95-.95.95.43.95.95Z"/>
    <path class="cls-2" d="M107.47,52.56c0,.53-.43.95-.95.95s-.95-.43-.95-.95.43-.95.95-.95.95.43.95.95Z"/>
    <path class="cls-2" d="M123.81,33.13c0,.53-.43.95-.95.95s-.95-.43-.95-.95.43-.95.95-.95.95.43.95.95Z"/>
    <g>
      <path class="cls-3" d="M229,137.13c0,4.09-3.24,7.18-4.37,8.14-.22.19-.55.19-.77,0-1.13-.96-4.37-4.05-4.37-8.14,0-2.62,2.13-4.75,4.75-4.75s4.75,2.13,4.75,4.75Z"/>
      <circle class="cls-5" cx="224.25" cy="137.13" r="3.04"/>
      <path class="cls-3" d="M227.32,145.53c0,.6-1.37,1.08-3.07,1.08s-3.07-.49-3.07-1.08c0-.4.61-.75,1.51-.93.39.39.73.7.98.91.16.14.37.21.58.21s.42-.08.58-.21c.25-.21.59-.51.98-.91.91.19,1.51.54,1.51.93Z"/>
    </g>
    <g>
      <path class="cls-3" d="M271.46,106.21c0,2.76-2.19,4.85-2.95,5.5-.15.13-.37.13-.52,0-.76-.65-2.95-2.74-2.95-5.5,0-1.77,1.44-3.21,3.21-3.21s3.21,1.44,3.21,3.21Z"/>
      <circle class="cls-5" cx="268.25" cy="106.21" r="2.06"/>
      <path class="cls-3" d="M270.32,111.88c0,.4-.93.73-2.07.73s-2.07-.33-2.07-.73c0-.27.41-.5,1.02-.63.26.27.49.47.66.61.11.09.25.14.39.14s.28-.05.39-.14c.17-.14.4-.35.66-.61.61.13,1.02.36,1.02.63Z"/>
    </g>
    <g>
      <path class="cls-3" d="M277.25,118.88c0,2.48-1.96,4.35-2.64,4.93-.13.11-.33.11-.47,0-.68-.58-2.64-2.45-2.64-4.93,0-1.59,1.29-2.88,2.88-2.88s2.88,1.29,2.88,2.88Z"/>
      <circle class="cls-5" cx="274.38" cy="118.88" r="1.84"/>
      <path class="cls-3" d="M276.23,123.96c0,.36-.83.66-1.86.66s-1.86-.29-1.86-.66c0-.24.37-.45.92-.57.23.24.44.42.59.55.1.08.22.13.35.13s.25-.05.35-.13c.15-.13.36-.31.59-.55.55.11.92.32.92.57Z"/>
    </g>
    <g>
      <path class="cls-3" d="M151.46,265.21c0,2.76-2.19,4.85-2.95,5.5-.15.13-.37.13-.52,0-.76-.65-2.95-2.74-2.95-5.5,0-1.77,1.44-3.21,3.21-3.21s3.21,1.44,3.21,3.21Z"/>
      <circle class="cls-5" cx="148.25" cy="265.21" r="2.06"/>
      <path class="cls-3" d="M150.32,270.88c0,.4-.93.73-2.07.73s-2.07-.33-2.07-.73c0-.27.41-.5,1.02-.63.26.27.49.47.66.61.11.09.25.14.39.14s.28-.05.39-.14c.17-.14.4-.35.66-.61.61.13,1.02.36,1.02.63Z"/>
    </g>
  </g>
  <g>
    <path class="cls-2" d="M217.7,153.12c0-.18.1-.27.29-.27.12,0,.23.03.27.06v.78c.21-.51.68-.83,1.33-.83.71,0,1.49.35,1.49,1.6v.95h-2.85c-.13.91-.7,1.28-1.49,1.28-1.15,0-1.49-.8-1.49-1.7,0-.71.22-.88.39-.88.07,0,.16.03.26.08-.06.26-.09.56-.09.85,0,.78.29,1.2.96,1.2s.93-.4.93-1.27v-1.83ZM218.27,154.9h2.26v-.47c0-.76-.35-1.13-.96-1.13-.83,0-1.3.7-1.3,1.6ZM219.35,152.21c0-.18.14-.32.31-.32s.31.15.31.33-.14.32-.31.32-.31-.15-.31-.33Z"/>
    <path class="cls-2" d="M221.74,155.4v-4.07c0-.19.1-.28.3-.28.13,0,.22.04.27.06v3.79h.81v.49h-1.38Z"/>
    <path class="cls-2" d="M223.76,154.9v-1.78c0-.18.1-.27.29-.27.12,0,.23.03.27.06v2.49h-1.38v-.49h.81ZM223.7,156.07c0,.18-.14.32-.31.32s-.31-.15-.31-.33.14-.32.31-.32.31.15.31.33ZM224.63,156.07c0,.18-.14.32-.31.32s-.31-.15-.31-.33.14-.32.31-.32.31.15.31.33Z"/>
    <path class="cls-2" d="M225.74,153.12c0-.18.09-.27.29-.27.13,0,.23.03.28.06v2h.87v.49h-.87v.27c0,.79-.47,1.02-.96,1.02-.31,0-.54-.08-.62-.12l.14-.4c.06.02.21.07.39.07.26,0,.5-.12.5-.55v-2.56Z"/>
    <path class="cls-2" d="M227.81,154.9v-3.58c0-.18.1-.27.29-.27.12,0,.23.03.27.06v4.29h-1.38v-.49h.81Z"/>
    <path class="cls-2" d="M229.08,155.4v-4.07c0-.19.1-.28.3-.28.13,0,.22.04.27.06v4.29h-.56Z"/>
  </g>
  <g>
    <path class="cls-2" d="M110.01,33.12c0-.18.09-.27.29-.27.13,0,.23.03.28.06v2h.87v.49h-.87v.27c0,.79-.47,1.02-.96,1.02-.31,0-.54-.08-.62-.12l.14-.4c.06.02.21.07.39.07.26,0,.5-.12.5-.55v-2.56Z"/>
    <path class="cls-2" d="M114.16,35.4h-2.88v-.49h1.07c-.34-.24-.48-.56-.48-.89,0-.69.56-1.16,1.33-1.16.57,0,.81.27.81.45,0,.11-.08.22-.17.28-.17-.17-.43-.27-.69-.27-.5,0-.71.37-.71.77,0,.51.35.83.87.83h.85v.49Z"/>
    <path class="cls-2" d="M115.54,33.12c0-.18.09-.27.29-.27.13,0,.23.03.28.06v2h.87v.49h-.87v.27c0,.79-.47,1.02-.96,1.02-.31,0-.54-.08-.62-.12l.14-.4c.06.02.21.07.39.07.26,0,.5-.12.5-.55v-2.56Z"/>
    <path class="cls-2" d="M119.69,35.4h-2.88v-.49h1.07c-.34-.24-.48-.56-.48-.89,0-.69.56-1.16,1.33-1.16.57,0,.81.27.81.45,0,.11-.08.22-.17.28-.17-.17-.43-.27-.69-.27-.5,0-.71.37-.71.77,0,.51.35.83.87.83h.85v.49Z"/>
  </g>
  <text class="cls-1" transform="translate(98.36 60.4)"><tspan x="0" y="0">ااس</tspan></text>
  <g>
    <path class="cls-2" d="M202.08,88.12c0-.18.1-.27.29-.27.12,0,.23.03.27.06v1.29c0,.46.09.71.55.71h.33v.49h-.36c-.2,0-.39-.07-.52-.22-.07,1.05-.65,1.49-1.51,1.49-1.15,0-1.49-.8-1.49-1.7,0-.71.22-.88.39-.88.07,0,.16.03.26.08-.06.26-.09.56-.09.85,0,.78.29,1.2.96,1.2s.93-.4.93-1.27v-1.83ZM200.84,87.21c0-.18.14-.32.31-.32s.31.15.31.33-.14.32-.31.32-.31-.15-.31-.33Z"/>
    <path class="cls-2" d="M204.22,89.9v-3.58c0-.18.1-.27.29-.27.12,0,.23.03.27.06v2.58c.22-.55.69-.83,1.33-.83.71,0,1.49.36,1.49,1.6v.94h-4.25v-.49h.86ZM204.78,89.9h2.26v-.46c0-.76-.35-1.14-.96-1.14-.83,0-1.3.7-1.3,1.6Z"/>
    <path class="cls-2" d="M208.26,90.4v-4.07c0-.19.1-.28.3-.28.13,0,.22.04.27.06v3.79h.81v.49h-1.38Z"/>
    <path class="cls-2" d="M210.89,89.07c0,.54.06.83.55.83h.33v.49h-.4c-.35,0-.66-.17-.74-.45-.11.31-.41.45-.76.45h-.4v-.49h.31c.48,0,.55-.29.55-.83v-.95c0-.18.1-.27.29-.27.12,0,.23.03.27.06v1.17ZM210.32,91.06c0-.18.14-.32.31-.32s.31.15.31.33-.14.32-.31.32-.31-.15-.31-.33Z"/>
    <path class="cls-2" d="M212.41,89.9v-3.58c0-.18.1-.27.29-.27.12,0,.23.03.27.06v4.29h-1.38v-.49h.81Z"/>
    <path class="cls-2" d="M213.68,90.4v-4.07c0-.19.1-.28.3-.28.13,0,.22.04.27.06v4.29h-.56Z"/>
    <path class="cls-2" d="M217.01,88.12c0-.18.09-.27.29-.27.13,0,.23.03.28.06v2h.87v.49h-.87v.27c0,.79-.47,1.02-.96,1.02-.31,0-.54-.08-.62-.12l.14-.4c.06.02.21.07.39.07.26,0,.5-.12.5-.55v-2.56Z"/>
    <path class="cls-2" d="M222.02,89.9v.49h-3.75v-.49h.92c-.24-.24-.34-.55-.34-.84,0-.6.43-1.22,1.26-1.22s1.26.61,1.26,1.21c0,.28-.09.61-.34.85h.97ZM220.12,89.94c.42,0,.7-.35.7-.83,0-.43-.23-.81-.7-.81s-.7.38-.7.81c0,.48.28.83.7.83ZM219.83,87.21c0-.18.14-.32.31-.32s.31.15.31.33-.14.32-.31.32-.31-.15-.31-.33Z"/>
    <path class="cls-2" d="M221.92,90.4v-.49h2.24c-.62-1.15-.97-1.55-1.45-1.55-.12,0-.21.02-.3.06-.04-.04-.11-.13-.11-.26,0-.19.18-.3.49-.3.91,0,1.48,1.11,1.98,2.07v.48h-2.84Z"/>
  </g>
  <g>
    <path class="cls-2" d="M265.41,152.85c.66,0,1.21.43,1.21,1.34v1.2h-3.27c-1.18,0-1.6-.72-1.6-1.45,0-.41.13-.54.35-.54.08,0,.17.02.25.06-.04.18-.06.34-.06.47,0,.64.4.97,1.18.97h1.07c-.27-.22-.4-.5-.4-.83,0-.69.55-1.22,1.28-1.22ZM266.06,154.16c0-.55-.25-.86-.67-.86-.44,0-.69.33-.69.82,0,.38.16.78.72.78h.64v-.75ZM265.1,152.21c0-.18.14-.32.31-.32s.31.15.31.33-.14.32-.31.32-.31-.15-.31-.33Z"/>
    <path class="cls-2" d="M270.43,154.9v.49h-.75c-.04,1.01-.6,1.34-1.23,1.34-.3,0-.56-.07-.71-.15l.13-.43c.11.06.31.13.54.13.38,0,.71-.22.71-.88h-.58c-.91,0-1.34-.62-1.34-1.26s.42-1.29,1.26-1.29c.68,0,1.23.41,1.23,1.38v.68h.75ZM269.12,154.16c0-.55-.25-.86-.67-.86-.46,0-.69.36-.69.82s.23.78.7.78h.67v-.75Z"/>
    <path class="cls-2" d="M274.01,154.9v.49h-3.75v-.49h.92c-.24-.24-.34-.55-.34-.84,0-.6.43-1.22,1.26-1.22s1.26.61,1.26,1.21c0,.28-.09.61-.34.85h.97ZM272.12,154.94c.42,0,.7-.35.7-.83,0-.43-.23-.81-.7-.81s-.7.38-.7.81c0,.48.28.83.7.83ZM271.83,152.21c0-.18.14-.32.31-.32s.31.15.31.33-.14.32-.31.32-.31-.15-.31-.33Z"/>
    <path class="cls-2" d="M273.92,155.4v-.49h.95c-.27-.21-.41-.48-.41-.81,0-.69.61-1.19,1.58-1.19h.17v-.49c0-.19.1-.27.28-.27.12,0,.22.03.26.06v.71h1.6v1.99h.82v.49h-5.25ZM275.8,154.9h.42v-1.5h-.25c-.62,0-.93.31-.93.78,0,.37.18.72.77.72ZM277.79,154.9v-1.5h-1.03v1.5h1.03Z"/>
    <path class="cls-2" d="M279.81,154.9v-3.58c0-.18.1-.27.29-.27.12,0,.23.03.27.06v4.29h-1.38v-.49h.81Z"/>
    <path class="cls-2" d="M281.08,155.4v-4.07c0-.19.1-.28.3-.28.13,0,.22.04.27.06v4.29h-.56Z"/>
  </g>
  <g>
    <path class="cls-2" d="M277.33,108.32c0-.18.1-.27.29-.27.12,0,.23.03.27.06v3.09c0,.46.09.71.55.71h.33v.49h-.36c-.2,0-.39-.07-.52-.22-.07,1.05-.65,1.49-1.51,1.49-1.15,0-1.49-.8-1.49-1.7,0-.71.22-.88.39-.88.07,0,.16.03.26.08-.06.26-.09.56-.09.85,0,.78.29,1.2.96,1.2s.93-.4.93-1.27v-3.63Z"/>
    <path class="cls-2" d="M280.02,111.07c0,.54.06.83.55.83h.33v.49h-.4c-.35,0-.66-.17-.74-.45-.11.31-.41.45-.76.45h-.4v-.49h.31c.48,0,.55-.29.55-.83v-.95c0-.18.1-.27.29-.27.12,0,.23.03.27.06v1.17ZM279.6,113.07c0,.18-.14.32-.31.32s-.31-.15-.31-.33.14-.32.31-.32.31.15.31.33ZM280.53,113.07c0,.18-.14.32-.31.32s-.31-.15-.31-.33.14-.32.31-.32.31.15.31.33Z"/>
    <path class="cls-2" d="M282.16,111.07c0,.54.06.83.55.83h.33v.49h-.4c-.35,0-.66-.17-.74-.45-.11.31-.41.45-.76.45h-.4v-.49h.31c.48,0,.55-.29.55-.83v-.95c0-.18.1-.27.29-.27.12,0,.23.03.27.06v1.17ZM281.58,113.06c0-.18.14-.32.31-.32s.31.15.31.33-.14.32-.31.32-.31-.15-.31-.33Z"/>
    <path class="cls-2" d="M282.86,112.4v-.49h2.24c-.62-1.15-.97-1.55-1.45-1.55-.12,0-.21.02-.3.06-.04-.04-.11-.13-.11-.26,0-.19.18-.3.49-.3.92,0,1.47,1.09,1.98,2.05h.46v.49h-3.3ZM284.03,113.06c0-.18.14-.32.31-.32s.31.15.31.33-.14.32-.31.32-.31-.15-.31-.33Z"/>
    <path class="cls-2" d="M286.81,111.9v-3.58c0-.18.1-.27.29-.27.12,0,.23.03.27.06v4.29h-1.38v-.49h.81Z"/>
    <path class="cls-2" d="M288.08,112.4v-4.07c0-.19.1-.28.3-.28.13,0,.22.04.27.06v4.29h-.56Z"/>
  </g>
  <g>
    <path class="cls-2" d="M286.11,123.4h-2.24c-.26,0-.31.14-.31.38v.89h-.56v-1.06c0-.47.23-.7.67-.7h.35c-.27-.22-.4-.5-.4-.83,0-.69.55-1.22,1.28-1.22.66,0,1.21.43,1.21,1.34v1.2ZM285.54,122.16c0-.55-.25-.86-.67-.86-.44,0-.69.33-.69.82,0,.38.16.78.72.78h.64v-.75Z"/>
    <path class="cls-2" d="M286.76,123.4v-4.07c0-.19.1-.28.3-.28.13,0,.22.04.27.06v3.79h.81v.49h-1.38Z"/>
    <path class="cls-2" d="M291.11,123.4h-1.25c-.31,0-.83-.15-.96-.45-.14.27-.38.45-.73.45h-.2v-.49h.11c.46,0,.54-.33.54-.66,0-.91.52-1.4,1.25-1.4.69,0,1.24.43,1.24,1.34v1.2ZM289.94,122.9h.61v-.77c0-.5-.24-.83-.67-.83s-.69.32-.69.82.29.78.75.78Z"/>
    <path class="cls-2" d="M291.69,122.9h2.21v-.33c0-.8-.54-1.27-1.18-1.27-.23,0-.45.06-.69.17-.04-.04-.11-.14-.11-.25,0-.22.3-.37.78-.37.82,0,1.76.45,1.76,1.76v.29h.7v.49h-3.48v-.49Z"/>
    <path class="cls-2" d="M295.81,122.9v-3.58c0-.18.1-.27.29-.27.12,0,.23.03.27.06v4.29h-1.38v-.49h.81Z"/>
    <path class="cls-2" d="M297.08,123.4v-4.07c0-.19.1-.28.3-.28.13,0,.22.04.27.06v4.29h-.56Z"/>
  </g>
  <g>
    <path class="cls-2" d="M235.94,171.39c-.76,0-1.08.35-1.08.86,0,.55.38.99,1.04.99.4,0,.8-.14,1.08-.34l.25.41c-.27.18-.76.38-1.35.38-1.06,0-1.61-.68-1.61-1.45s.5-1.34,1.56-1.34h.83c-.62-1.15-.97-1.55-1.45-1.55-.12,0-.21.02-.3.05-.04-.04-.11-.13-.11-.26,0-.19.18-.3.49-.3.91,0,1.48,1.11,1.98,2.07v.48h-1.35ZM235.75,172.25c0-.18.14-.32.31-.32s.31.15.31.33-.14.32-.31.32-.31-.15-.31-.33Z"/>
    <path class="cls-2" d="M238.6,169.12c0-.18.09-.27.29-.27.13,0,.23.03.28.06v2h.87v.49h-.87v.27c0,.79-.47,1.02-.96,1.02-.31,0-.54-.08-.62-.12l.14-.4c.06.02.21.07.39.07.26,0,.5-.12.5-.55v-2.56Z"/>
    <path class="cls-2" d="M239.87,171.39v-.49h2.24c-.62-1.15-.97-1.55-1.45-1.55-.12,0-.21.02-.3.05-.04-.04-.11-.13-.11-.26,0-.19.18-.3.49-.3.92,0,1.47,1.09,1.98,2.05h.46v.49h-3.3ZM240.51,168.21c0-.18.14-.32.31-.32s.31.15.31.33-.14.32-.31.32-.31-.15-.31-.33Z"/>
    <path class="cls-2" d="M243.82,170.9v-3.58c0-.18.1-.27.29-.27.12,0,.23.03.27.06v4.29h-1.38v-.49h.81Z"/>
    <path class="cls-2" d="M245.09,171.39v-4.06c0-.19.1-.28.3-.28.13,0,.22.04.27.06v4.29h-.56Z"/>
  </g>
  <g>
    <path class="cls-2" d="M169.23,127.4c-1.02,0-1.32-.6-1.32-1.2,0-.85.61-1.29,1.58-1.29h.83v2.49h-1.09ZM169.29,126.9h.47v-1.5h-.35c-.62,0-.93.32-.93.79,0,.41.24.71.82.71ZM168.63,124.21c0-.18.14-.32.31-.32s.31.15.31.33-.14.32-.31.32-.31-.15-.31-.33ZM169.55,124.21c0-.18.14-.32.31-.32s.31.15.31.33-.14.32-.31.32-.31-.15-.31-.33Z"/>
    <path class="cls-2" d="M170.93,126.9h2.21v-.33c0-.8-.54-1.27-1.18-1.27-.23,0-.45.06-.69.17-.04-.04-.11-.14-.11-.25,0-.22.3-.37.78-.37.82,0,1.76.45,1.76,1.76v.29h.7v.49h-3.48v-.49Z"/>
    <path class="cls-2" d="M175.06,126.9v-1.78c0-.18.1-.27.29-.27.12,0,.23.03.27.06v2.49h-1.38v-.49h.81ZM175,128.07c0,.18-.14.32-.31.32s-.31-.15-.31-.33.14-.32.31-.32.31.15.31.33ZM175.92,128.07c0,.18-.14.32-.31.32s-.31-.15-.31-.33.14-.32.31-.32.31.15.31.33Z"/>
    <path class="cls-2" d="M177.03,125.12c0-.18.09-.27.29-.27.13,0,.23.03.28.06v2h.87v.49h-.87v.27c0,.79-.47,1.02-.96,1.02-.31,0-.54-.08-.62-.12l.14-.4c.06.02.21.07.39.07.26,0,.5-.12.5-.55v-2.56Z"/>
    <path class="cls-2" d="M179.11,126.9v-1.78c0-.18.1-.27.29-.27.12,0,.23.03.27.06v2.49h-1.38v-.49h.81ZM178.78,128.06c0-.18.14-.32.31-.32s.31.15.31.33-.14.32-.31.32-.31-.15-.31-.33Z"/>
  </g>
  <g>
    <path class="cls-2" d="M133.38,102.32c0-.18.1-.27.29-.27.12,0,.23.03.27.06v3.09c0,.46.09.71.55.71h.33v.49h-.36c-.2,0-.39-.07-.52-.22-.07,1.05-.65,1.49-1.51,1.49-1.15,0-1.49-.8-1.49-1.7,0-.71.22-.88.39-.88.07,0,.16.03.26.08-.06.26-.09.56-.09.85,0,.78.29,1.2.96,1.2s.93-.4.93-1.27v-3.63Z"/>
    <path class="cls-2" d="M135.47,105.9v-1.78c0-.18.1-.27.29-.27.12,0,.23.03.27.06v2.49h-1.38v-.49h.81ZM135.18,103.18h.26c-.06-.07-.09-.15-.09-.27,0-.28.21-.44.49-.44.17,0,.33.06.33.19,0,.06-.03.11-.09.16-.04-.02-.12-.07-.22-.07-.14,0-.2.06-.2.18,0,.16.13.24.28.24h.28v.29h-1.04v-.29Z"/>
    <path class="cls-2" d="M136.71,106.4v-4.07c0-.19.1-.28.3-.28.13,0,.22.04.27.06v3.79h.81v.49h-1.38Z"/>
    <path class="cls-2" d="M137.92,106.4v-.49h2.24c-.62-1.15-.97-1.55-1.45-1.55-.12,0-.21.02-.3.06-.04-.04-.11-.13-.11-.26,0-.19.18-.3.49-.3.91,0,1.48,1.11,1.98,2.07v.48h-2.84Z"/>
  </g>
  <g>
    <path class="cls-2" d="M42.9,91.9v-3.58c0-.18.1-.27.29-.27.12,0,.23.03.27.06v4.29h-2.35c-1.18,0-1.6-.72-1.6-1.45,0-.43.14-.54.35-.54.08,0,.17.02.25.06-.04.18-.06.34-.06.47,0,.64.4.97,1.18.97h1.67ZM41.05,90.08h.26c-.06-.07-.09-.15-.09-.27,0-.28.21-.44.49-.44.17,0,.33.06.33.19,0,.06-.03.11-.09.16-.04-.02-.12-.07-.22-.07-.14,0-.2.06-.2.18,0,.16.13.24.28.24h.28v.29h-1.04v-.29Z"/>
    <path class="cls-2" d="M47.33,91.9v.49h-.75c-.04,1.01-.6,1.34-1.23,1.34-.3,0-.56-.07-.71-.15l.13-.43c.11.06.31.13.54.13.38,0,.71-.22.71-.88h-.58c-.91,0-1.34-.62-1.34-1.26s.42-1.29,1.26-1.29c.68,0,1.23.41,1.23,1.38v.68h.75ZM46.02,91.16c0-.55-.25-.86-.67-.86-.46,0-.69.36-.69.82s.23.78.7.78h.67v-.75Z"/>
    <path class="cls-2" d="M48.59,91.07c0,.54.06.83.55.83h.33v.49h-.4c-.35,0-.66-.17-.74-.45-.11.31-.41.45-.76.45h-.4v-.49h.31c.48,0,.55-.29.55-.83v-.95c0-.18.1-.27.29-.27.12,0,.23.03.27.06v1.17ZM48.01,93.06c0-.18.14-.32.31-.32s.31.15.31.33-.14.32-.31.32-.31-.15-.31-.33Z"/>
    <path class="cls-2" d="M50.11,91.9v-1.78c0-.18.1-.27.29-.27.12,0,.23.03.27.06v2.49h-1.38v-.49h.81ZM49.63,89.21c0-.18.14-.32.31-.32s.31.15.31.33-.14.32-.31.32-.31-.15-.31-.33ZM50.56,89.21c0-.18.14-.32.31-.32s.31.15.31.33-.14.32-.31.32-.31-.15-.31-.33Z"/>
  </g>
  <g>
    <path class="cls-2" d="M101.38,159.4c-1.02,0-1.32-.6-1.32-1.2,0-.85.61-1.29,1.58-1.29h.83v1.99h.77v.49h-1.87ZM101.45,158.9h.47v-1.5h-.35c-.62,0-.93.32-.93.79,0,.41.24.71.82.71ZM100.78,156.21c0-.18.14-.32.31-.32s.31.15.31.33-.14.32-.31.32-.31-.15-.31-.33ZM101.71,156.21c0-.18.14-.32.31-.32s.31.15.31.33-.14.32-.31.32-.31-.15-.31-.33Z"/>
    <path class="cls-2" d="M104.51,158.07c0,.54.06.83.55.83h.33v.49h-.4c-.35,0-.66-.17-.74-.45-.11.31-.41.45-.76.45h-.4v-.49h.31c.48,0,.55-.29.55-.83v-.95c0-.18.1-.27.29-.27.12,0,.23.03.27.06v1.17ZM103.94,156.21c0-.18.14-.32.31-.32s.31.15.31.33-.14.32-.31.32-.31-.15-.31-.33Z"/>
    <path class="cls-2" d="M106.03,158.9v-1.78c0-.18.1-.27.29-.27.12,0,.23.03.27.06v2.49h-1.38v-.49h.81ZM105.97,160.07c0,.18-.14.32-.31.32s-.31-.15-.31-.33.14-.32.31-.32.31.15.31.33ZM106.9,160.07c0,.18-.14.32-.31.32s-.31-.15-.31-.33.14-.32.31-.32.31.15.31.33Z"/>
    <path class="cls-2" d="M107.2,158.9h2.21v-.33c0-.8-.54-1.27-1.18-1.27-.23,0-.45.06-.69.17-.04-.04-.11-.14-.11-.25,0-.22.3-.37.78-.37.82,0,1.76.45,1.76,1.76v.29h.7v.49h-3.48v-.49Z"/>
    <path class="cls-2" d="M111.13,158.9c.06-.65.52-1.13,1.21-1.13s1.15.48,1.21,1.13h.61v.49h-.65c-.14.52-.56.89-1.17.89s-1.04-.38-1.18-.89h-.65v-.49h.61ZM112.34,158.23c-.42,0-.68.34-.68.8s.26.8.68.8.67-.34.67-.8-.26-.8-.67-.8Z"/>
    <path class="cls-2" d="M114.82,158.9v-3.58c0-.18.1-.27.29-.27.12,0,.23.03.27.06v4.29h-1.38v-.49h.81Z"/>
    <path class="cls-2" d="M116.09,159.4v-4.07c0-.19.1-.28.3-.28.13,0,.22.04.27.06v4.29h-.56Z"/>
  </g>
  <g>
    <path class="cls-2" d="M76.67,167.91l.25.41c-.28.18-.75.38-1.37.38-.92,0-1.46-.43-1.46-1.25,0-.46.17-.82.49-1.13l.23-.22c-.55-.57-.83-1.4-.83-1.68,0-.45.72-.56,1.31-.56.56,0,1.26.1,1.26.61,0,.29-.28,1.04-.65,1.45h1.29v.49h-1.93c-.19.18-.6.48-.6,1.06s.39.79.93.79c.44,0,.79-.14,1.07-.34ZM75.28,164.3c-.24,0-.54.04-.73.13.07.49.35,1.08.75,1.41.4-.36.62-.88.7-1.41-.21-.08-.48-.13-.71-.13Z"/>
    <path class="cls-2" d="M78.45,165.07c0,.54.06.83.55.83h.33v.49h-.4c-.35,0-.66-.17-.74-.45-.11.31-.41.45-.76.45h-.4v-.49h.31c.48,0,.55-.29.55-.83v-.95c0-.18.1-.27.29-.27.12,0,.23.03.27.06v1.17ZM77.88,167.06c0-.18.14-.32.31-.32s.31.15.31.33-.14.32-.31.32-.31-.15-.31-.33Z"/>
    <path class="cls-2" d="M80.59,165.07c0,.54.06.83.55.83h.33v.49h-.4c-.35,0-.66-.17-.74-.45-.11.31-.41.45-.76.45h-.4v-.49h.31c.48,0,.55-.29.55-.83v-.95c0-.18.1-.27.29-.27.12,0,.23.03.27.06v1.17ZM80.01,163.21c0-.18.14-.32.31-.32s.31.15.31.33-.14.32-.31.32-.31-.15-.31-.33Z"/>
    <path class="cls-2" d="M82.11,165.9v-1.78c0-.18.1-.27.29-.27.12,0,.23.03.27.06v2.49h-1.38v-.49h.81ZM82.04,167.07c0,.18-.14.32-.31.32s-.31-.15-.31-.33.14-.32.31-.32.31.15.31.33ZM82.97,167.07c0,.18-.14.32-.31.32s-.31-.15-.31-.33.14-.32.31-.32.31.15.31.33Z"/>
  </g>
  <g>
    <path class="cls-2" d="M79.91,221.39c-1.02,0-1.32-.6-1.32-1.2,0-.84.61-1.29,1.58-1.29h.83v2.49h-1.09ZM79.97,220.9h.47v-1.5h-.35c-.62,0-.93.32-.93.79,0,.41.24.71.82.71ZM79.31,218.21c0-.18.14-.32.31-.32s.31.15.31.33-.14.32-.31.32-.31-.15-.31-.33ZM80.23,218.21c0-.18.14-.32.31-.32s.31.15.31.33-.14.32-.31.32-.31-.15-.31-.33Z"/>
    <path class="cls-2" d="M81.61,220.9h2.21v-.33c0-.8-.54-1.27-1.18-1.27-.23,0-.45.06-.69.17-.04-.04-.11-.14-.11-.25,0-.21.3-.37.78-.37.82,0,1.76.45,1.76,1.76v.29h.7v.49h-3.48v-.49Z"/>
    <path class="cls-2" d="M84.92,221.39v-.49h2.24c-.62-1.15-.97-1.55-1.45-1.55-.12,0-.21.02-.3.05-.04-.04-.11-.13-.11-.26,0-.19.18-.3.49-.3.91,0,1.48,1.11,1.98,2.07v.48h-2.84ZM86.18,222.06c0-.18.14-.32.31-.32s.31.15.31.33-.14.32-.31.32-.31-.15-.31-.33Z"/>
  </g>
  <g>
    <path class="cls-2" d="M110.47,219.39c-1.02,0-1.32-.6-1.32-1.2,0-.84.61-1.29,1.58-1.29h.83v1.99h.77v.49h-1.87ZM110.53,218.9h.47v-1.5h-.35c-.62,0-.93.32-.93.79,0,.41.24.71.82.71ZM109.86,216.21c0-.18.14-.32.31-.32s.31.15.31.33-.14.32-.31.32-.31-.15-.31-.33ZM110.79,216.21c0-.18.14-.32.31-.32s.31.15.31.33-.14.32-.31.32-.31-.15-.31-.33Z"/>
    <path class="cls-2" d="M113.34,216.84c.8.04,1.61.58,1.61,1.77v.29h.77v.49h-3.55v-.49h2.21v-.25c0-.97-.62-1.34-1.21-1.34-.24,0-.48.05-.63.12-.06-.06-.13-.15-.13-.28,0-.04,0-.11.07-.15l1.98-1.83c.08-.08.18-.12.28-.12.14,0,.25.07.33.2l-1.73,1.59Z"/>
    <path class="cls-2" d="M118.7,219.39h-1.25c-.31,0-.83-.15-.96-.45-.14.27-.38.45-.73.45h-.2v-.49h.11c.46,0,.54-.33.54-.66,0-.91.52-1.4,1.25-1.4.69,0,1.24.42,1.24,1.34v1.2ZM117.53,218.9h.61v-.77c0-.5-.24-.83-.67-.83s-.69.32-.69.82.29.78.75.78Z"/>
  </g>
  <g>
    <path class="cls-2" d="M119.08,226.39c-1.18,0-1.6-.72-1.6-1.45,0-.41.13-.54.35-.54.08,0,.17.02.25.06-.04.18-.06.34-.06.47,0,.64.4.97,1.18.97h1.07c-.27-.22-.4-.5-.4-.83,0-.69.55-1.22,1.28-1.22.66,0,1.21.42,1.21,1.34v.71h.69v.49h-3.96ZM121.79,225.16c0-.55-.25-.86-.67-.86-.44,0-.69.33-.69.82,0,.38.16.78.72.78h.64v-.75ZM120.83,223.21c0-.18.14-.32.31-.32s.31.15.31.33-.14.32-.31.32-.31-.15-.31-.33Z"/>
    <path class="cls-2" d="M123.69,225.9v-1.78c0-.18.1-.27.29-.27.12,0,.23.03.27.06v2.49h-1.38v-.49h.81ZM123.4,223.18h.27c-.06-.07-.09-.15-.09-.26,0-.28.21-.44.49-.44.17,0,.33.06.33.19,0,.06-.03.11-.09.16-.04-.02-.12-.07-.22-.07-.14,0-.2.06-.2.18,0,.16.13.24.28.24h.28v.29h-1.04v-.29Z"/>
    <path class="cls-2" d="M124.94,226.39v-4.06c0-.19.1-.28.3-.28.13,0,.22.04.27.06v3.79h.81v.49h-1.38Z"/>
    <path class="cls-2" d="M126.15,225.9h.86v-3.58c0-.18.1-.27.29-.27.12,0,.23.03.27.06v2.58c.22-.55.69-.83,1.33-.83.71,0,1.49.36,1.49,1.6v.45h.77v.49h-5.02v-.49ZM127.57,225.9h2.26v-.46c0-.76-.35-1.14-.96-1.14-.83,0-1.3.7-1.3,1.6Z"/>
    <path class="cls-2" d="M131.82,225.9v-3.58c0-.18.1-.27.29-.27.12,0,.23.03.27.06v4.29h-1.38v-.49h.81Z"/>
    <path class="cls-2" d="M133.09,226.39v-4.06c0-.19.1-.28.3-.28.13,0,.22.04.27.06v4.29h-.56Z"/>
  </g>
  <g>
    <path class="cls-2" d="M151.44,276.56v-4.07c0-.19.1-.28.3-.28.13,0,.22.04.27.06v3.79h.81v.49h-1.38Z"/>
    <path class="cls-2" d="M152.65,276.56v-.49h.95c-.27-.21-.41-.48-.41-.81,0-.69.61-1.19,1.58-1.19h.17v-.49c0-.19.11-.27.28-.27.12,0,.22.03.26.06v.71h1.6v1.99h.82v.49h-5.25ZM154.53,276.07h.41v-1.5h-.25c-.62,0-.93.32-.93.78,0,.37.18.72.77.72ZM156.52,276.07v-1.5h-1.03v1.5h1.03Z"/>
    <path class="cls-2" d="M158.54,276.07v-1.78c0-.18.1-.27.29-.27.12,0,.23.03.27.05v2.49h-1.38v-.49h.81ZM158.22,277.23c0-.18.14-.32.31-.32s.31.15.31.33-.14.32-.31.32-.31-.15-.31-.33Z"/>
    <path class="cls-2" d="M159.58,271.53h.27c-.06-.07-.09-.15-.09-.26,0-.28.21-.44.49-.44.17,0,.33.06.33.19,0,.06-.03.11-.09.16-.04-.02-.12-.07-.22-.07-.14,0-.2.06-.2.18,0,.16.13.24.28.24h.28v.29h-1.04v-.29ZM159.79,276.56v-4.07c0-.19.1-.28.3-.28.13,0,.22.04.27.06v4.29h-.56Z"/>
  </g>
  <g>
    <path class="cls-2" d="M184.62,291.12c0-.18.1-.27.29-.27.12,0,.23.03.27.06v2.1c0,1.18-.62,1.66-1.52,1.66-1.15,0-1.49-.8-1.49-1.7,0-.71.22-.88.39-.88.07,0,.16.03.26.08-.06.26-.09.56-.09.85,0,.78.29,1.2.96,1.2s.93-.4.93-1.27v-1.83ZM183.39,290.21c0-.18.14-.32.31-.32s.31.15.31.33-.14.32-.31.32-.31-.15-.31-.33Z"/>
    <path class="cls-2" d="M185.9,293.39v-4.06c0-.19.1-.28.3-.28.13,0,.22.04.27.06v4.29h-.56Z"/>
    <path class="cls-2" d="M187.89,291.12c0-.18.09-.27.29-.27.13,0,.23.03.28.06v2h.87v.49h-.87v.27c0,.79-.47,1.02-.96,1.02-.31,0-.54-.08-.62-.12l.14-.4c.06.02.21.07.39.07.26,0,.5-.12.5-.55v-2.56Z"/>
    <path class="cls-2" d="M189.16,293.39v-.49h2.24c-.62-1.15-.97-1.55-1.45-1.55-.12,0-.21.02-.3.05-.04-.04-.11-.13-.11-.26,0-.19.18-.3.49-.3.92,0,1.47,1.09,1.98,2.05h.46v.49h-3.3ZM190.33,294.06c0-.18.14-.32.31-.32s.31.15.31.33-.14.32-.31.32-.31-.15-.31-.33Z"/>
    <path class="cls-2" d="M193.11,292.9v-1.78c0-.18.1-.27.29-.27.12,0,.23.03.27.06v2.49h-1.38v-.49h.81ZM193.08,290.21c0-.18.14-.32.31-.32s.31.15.31.33-.14.32-.31.32-.31-.15-.31-.33Z"/>
  </g>
  <g>
    <path class="cls-2" d="M155.17,303.12c0-.18.1-.27.29-.27.12,0,.23.03.27.06v2.1c0,1.18-.62,1.66-1.52,1.66-1.15,0-1.49-.8-1.49-1.7,0-.71.22-.88.39-.88.07,0,.16.03.26.08-.06.26-.09.56-.09.85,0,.78.29,1.2.96,1.2s.93-.4.93-1.27v-1.83ZM153.94,302.21c0-.18.14-.32.31-.32s.31.15.31.33-.14.32-.31.32-.31-.15-.31-.33Z"/>
    <path class="cls-2" d="M156.44,305.39v-4.06c0-.19.1-.28.3-.28.13,0,.22.04.27.06v4.29h-.56Z"/>
    <path class="cls-2" d="M158.44,303.12c0-.18.09-.27.29-.27.13,0,.23.03.28.06v2.76c0,.79-.47,1.02-.96,1.02-.31,0-.54-.08-.62-.12l.14-.4c.06.02.21.07.39.07.27,0,.51-.12.5-.55v-2.56ZM158.43,302.21c0-.18.14-.32.31-.32s.31.15.31.33-.14.32-.31.32-.31-.15-.31-.33Z"/>
    <path class="cls-2" d="M159.71,305.39v-4.06c0-.19.1-.28.3-.28.13,0,.22.04.27.06v3.79h.81v.49h-1.38Z"/>
    <path class="cls-2" d="M160.92,305.39v-.49h2.24c-.62-1.15-.97-1.55-1.45-1.55-.12,0-.21.02-.3.05-.04-.04-.11-.13-.11-.26,0-.19.18-.3.49-.3.91,0,1.48,1.11,1.98,2.07v.48h-2.84ZM162.18,306.06c0-.18.14-.32.31-.32s.31.15.31.33-.14.32-.31.32-.31-.15-.31-.33Z"/>
  </g>
  <path class="cls-2" d="M224.97,149.22c0,.53-.43.95-.95.95s-.95-.43-.95-.95.43-.95.95-.95.95.43.95.95Z"/>
</svg>